<?xml version="1.0" standalone="no"?>
<!DOCTYPE svg PUBLIC "-//W3C//DTD SVG 1.1//EN" "http://www.w3.org/Graphics/SVG/1.1/DTD/svg11.dtd" >
<svg xmlns="http://www.w3.org/2000/svg">
<metadata></metadata>
<defs>
<font id="pf_dintext_proregular" horiz-adv-x="3723" >
<font-face units-per-em="2048" ascent="1536" descent="-512" />
<missing-glyph horiz-adv-x="458" />
<glyph unicode="fj" horiz-adv-x="978" d="M45 868v148h125v164q0 327 352 327q213 0 326 -131l-115 -114q-75 88 -221 88q-172 0 -172 -166v-168h494v-1153q0 -123 -80.5 -200t-208.5 -77h-62v154q60 0 62 2q56 2 87.5 36.5t31.5 96.5v993h-324v-868h-170v868h-125z" />
<glyph unicode="ffj" horiz-adv-x="1488" d="M45 868v148h125v123q0 327 352 327q130 0 221 -49q90 90 273 90q212 0 325 -131l-114 -114q-75 88 -221 88q-172 0 -172 -166v-168h493v-1153q0 -123 -80.5 -200t-208.5 -77h-61v154q59 0 61 2q56 2 87.5 36.5t31.5 96.5v993h-323v-868h-170v868h-324v-868h-170v868h-125 zM340 1016h324v164q0 53 8 92q-66 37 -160 37q-172 0 -172 -166v-127z" />
<glyph unicode="ff" horiz-adv-x="1064" d="M45 868v148h125v123q0 327 352 327q122 0 209 -43q71 74 195 74h129v-156h-113q-61 0 -84.5 -35t-23.5 -96v-194h213v-148h-213v-868h-170v868h-324v-868h-170v868h-125zM340 1016h324v215q0 29 2 43q-59 35 -154 35q-172 0 -172 -166v-127z" />
<glyph unicode="fi" horiz-adv-x="978" d="M45 868v148h125v164q0 327 352 327q213 0 326 -131l-115 -114q-75 88 -221 88q-172 0 -172 -166v-168h494v-1016h-170v868h-324v-868h-170v868h-125z" />
<glyph unicode="fl" horiz-adv-x="1026" d="M45 868v148h125v164q0 327 352 327q152 0 312 -69v-1188q0 -96 104 -96h49v-154h-72q-249 0 -249 236v1087q-80 27 -154 27q-172 0 -172 -166v-168h219v-148h-219v-868h-170v868h-125z" />
<glyph unicode="ffi" horiz-adv-x="1488" d="M45 868v148h125v123q0 327 352 327q130 0 221 -49q90 90 273 90q212 0 325 -131l-114 -114q-75 88 -221 88q-172 0 -172 -166v-168h493v-1016h-170v868h-323v-868h-170v868h-324v-868h-170v868h-125zM340 1016h324v164q0 53 8 92q-66 37 -160 37q-172 0 -172 -166v-127z " />
<glyph unicode="ffl" horiz-adv-x="1517" d="M45 868v148h125v123q0 327 352 327q130 0 221 -49q90 90 273 90q151 0 311 -69v-1188q0 -96 105 -96h49v-154h-72q-250 0 -250 236v1087q-80 27 -153 27q-172 0 -172 -166v-168h215v-148h-215v-868h-170v868h-324v-868h-170v868h-125zM340 1016h324v164q0 53 8 92 q-66 37 -160 37q-172 0 -172 -166v-127z" />
<glyph unicode="ft" horiz-adv-x="1048" d="M45 868v148h125v215q0 130 73 198t189 68h121v-156h-104q-61 0 -85 -35t-24 -96v-194h324v252h167v-252h156v-146h-156v-591q0 -127 101 -127h88v-152h-121q-106 0 -170.5 62.5t-64.5 175.5v632l-324 -2v-868h-170v868h-125z" />
<glyph unicode=" "  horiz-adv-x="458" />
<glyph unicode="&#x09;" horiz-adv-x="458" />
<glyph unicode="&#xa0;" horiz-adv-x="458" />
<glyph unicode="!" horiz-adv-x="493" d="M158 0v201h184v-201h-184zM166 1425h162l-21 -1063h-123z" />
<glyph unicode="&#x22;" horiz-adv-x="632" d="M125 1012v413h131v-413h-131zM373 1012v413h131v-413h-131z" />
<glyph unicode="#" horiz-adv-x="1024" d="M31 442v117h205l43 311h-189v117h205l59 434h125l-59 -434h231l60 434h125l-60 -434h203v-117h-219l-43 -311h203v-117h-220l-59 -442h-125l59 442h-231l-59 -442h-125l59 442h-188zM360 559h232l43 311h-232z" />
<glyph unicode="$" horiz-adv-x="1024" d="M72 154q17 20 50 67t50 68q131 -121 303 -139v483q-80 22 -141.5 51.5t-116 73.5t-84 109t-29.5 147q0 166 101.5 276.5t269.5 122.5v168h103v-170q88 -8 173 -37.5t148 -75.5q-14 -21 -41.5 -70t-40.5 -71q-114 77 -239 94v-467q73 -20 126 -40.5t102.5 -53t79.5 -73 t48 -99t18 -133.5q0 -169 -102.5 -274.5t-271.5 -120.5v-228h-103v228q-111 6 -216.5 48t-186.5 116zM283 1010q0 -132 192 -197v442q-86 -11 -139 -74.5t-53 -170.5zM578 152q93 13 144.5 74t51.5 157q0 92 -53 142.5t-143 80.5v-454z" />
<glyph unicode="%" horiz-adv-x="1613" d="M106 811v375q0 111 78 178.5t189 67.5q110 0 188 -67.5t78 -178.5v-375q0 -114 -77.5 -181t-188.5 -67t-189 67t-78 181zM240 819q0 -62 36 -96.5t97 -34.5t97 34.5t36 96.5v359q0 60 -36.5 94.5t-96.5 34.5t-96.5 -34.5t-36.5 -94.5v-359zM309 -35l871 1495h127 l-873 -1495h-125zM975 240v374q0 111 78 178.5t188 67.5t188 -67.5t78 -178.5v-374q0 -114 -77.5 -181t-188.5 -67t-188.5 67t-77.5 181zM1108 248q0 -62 36 -96.5t97 -34.5t97 34.5t36 96.5v358q0 60 -36.5 94.5t-96.5 34.5t-96.5 -34.5t-36.5 -94.5v-358z" />
<glyph unicode="&#x26;" horiz-adv-x="1302" d="M147 342q0 134 69.5 239t223.5 203q-24 29 -61 80q-52 68 -78.5 124.5t-26.5 121.5q0 147 96.5 240.5t278.5 93.5q192 0 334 -125l-104 -121q-71 56 -124 73t-130 17q-92 0 -137.5 -48.5t-45.5 -125.5q0 -44 15 -75t59 -93q49 -65 193.5 -253t220.5 -290q68 117 96 248 l160 -24q-50 -210 -154 -355q24 -30 99 -127t114 -145h-201l-122 154q-173 -166 -373 -166q-195 0 -298.5 101.5t-103.5 252.5zM315 352q0 -91 62.5 -149t177.5 -58q70 0 145.5 40t126.5 91q-35 45 -94.5 123.5t-109.5 144.5t-95 124q-213 -130 -213 -316z" />
<glyph unicode="'" horiz-adv-x="493" d="M174 1012v413h129v-413h-129z" />
<glyph unicode="(" horiz-adv-x="593" d="M104 625q0 127 30 252t84 234.5t119 203.5t144 180l94 -57q-131 -171 -208.5 -385.5t-77.5 -417.5q0 -215 77.5 -429t206.5 -386l-86 -66q-168 181 -275.5 406.5t-107.5 464.5z" />
<glyph unicode=")" horiz-adv-x="593" d="M41 -180q130 171 207.5 385.5t77.5 429.5q0 203 -77 417.5t-208 385.5l92 57q168 -182 273.5 -403.5t105.5 -466.5q0 -239 -108.5 -464t-276.5 -407z" />
<glyph unicode="*" horiz-adv-x="739" d="M57 1151l39 133l228 -96l-21 246h139l-20 -246q193 81 227 96l39 -135l-233 -59l159 -185q-84 -67 -114 -88l-127 213l-129 -215q-12 10 -53 40t-62 48l160 187q-38 9 -116 30.5t-116 30.5z" />
<glyph unicode="+" horiz-adv-x="1024" d="M59 537v131h387v389h132v-389h385v-131h-385v-394h-132v394h-387z" />
<glyph unicode="," horiz-adv-x="516" d="M131 -231l66 231h-58v227h211v-223l-114 -235h-105z" />
<glyph unicode="-" horiz-adv-x="802" d="M106 471v154h590v-154h-590z" />
<glyph unicode="." horiz-adv-x="497" d="M143 0v227h211v-227h-211z" />
<glyph unicode="/" horiz-adv-x="649" d="M-2 -86l514 1571h133l-514 -1571h-133z" />
<glyph unicode="0" horiz-adv-x="1024" d="M115 389v647q0 123 56.5 216.5t146 139.5t194.5 46t194.5 -46t146 -139.5t56.5 -216.5v-647q0 -124 -56.5 -217t-145.5 -138.5t-195 -45.5t-195 45.5t-145.5 138.5t-56.5 217zM283 401q0 -115 62 -181t167 -66q104 0 166.5 66.5t62.5 180.5v623q0 114 -62.5 181 t-166.5 67q-105 0 -167 -66.5t-62 -181.5v-623z" />
<glyph unicode="1" horiz-adv-x="1024" d="M258 1114l2 178l182 133h170v-1425h-168v1249z" />
<glyph unicode="2" horiz-adv-x="1024" d="M102 0v168l553 698q80 103 80 203q0 87 -56 146t-161 59q-90 0 -153.5 -61t-77.5 -160l-172 24q24 163 138 260t269 97q173 0 283 -94.5t110 -266.5q0 -66 -27.5 -141.5t-76.5 -136.5l-498 -629h588v-166h-799z" />
<glyph unicode="3" horiz-adv-x="1024" d="M104 297l166 25q20 -88 81.5 -133.5t146.5 -45.5q115 0 184.5 80t69.5 201q0 117 -68 184.5t-176 67.5h-102v147h83q107 0 176.5 64t69.5 164q0 99 -65.5 163t-163.5 64q-74 0 -136.5 -49t-84.5 -135l-168 22q28 141 137 231.5t252 90.5q101 0 179.5 -31t125.5 -85 t70.5 -121.5t23.5 -145.5q0 -191 -176 -303q101 -58 148 -143.5t47 -178.5q0 -196 -119.5 -319t-310.5 -123q-53 0 -102 9.5t-97 32.5t-85.5 57.5t-65.5 88t-40 121.5z" />
<glyph unicode="4" horiz-adv-x="1024" d="M59 217v164l490 1044h186l-495 -1050h438v420h166v-420h119v-158h-119v-217h-166v217h-619z" />
<glyph unicode="5" horiz-adv-x="1024" d="M94 297l168 29q18 -95 79 -141t153 -46q251 0 251 353q0 52 -5 93.5t-20.5 83.5t-40.5 70.5t-68 46t-101 17.5q-124 0 -203 -127h-166v749h744v-159h-586v-398q64 57 123 76t133 19q170 0 264 -115t94 -307v-90q0 -132 -45.5 -234.5t-142 -164.5t-231.5 -62 q-339 0 -400 307z" />
<glyph unicode="6" horiz-adv-x="1024" d="M109 414q0 154 75 303l369 708h186l-317 -620l6 -2q55 24 131 24q159 0 261 -116t102 -281q0 -89 -23.5 -163.5t-63 -125t-93 -86t-113 -51.5t-123.5 -16q-182 0 -289.5 110t-107.5 316zM276 418q0 -126 63.5 -200.5t170.5 -74.5q103 0 168 75.5t65 199.5 q0 123 -66 193.5t-167 70.5q-94 0 -164 -71.5t-70 -192.5z" />
<glyph unicode="7" horiz-adv-x="1024" d="M113 1047v378h796v-174l-493 -1251h-189l498 1260h-444v-213h-168z" />
<glyph unicode="8" horiz-adv-x="1024" d="M84 408q0 102 54 193.5t147 133.5q-88 42 -131 122.5t-43 176.5q0 169 115.5 286.5t285.5 117.5q183 0 292 -115t109 -289q0 -93 -45 -172t-123 -127q95 -38 145 -129.5t50 -197.5q0 -183 -125 -301.5t-303 -118.5t-303 118.5t-125 301.5zM250 410q0 -109 79 -186 t183 -77t182 77t78 186q0 108 -77.5 181t-182.5 73t-183.5 -73t-78.5 -181zM279 1038q0 -108 68.5 -169.5t164.5 -61.5q95 0 164 61t69 170q0 110 -69.5 175t-163.5 65q-95 0 -164 -65t-69 -175z" />
<glyph unicode="9" horiz-adv-x="1024" d="M104 987q0 115 34.5 204t94 141t132.5 78t157 26q75 0 145.5 -27.5t127.5 -79.5t91 -134.5t34 -184.5q0 -131 -54 -236l-399 -776h-186l331 639l-6 2q-24 -15 -63.5 -24t-73.5 -9q-163 0 -264 106.5t-101 274.5zM272 1006q0 -123 68.5 -194t169.5 -71t167 71t66 194 q0 126 -63 200t-170 74q-104 0 -171 -75.5t-67 -198.5z" />
<glyph unicode=":" horiz-adv-x="487" d="M131 0v227h211v-227h-211zM131 584v227h211v-227h-211z" />
<glyph unicode=";" horiz-adv-x="487" d="M129 -231l66 231h-58v227h211v-223l-115 -235h-104zM137 584v227h211v-227h-211z" />
<glyph unicode="&#x3c;" horiz-adv-x="1024" d="M88 543v123l834 415v-145l-668 -332l668 -330v-145z" />
<glyph unicode="=" horiz-adv-x="1024" d="M59 338v137h904v-137h-904zM59 731v137h904v-137h-904z" />
<glyph unicode="&#x3e;" horiz-adv-x="1024" d="M90 129v145l668 330l-668 332v145l834 -415v-123z" />
<glyph unicode="?" horiz-adv-x="1017" d="M86 1040q31 131 99 221t157 131.5t195 41.5q179 0 289 -106.5t110 -268.5q-2 -59 -16.5 -108t-44.5 -94t-52.5 -71.5t-66.5 -72.5q-36 -36 -53.5 -56.5t-41 -52t-33.5 -62t-10 -63.5v-102h-178v106q0 138 105 246q7 7 36.5 37t41 43.5t36.5 42t37 47.5t27 45t21 50t6 48 q0 27 -6 54.5t-22 59t-41 55t-68 39.5t-97 16q-59 0 -108.5 -28t-79.5 -70.5t-47 -83t-21 -74.5zM434 0v201h184v-201h-184z" />
<glyph unicode="@" horiz-adv-x="1693" d="M94 688q0 158 58.5 297.5t160.5 240.5t247.5 159.5t311.5 58.5q199 0 362.5 -84.5t258 -235.5t94.5 -338q0 -109 -21 -195.5t-56 -143t-84 -94t-102.5 -53t-113.5 -15.5q-50 0 -117.5 35.5t-84.5 93.5h-11q-25 -46 -89.5 -76.5t-141.5 -30.5q-120 0 -198.5 60t-78.5 172 q0 96 65 161.5t185 65.5h242v90q0 63 -47 96t-135 33q-90 0 -174 -80l-95 78q47 55 123 89t158 34q147 0 223 -57t76 -195v-317q0 -59 33.5 -95t81.5 -36q221 0 221 380q0 124 -48.5 227t-128.5 169.5t-180.5 102.5t-207.5 36q-182 0 -331 -83.5t-233 -228.5t-84 -321 q0 -293 179.5 -471t474.5 -178q125 0 222 20.5t202 71.5l43 -119q-238 -92 -457 -92q-172 0 -319.5 54t-254.5 151.5t-168 242.5t-61 320zM610 547q0 -53 43.5 -86t126.5 -33q97 0 149 36t52 107v88h-213q-158 0 -158 -112z" />
<glyph unicode="A" horiz-adv-x="1224" d="M12 0l523 1425h155l522 -1425h-190l-115 328h-592l-114 -328h-189zM367 483h489l-137 400l-105 303h-6l-100 -295z" />
<glyph unicode="B" horiz-adv-x="1224" d="M156 0v1425h538q202 0 311 -101.5t109 -270.5q0 -96 -53.5 -185t-161.5 -127v-6q79 -19 137 -74t84.5 -124t26.5 -142q0 -176 -114.5 -285.5t-278.5 -109.5h-598zM336 166h366q128 0 196.5 70.5t68.5 173.5q0 102 -68.5 171.5t-196.5 69.5h-366v-485zM336 807h336 q126 0 194 65t68 166q0 100 -68.5 165t-193.5 65h-336v-461z" />
<glyph unicode="C" horiz-adv-x="1112" d="M106 516v393q0 107 32 200.5t93 167t159 116.5t222 43q168 0 289 -80.5t178 -220.5l-168 -76q-36 93 -113.5 148t-183.5 55t-182.5 -53t-111.5 -133.5t-35 -174.5v-371q0 -97 35 -179.5t111.5 -136.5t182.5 -54t184.5 57.5t114.5 155.5l168 -82q-54 -144 -176.5 -223.5 t-292.5 -79.5q-124 0 -222 42t-159 115.5t-93 167.5t-32 203z" />
<glyph unicode="D" horiz-adv-x="1265" d="M156 0v1425h467q167 0 293.5 -65t191.5 -199q35 -71 45 -168.5t10 -255.5q0 -174 -9.5 -276t-41.5 -178q-124 -283 -524 -283h-432zM336 166h278q369 0 369 405v273q0 114 -26.5 196.5t-77 129.5t-115.5 68.5t-150 21.5h-278v-1094z" />
<glyph unicode="E" horiz-adv-x="1112" d="M156 0v1425h901v-165h-721v-461h614v-158h-614v-475h721v-166h-901z" />
<glyph unicode="F" horiz-adv-x="1073" d="M156 0v1425h901v-165h-721v-472h614v-157h-614v-631h-180z" />
<glyph unicode="G" horiz-adv-x="1224" d="M104 516v393q0 107 30.5 200.5t89.5 167.5t156 116.5t220 42.5q168 0 289 -80.5t178 -220.5l-168 -76q-36 93 -115 148t-186 55q-80 0 -142 -30.5t-99 -82t-55.5 -114.5t-18.5 -134v-383q0 -98 35 -180t111.5 -136.5t182.5 -54.5q137 0 231.5 102t94.5 238v113h-301v164 h481v-277q0 -219 -142 -360t-366 -141q-126 0 -224.5 42.5t-159 116t-91.5 168t-31 203.5z" />
<glyph unicode="H" horiz-adv-x="1302" d="M156 0v1425h180v-626h631v626h180v-1425h-180v641h-631v-641h-180z" />
<glyph unicode="I" horiz-adv-x="493" d="M156 0v1425h180v-1425h-180z" />
<glyph unicode="J" horiz-adv-x="956" d="M29 135l118 133q41 -41 107.5 -75.5t120.5 -34.5q56 0 99.5 12.5t82 44t59.5 92.5t21 150v968h180v-970q0 -127 -33.5 -219.5t-94.5 -145.5t-137 -77.5t-171 -24.5q-105 0 -198.5 40t-153.5 107z" />
<glyph unicode="K" horiz-adv-x="1265" d="M156 0v1425h182v-772l6 2l262 320l375 450h209l-465 -561l528 -864h-209l-434 723l-274 -330v-393h-180z" />
<glyph unicode="L" horiz-adv-x="1112" d="M156 0v1425h180v-1259h721v-166h-901z" />
<glyph unicode="M" horiz-adv-x="1531" d="M156 0v1425h180l301 -665l141 -332h6l142 330l297 667h176v-1425h-180v1016l-7 -4l-110 -269l-246 -532h-158l-249 549l-107 256l-6 -4v-1012h-180z" />
<glyph unicode="N" horiz-adv-x="1378" d="M156 0v1425h178l502 -776l206 -342l7 4v1114h178v-1425h-176l-521 803l-188 311l-6 -2v-1112h-180z" />
<glyph unicode="O" horiz-adv-x="1218" d="M102 516v393q0 107 32 200.5t93 167t159 116.5t222 43q231 0 369.5 -148t138.5 -379v-393q0 -242 -138 -385t-370 -143q-124 0 -222 42t-159 115.5t-93 167.5t-32 203zM281 526q0 -97 35 -179.5t111.5 -136.5t182.5 -54q148 0 237 104.5t89 265.5v379q0 154 -89 257.5 t-237 103.5q-106 0 -182.5 -53t-111.5 -133.5t-35 -174.5v-379z" />
<glyph unicode="P" horiz-adv-x="1171" d="M156 0v1425h522q92 0 174 -25t149.5 -75t107.5 -135.5t40 -196.5q0 -76 -30 -150t-84.5 -134.5t-140.5 -98t-187 -37.5h-371v-573h-180zM336 739h354q128 0 199.5 78.5t71.5 181.5q0 126 -77 193.5t-202 67.5h-346v-521z" />
<glyph unicode="Q" horiz-adv-x="1224" d="M104 516v393q0 107 32 200.5t93 167t159 116.5t222 43q231 0 369.5 -148t138.5 -379v-393q0 -156 -59 -274l186 -150l-98 -123l-182 146q-136 -127 -355 -127q-124 0 -222 42t-159 115.5t-93 167.5t-32 203zM283 530q0 -97 35 -179.5t111.5 -136.5t182.5 -54 q121 0 205 71l-199 160l105 121l184 -150q31 88 31 168v371q0 154 -89 257.5t-237 103.5q-106 0 -182.5 -53t-111.5 -133.5t-35 -174.5v-371z" />
<glyph unicode="R" horiz-adv-x="1224" d="M156 0v1425h581q176 0 294 -109t118 -280q0 -143 -83.5 -246t-223.5 -145l288 -645h-200l-273 627h-321v-627h-180zM336 784h360q121 0 197 67t76 185q0 116 -71 174t-193 58h-369v-484z" />
<glyph unicode="S" horiz-adv-x="1114" d="M4 182l115 146q84 -81 198 -124.5t242 -43.5q144 0 231 61t87 187q0 47 -18.5 83.5t-45 59t-74.5 41.5t-88 28.5t-104 22.5q-174 34 -245 62q-158 64 -199 205q-17 57 -17 128q0 126 66 219t171.5 138t235.5 45q284 0 457 -137l-101 -154q-171 115 -356 115 q-141 0 -218 -59.5t-77 -166.5q0 -37 11 -66t36.5 -52t55 -39.5t80 -32t97.5 -26.5t120 -25q48 -10 80 -18t77.5 -23.5t76 -33.5t64 -48t54 -66t34 -88t13.5 -114q0 -193 -141 -305.5t-371 -112.5q-142 0 -291.5 50.5t-255.5 143.5z" />
<glyph unicode="T" horiz-adv-x="995" d="M2 1268v157h991v-157h-405v-1268h-180v1268h-406z" />
<glyph unicode="U" horiz-adv-x="1265" d="M127 516v909h178v-895q0 -97 35.5 -179.5t112 -136.5t182.5 -54q152 0 239 96.5t87 273.5v895h180v-909q0 -242 -138 -385t-370 -143q-124 0 -222 42t-159 115.5t-93 167.5t-32 203z" />
<glyph unicode="V" horiz-adv-x="1112" d="M6 1425h197l227 -727l121 -391l10 2q18 66 58 197t59 196l223 723h199l-473 -1425h-148z" />
<glyph unicode="W" horiz-adv-x="1685" d="M25 1425h196l160 -698l86 -385l8 -2l94 383l195 702h147l201 -714l98 -373h7q12 56 36 182.5t37 184.5l164 720h197l-361 -1425h-155l-193 709l-102 381l-9 -3l-92 -352l-198 -735h-158z" />
<glyph unicode="X" horiz-adv-x="1071" d="M-2 0l438 731l-409 694h200l308 -555l309 555h200l-409 -694l438 -731h-201l-337 592l-336 -592h-201z" />
<glyph unicode="Y" horiz-adv-x="1040" d="M4 1425h191l198 -395l127 -272l133 284l193 383h186l-428 -860v-565h-172v565z" />
<glyph unicode="Z" horiz-adv-x="1034" d="M68 0v158l694 1110h-668v157h875v-143l-699 -1116h699v-166h-901z" />
<glyph unicode="[" horiz-adv-x="534" d="M150 -215v1645h346v-115h-193v-1415h193v-115h-346z" />
<glyph unicode="\" horiz-adv-x="649" d="M-2 1485h133l514 -1571h-133z" />
<glyph unicode="]" horiz-adv-x="534" d="M55 -100h191v1415h-191v115h344v-1645h-344v115z" />
<glyph unicode="^" horiz-adv-x="1024" d="M47 672l414 751h123l415 -751h-145l-332 604l-329 -604h-146z" />
<glyph unicode="_" horiz-adv-x="1024" d="M0 -141h1024v-123h-1024v123z" />
<glyph unicode="`" horiz-adv-x="1005" d="M397 1481l166 51l148 -363l-109 -41z" />
<glyph unicode="a" horiz-adv-x="987" d="M72 289q0 127 84 213t239 86h320v114q0 84 -56 125t-178 41q-166 0 -241 -88l-107 113q56 65 146 99t196 34q410 0 410 -328v-698h-170v88l-2 2q-28 -45 -104 -73.5t-177 -28.5q-169 0 -264.5 83.5t-95.5 217.5zM231 299q0 -74 56 -116t166 -42q262 0 262 189v119h-279 q-98 0 -151.5 -39.5t-53.5 -110.5z" />
<glyph unicode="b" horiz-adv-x="1015" d="M121 0v1487h168v-586h4q114 125 276 125q355 0 363 -504q0 -85 -8 -155.5t-32 -143t-63 -122.5t-105.5 -81.5t-154.5 -31.5q-191 0 -276 125h-4v-113h-168zM289 508q0 -367 233 -367q61 0 106 24t69.5 59t38.5 87.5t18 96.5t4 100t-4.5 100t-19 93t-39 81.5t-69 54 t-104.5 21.5q-59 0 -102.5 -22.5t-68 -56t-39 -82.5t-19 -92.5t-4.5 -96.5z" />
<glyph unicode="c" horiz-adv-x="882" d="M57 506q0 109 25.5 197.5t69.5 148t103.5 99.5t125 57.5t137.5 17.5q188 0 332 -141l-109 -123q-42 47 -99 74.5t-116 27.5q-145 0 -223 -89.5t-78 -268.5q0 -178 78 -268.5t223 -90.5q60 0 117 30.5t98 74.5l111 -121q-143 -143 -334 -143q-72 0 -137.5 17.5t-125 57.5 t-103.5 99t-69.5 147.5t-25.5 196.5z" />
<glyph unicode="d" horiz-adv-x="1015" d="M94 498q0 84 10 156t37.5 142.5t70.5 119.5t114 79.5t163 30.5q77 0 143 -26t103 -76h4v563h168v-1487h-168v98l-6 2q-117 -112 -284 -112q-85 0 -148.5 27.5t-102.5 72.5t-63 112.5t-32.5 138.5t-8.5 159zM270 508q0 -64 4 -110t18 -95t38.5 -79.5t68 -50t103.5 -19.5 q58 0 102 23t69 58t40.5 84.5t20.5 93.5t5 95q0 54 -4 96.5t-18 92.5t-37.5 83t-67 55.5t-102.5 22.5q-61 0 -106 -21.5t-70 -54t-40 -81.5t-19.5 -93t-4.5 -100z" />
<glyph unicode="e" horiz-adv-x="985" d="M80 504q0 116 26 208t67.5 150t98 96.5t114 54t118.5 15.5q173 0 289 -120t116 -326v-131h-653v-17q0 -126 68.5 -208.5t193.5 -82.5q51 0 116 26.5t114 70.5l108 -121q-137 -131 -346 -131q-67 0 -124.5 13t-115.5 48t-98.5 91.5t-66 149.5t-25.5 214zM256 592h477 q-6 134 -69 205t-168 71q-104 0 -168.5 -72.5t-71.5 -203.5z" />
<glyph unicode="f" horiz-adv-x="571" d="M45 868v148h125v215q0 130 73 198t189 68h121v-156h-104q-61 0 -85 -35t-24 -96v-194h213v-148h-213v-868h-170v868h-125z" />
<glyph unicode="g" horiz-adv-x="1046" d="M94 485q0 87 8 158t32.5 145.5t65 125t110 82.5t163.5 32q76 0 148 -33.5t112 -91.5h4v113h170v-998q0 -111 -35.5 -196.5t-97.5 -137.5t-139.5 -78t-167.5 -26q-205 0 -328 117l101 137q42 -37 108 -64.5t123 -27.5q118 0 192 67t74 187v119h-4q-112 -125 -276 -125 q-84 0 -148.5 28t-104.5 74t-65.5 111.5t-35 133.5t-9.5 148zM268 508q0 -63 4 -108.5t17.5 -94t38 -78.5t68 -49.5t104.5 -19.5q237 0 237 350q0 36 -1 63.5t-6.5 66t-14.5 67.5t-26.5 60t-41.5 51t-60.5 33t-82.5 13q-61 0 -106 -22t-69.5 -55t-38.5 -83.5t-18 -94 t-4 -99.5z" />
<glyph unicode="h" horiz-adv-x="1036" d="M115 0v1487h168v-598h6q52 66 126 101.5t156 35.5q154 0 251.5 -91t97.5 -261v-674h-168v608q0 124 -51 188t-173 64q-104 0 -174.5 -69t-70.5 -183v-608h-168z" />
<glyph unicode="i" horiz-adv-x="458" d="M145 0v1016h168v-1016h-168zM145 1257v168h168v-168h-168z" />
<glyph unicode="j" horiz-adv-x="497" d="M-14 -260h61q56 2 87.5 37t31.5 98v1141h170v-1153q0 -126 -67.5 -201.5t-192.5 -75.5h-90v154zM166 1257v168h170v-168h-170z" />
<glyph unicode="k" horiz-adv-x="1036" d="M139 0v1487h168v-961h6l439 490h198l-346 -383l418 -633h-195l-335 510l-185 -203v-307h-168z" />
<glyph unicode="l" horiz-adv-x="497" d="M139 236v1251h168v-1237q0 -96 105 -96h49v-154h-72q-250 0 -250 236z" />
<glyph unicode="m" horiz-adv-x="1673" d="M115 0v1016h170v-125h4q50 65 124.5 100t157.5 35q185 0 301 -145h2q134 145 334 145q153 0 250.5 -93t97.5 -257v-676h-167v608q0 124 -54 190t-180 66q-103 0 -168 -70t-65 -186v-608h-170v608q0 124 -54.5 190t-179.5 66q-103 0 -168 -70t-65 -186v-608h-170z" />
<glyph unicode="n" horiz-adv-x="1036" d="M115 0v1018h168v-129h6q52 65 131 101t162 36q152 0 245 -90.5t93 -261.5v-674h-168v608q0 125 -52.5 188.5t-179.5 63.5q-103 0 -170 -68.5t-67 -183.5v-608h-168z" />
<glyph unicode="o" horiz-adv-x="1052" d="M104 504q0 184 52 291q51 109 151 169t232 60q109 0 195.5 -44t139.5 -126q70 -110 70 -311q0 -262 -63 -369q-52 -89 -148 -137.5t-217 -48.5q-110 0 -197 39t-139 114q-76 116 -76 363zM272 502q0 -153 31 -221q30 -67 85.5 -103.5t129.5 -36.5q85 0 148.5 45t91.5 136 q16 56 16 215q0 124 -26 188q-28 73 -85 110t-131 37q-75 0 -133.5 -37.5t-89.5 -105.5q-34 -71 -37 -227z" />
<glyph unicode="p" horiz-adv-x="1021" d="M115 -406v1422h168v-113l6 -2q108 125 276 125q84 0 149 -29.5t105 -77t65 -115.5t34.5 -137.5t9.5 -150.5q0 -84 -10 -156t-37.5 -142.5t-71 -119.5t-114.5 -79.5t-163 -30.5q-159 0 -245 102h-4v-496h-168zM283 506q0 -54 4 -96.5t18 -92.5t37.5 -83t67 -55.5 t102.5 -22.5q61 0 106 21.5t70 54t40 81.5t19.5 93t4.5 100q0 46 -2.5 81.5t-9.5 79.5t-23 75.5t-40.5 60t-64 43t-90.5 14.5q-239 0 -239 -354z" />
<glyph unicode="q" horiz-adv-x="1046" d="M115 492q0 534 393 534q74 0 140.5 -34t105.5 -95h4v119h168v-1428h-168v525h-4q-114 -125 -285 -125q-70 0 -126 19.5t-93.5 56t-64 82t-41.5 105t-21.5 117t-7.5 124.5zM289 506q0 -56 4 -100t18.5 -93t39 -81.5t69 -54t104.5 -21.5q59 0 103 22.5t68.5 56t39 82.5 t19 92.5t4.5 96.5q0 366 -234 366q-61 0 -106 -24t-69 -58.5t-38.5 -87t-18 -96.5t-3.5 -100z" />
<glyph unicode="r" horiz-adv-x="747" d="M139 0v1016h168v-129h8q52 75 117 107t150 32q110 0 172 -43l-72 -162q-59 39 -143 39q-103 0 -167.5 -64t-64.5 -182v-614h-168z" />
<glyph unicode="s" horiz-adv-x="935" d="M39 135l102 129q143 -125 330 -125q97 0 160 41t63 117q0 72 -57.5 101.5t-175.5 41.5q-49 5 -82.5 10.5t-80.5 17t-78 30.5t-60.5 47.5t-44.5 72t-15 99.5q0 138 108 223.5t263 85.5q218 0 363 -111l-91 -135q-136 90 -272 90q-96 0 -151.5 -40.5t-55.5 -108.5 q0 -45 33 -73t90.5 -42t155.5 -24q47 -5 88.5 -15t85 -31t74.5 -51t51 -77.5t20 -106.5q0 -140 -111.5 -226.5t-287.5 -86.5q-253 0 -424 147z" />
<glyph unicode="t" horiz-adv-x="630" d="M72 870v146h121v252h167v-252h156v-146h-156v-591q0 -127 101 -127h88v-152h-121q-106 0 -170.5 62.5t-64.5 175.5v632h-121z" />
<glyph unicode="u" horiz-adv-x="1052" d="M115 342v674h168v-610q0 -138 49.5 -198.5t183.5 -60.5q101 0 168.5 72t67.5 187v610h168v-1016h-168v115h-7q-49 -63 -122.5 -95t-155.5 -32q-165 0 -258.5 86t-93.5 268z" />
<glyph unicode="v" horiz-adv-x="925" d="M14 1016h185q24 -71 73 -221.5t74 -221.5l119 -337h8q81 246 107 335q25 71 74 222t73 223h186l-374 -1016h-148z" />
<glyph unicode="w" horiz-adv-x="1472" d="M12 1016h185l153 -535l66 -227h8q11 39 33.5 113.5t31.5 107.5l168 541h156l164 -535l70 -239h10q20 70 65 245l148 529h186l-326 -1016h-159l-152 489l-88 283l-82 -280l-151 -492h-162z" />
<glyph unicode="x" horiz-adv-x="948" d="M33 0l346 520l-330 496h201l225 -381l225 381h203l-332 -498l347 -518h-203l-240 395l-239 -395h-203z" />
<glyph unicode="y" horiz-adv-x="897" d="M0 1016h186l162 -461l105 -319h6l104 317l158 463h176l-436 -1231q-28 -79 -72 -124t-89 -58t-107 -13h-87v148h84q44 0 75 26t52 89l56 167z" />
<glyph unicode="z" horiz-adv-x="888" d="M70 0v139l553 729h-523v148h719v-146l-549 -714h549v-156h-749z" />
<glyph unicode="{" horiz-adv-x="534" d="M31 555v104q78 10 118.5 86t40.5 181v278q0 99 54 160t135 61h139v-110h-84q-35 0 -57 -28.5t-29.5 -66t-7.5 -83.5v-256q0 -62 -17.5 -113.5t-44 -82.5t-50 -49t-42.5 -24v-6q19 -6 42.5 -24t50 -48.5t44 -81t17.5 -110.5v-266q0 -46 7.5 -83.5t29.5 -66t57 -28.5h84 v-109h-139q-81 0 -135 60.5t-54 158.5v285q0 112 -40 182.5t-119 79.5z" />
<glyph unicode="|" horiz-adv-x="417" d="M143 -332v1798h133v-1798h-133z" />
<glyph unicode="}" horiz-adv-x="534" d="M23 -102h86q49 0 71.5 52.5t22.5 125.5v266q0 60 17 110.5t43 81t49.5 48.5t43.5 24v6q-20 6 -43.5 24t-49.5 49t-43 82.5t-17 113.5v256q0 33 -0.5 51t-5.5 46t-14 43t-28 26.5t-46 11.5h-86v102h135q95 0 144.5 -58.5t49.5 -154.5v-278q0 -106 40.5 -181.5t117.5 -85.5 v-104q-79 -9 -118.5 -79.5t-39.5 -182.5v-285q0 -98 -53.5 -158.5t-134.5 -60.5h-141v109z" />
<glyph unicode="~" horiz-adv-x="1024" d="M53 561q104 176 275 176q42 0 95.5 -21t96 -45.5t93.5 -45.5t89 -21q46 0 78 28t80 95l117 -88q-60 -96 -123.5 -141t-153.5 -45q-36 0 -88.5 21t-97 45.5t-97.5 45.5t-91 21q-36 0 -63 -13.5t-44.5 -32t-48.5 -59.5z" />
<glyph unicode="&#xa1;" horiz-adv-x="493" d="M158 803v201h184v-201h-184zM172 -422l10 1063h144l8 -1063h-162z" />
<glyph unicode="&#xa2;" horiz-adv-x="1024" d="M115 506q0 121 31 216.5t85.5 156t122 95.5t148.5 46v211h92v-205q177 -8 313 -141l-108 -123q-40 45 -94 72t-111 30v-717q113 6 205 105l110 -121q-135 -135 -315 -143v-228h-92v234q-80 10 -148 45t-122.5 95t-85.5 155.5t-31 216.5zM283 506q0 -150 56.5 -238 t162.5 -112v700q-219 -49 -219 -350z" />
<glyph unicode="&#xa3;" horiz-adv-x="1024" d="M90 0v131q170 223 178 471h-178v139h141q-9 35 -33 101t-37.5 120t-13.5 105q0 96 44 178.5t132 135.5t203 53q148 0 236.5 -39t175.5 -156l-147 -104q-93 141 -269 141q-68 0 -126 -53.5t-58 -155.5q0 -67 38 -181t44 -145h325v-139h-311q-7 -271 -125 -446h627v-156 h-846z" />
<glyph unicode="&#xa4;" horiz-adv-x="1138" d="M82 274l141 138q-78 122 -78 241q0 123 78 242l-141 139q18 18 100 101l140 -140q119 78 243 78q125 0 244 -78l137 140l101 -103l-140 -137q78 -119 78 -242q0 -119 -78 -241q113 -108 140 -136l-101 -102l-137 139q-115 -80 -244 -80q-128 0 -243 80l-140 -139z M291 653q0 -113 79 -192.5t193 -79.5q115 0 195 79.5t80 192.5q0 115 -80 195t-195 80q-114 0 -193 -80.5t-79 -194.5z" />
<glyph unicode="&#xa5;" horiz-adv-x="1024" d="M39 1425h178l293 -677h10l283 677h180l-309 -684h244v-110h-297l-23 -53v-144h320v-110h-320v-324h-164v324h-317v110h317v144l-20 53h-297v110h241z" />
<glyph unicode="&#xa6;" horiz-adv-x="417" d="M143 -332v836h133v-836h-133zM143 623v843h133v-843h-133z" />
<glyph unicode="&#xa7;" horiz-adv-x="954" d="M96 4l97 107q113 -121 290 -121q238 0 238 182q0 69 -62.5 115t-189.5 88q-180 59 -263 130.5t-83 201.5q0 120 96 223q-80 87 -80 192q0 139 105 227.5t262 88.5q213 0 354 -123l-92 -119q-122 96 -266 96q-95 0 -148 -43t-53 -114q0 -49 33 -85t86 -58.5t117 -43 t128 -48.5t117 -65t86 -101t33 -150q0 -127 -86 -222q70 -98 70 -188q0 -146 -109.5 -238t-292.5 -92q-112 0 -217.5 44t-169.5 116zM272 719q0 -44 30 -79.5t81 -60.5t103 -44t113.5 -40.5t94.5 -39.5q60 50 60 131q0 29 -7.5 52t-27 42.5t-39 34t-56.5 30.5t-65 26.5 t-80 27.5q-44 14 -131 51q-76 -50 -76 -131z" />
<glyph unicode="&#xa8;" horiz-adv-x="1005" d="M223 1223v180h180v-180h-180zM592 1223v180h180v-180h-180z" />
<glyph unicode="&#xa9;" horiz-adv-x="1644" d="M115 698q0 152 55 286t149.5 228.5t226.5 149.5t281 55q150 0 282.5 -55t227.5 -150t150 -228.5t55 -285.5q0 -151 -55 -283.5t-150 -227t-227.5 -149t-282.5 -54.5q-204 0 -367 93t-254 256t-91 365zM244 698q0 -124 44.5 -233.5t122 -187.5t185.5 -123t231 -45 q250 0 417 168.5t167 420.5q0 168 -76 304t-209.5 213t-298.5 77q-164 0 -297.5 -77t-209.5 -213t-76 -304zM518 569v238q0 89 34.5 162t107.5 119.5t174 46.5q107 0 183.5 -53t112.5 -146l-120 -53q-24 58 -69.5 92.5t-104.5 34.5q-90 0 -139.5 -61.5t-49.5 -147.5v-223 q0 -87 49.5 -151.5t139.5 -64.5q61 0 106 37t68 99l123 -58q-37 -95 -114.5 -147.5t-184.5 -52.5q-150 0 -233 94t-83 235z" />
<glyph unicode="&#xaa;" horiz-adv-x="694" d="M57 768q0 85 60 143t170 58h209v63q0 96 -150 96q-108 0 -164 -59l-86 84q40 46 106 71t140 25q289 0 289 -219v-459h-135v86q-73 -94 -193 -94q-119 0 -182.5 56t-63.5 149zM186 774q0 -44 35.5 -68t104.5 -24q170 0 170 111v65h-181q-61 0 -95 -22t-34 -62z" />
<glyph unicode="&#xab;" horiz-adv-x="940" d="M90 475l260 381h160l-254 -381l254 -381h-160zM442 475l260 381h160l-252 -381l252 -381h-160z" />
<glyph unicode="&#xac;" horiz-adv-x="1024" d="M59 537v131h904l-2 -525h-132v394h-770z" />
<glyph unicode="&#xad;" horiz-adv-x="802" d="M106 471v154h590v-154h-590z" />
<glyph unicode="&#xae;" horiz-adv-x="1146" d="M143 1008q0 184 123 307t305 123q183 0 305.5 -123t122.5 -307q0 -183 -122.5 -303.5t-305.5 -120.5q-182 0 -305 121t-123 303zM225 1008q0 -149 99 -249t247 -100t247.5 100t99.5 249q0 152 -99.5 252t-247.5 100t-247 -100t-99 -252zM412 760v495h204q63 0 105.5 -39 t42.5 -102q0 -46 -26 -81.5t-70 -53.5l114 -219h-96l-104 207h-86v-207h-84zM496 1044h106q34 0 56 19t22 51q0 66 -76 66h-108v-136z" />
<glyph unicode="&#xaf;" horiz-adv-x="1005" d="M260 1229v153h549v-153h-549z" />
<glyph unicode="&#xb0;" horiz-adv-x="788" d="M119 1163q0 114 80 194.5t194 80.5t194.5 -80.5t80.5 -194.5t-80.5 -194t-194.5 -80t-194 80t-80 194zM229 1163q0 -67 48.5 -115.5t115.5 -48.5q69 0 116.5 48t47.5 116t-47.5 116t-116.5 48q-67 0 -115.5 -48.5t-48.5 -115.5z" />
<glyph unicode="&#xb1;" horiz-adv-x="1024" d="M78 0v131h883v-131h-883zM78 596v131h377v356h131v-356h375v-131h-375v-356h-131v356h-377z" />
<glyph unicode="&#xb2;" horiz-adv-x="636" d="M47 756v116l354 410q50 56 50 107q0 43 -33.5 73.5t-91.5 30.5q-53 0 -91 -36.5t-47 -94.5l-135 18q15 105 93 169.5t182 64.5q115 0 189.5 -58.5t74.5 -164.5q0 -41 -18.5 -88t-51.5 -84q-258 -292 -297 -338h357v-125h-535z" />
<glyph unicode="&#xb3;" horiz-adv-x="645" d="M43 954l133 19q12 -52 48 -79.5t85 -27.5q66 0 107 42.5t41 105.5t-39.5 98t-102.5 35h-77v113h65q63 0 103 33t40 85q0 50 -38.5 83.5t-94.5 33.5q-41 0 -79 -29.5t-52 -79.5l-133 19q20 92 94.5 151.5t169.5 59.5q133 0 201 -67.5t68 -168.5q0 -112 -101 -174 q58 -36 85.5 -86t27.5 -102q0 -119 -80 -194.5t-207 -75.5q-97 0 -170.5 49t-93.5 157z" />
<glyph unicode="&#xb4;" horiz-adv-x="1005" d="M395 1169l148 363l166 -51l-205 -353z" />
<glyph unicode="&#xb6;" horiz-adv-x="1153" d="M88 1040q0 77 23 147.5t67 128.5t115.5 93t161.5 35h596v-133h-88v-1479h-152v1479h-174v-1479h-154v832h-80q-99 0 -172.5 55.5t-108 139.5t-34.5 181z" />
<glyph unicode="&#xb7;" horiz-adv-x="487" d="M137 434v228h211v-228h-211z" />
<glyph unicode="&#xb8;" horiz-adv-x="882" d="M299 -385l35 88q71 -31 143 -31q40 0 68 21t28 53q0 38 -32 60t-86 22h-29l-41 43l66 211l92 -8l-49 -154q56 -3 98 -20.5t64 -44t32 -53.5t10 -54q0 -29 -11.5 -57t-35.5 -54.5t-69 -42.5t-105 -16q-97 0 -178 37z" />
<glyph unicode="&#xb9;" horiz-adv-x="555" d="M117 1389v135l125 86h129v-854h-135v710z" />
<glyph unicode="&#xba;" horiz-adv-x="727" d="M66 905q0 123 36 189q35 73 105.5 113t163.5 40q163 0 237 -112q49 -69 49 -205q0 -167 -47 -244q-76 -123 -254 -123q-162 0 -235 103q-55 80 -55 239zM201 903q0 -96 20 -137q40 -84 137 -84q113 0 152 109q12 37 12 135q0 76 -18 116q-37 88 -137 88q-47 0 -84.5 -23 t-57.5 -63q-24 -52 -24 -141z" />
<glyph unicode="&#xbb;" horiz-adv-x="940" d="M92 94l252 381l-252 381h160l260 -381l-260 -381h-160zM444 94l254 381l-254 381h160l260 -381l-260 -381h-160z" />
<glyph unicode="&#xbc;" horiz-adv-x="1613" d="M180 1204v135l125 86h129v-854h-135v711zM246 -35l870 1495h127l-872 -1495h-125zM864 127v111l318 616h147l-315 -608h243v241h136v-241h73v-119h-73v-127h-136v127h-393z" />
<glyph unicode="&#xbd;" horiz-adv-x="1613" d="M129 1204v135l125 86h129v-854h-135v711zM182 -35l871 1495h127l-873 -1495h-125zM903 0v117l354 409q50 56 50 107q0 43 -33.5 73.5t-91.5 30.5q-53 0 -91 -36.5t-47 -94.5l-135 19q15 105 93 169t182 64q115 0 189.5 -58.5t74.5 -164.5q0 -41 -18.5 -88t-51.5 -84 q-258 -292 -297 -338h357v-125h-535z" />
<glyph unicode="&#xbe;" horiz-adv-x="1613" d="M92 770l133 18q12 -52 48 -79t85 -27q66 0 107 42t41 105t-39 98.5t-102 35.5h-78v112h65q63 0 103.5 33.5t40.5 85.5q0 50 -39 83.5t-95 33.5q-41 0 -79 -29.5t-52 -79.5l-133 19q20 92 94.5 151.5t169.5 59.5q133 0 201 -67.5t68 -168.5q0 -112 -101 -174 q58 -36 85.5 -86t27.5 -102q0 -119 -80 -195t-207 -76q-46 0 -86.5 11t-77.5 34t-63.5 64.5t-36.5 97.5zM387 -35l870 1495h127l-872 -1495h-125zM997 127v111l318 616h147l-315 -608h244v241h135v-241h73v-119h-73v-127h-135v127h-394z" />
<glyph unicode="&#xbf;" horiz-adv-x="919" d="M41 -53q2 59 16.5 108t44.5 94t52.5 71.5t66.5 72.5q35 36 53 56t41 52t33 62t10 63v103h179v-107q0 -138 -105 -246q-7 -7 -36.5 -37t-41 -43.5t-36.5 -42t-37 -47.5t-27 -45t-21 -50t-6 -48q0 -34 10.5 -69t34.5 -71.5t73 -59.5t116 -23q59 0 108.5 28t79.5 70.5t47 83 t21 74.5l174 -31q-31 -131 -99 -221t-157 -131t-195 -41q-179 0 -289 106.5t-110 268.5zM358 805v201h185v-201h-185z" />
<glyph unicode="&#xc0;" horiz-adv-x="1224" d="M12 0l523 1425h155l522 -1425h-190l-115 328h-592l-114 -328h-189zM250 1722l121 125l303 -250l-76 -86zM367 483h489l-137 400l-105 303h-6l-100 -295z" />
<glyph unicode="&#xc1;" horiz-adv-x="1224" d="M12 0l523 1425h155l522 -1425h-190l-115 328h-592l-114 -328h-189zM367 483h489l-137 400l-105 303h-6l-100 -295zM512 1597l303 250l121 -125l-348 -211z" />
<glyph unicode="&#xc2;" horiz-adv-x="1224" d="M12 0l523 1425h155l522 -1425h-190l-115 328h-592l-114 -328h-189zM260 1591l307 262h109l293 -258l-62 -79l-293 176l-295 -179zM367 483h489l-137 400l-105 303h-6l-100 -295z" />
<glyph unicode="&#xc3;" horiz-adv-x="1224" d="M12 0l523 1425h155l522 -1425h-190l-115 328h-592l-114 -328h-189zM250 1597q41 86 100 134.5t121 48.5q52 0 146.5 -48.5t127.5 -48.5q64 0 125 93l107 -60q-86 -182 -219 -182q-51 0 -143 43t-130 43q-35 0 -62.5 -18t-66.5 -64zM367 483h489l-137 400l-105 303h-6 l-100 -295z" />
<glyph unicode="&#xc4;" horiz-adv-x="1224" d="M12 0l523 1425h155l522 -1425h-190l-115 328h-592l-114 -328h-189zM336 1577v180h180v-180h-180zM367 483h489l-137 400l-105 303h-6l-100 -295zM705 1577v180h180v-180h-180z" />
<glyph unicode="&#xc5;" horiz-adv-x="1224" d="M12 0l523 1425h155l522 -1425h-190l-115 328h-592l-114 -328h-189zM367 483h489l-137 400l-105 303h-6l-100 -295zM410 1663q0 83 59 142t143 59q83 0 142 -59t59 -142t-59 -142t-142 -59q-84 0 -143 59t-59 142zM500 1663q0 -47 32.5 -80t79.5 -33t80 33t33 80 q0 46 -33 79.5t-80 33.5t-79.5 -33.5t-32.5 -79.5z" />
<glyph unicode="&#xc6;" horiz-adv-x="2000" d="M20 0l910 1425h979v-165h-721v-461h614v-158h-614v-475h721v-166h-903v418h-531l-266 -418h-189zM573 573h433v680z" />
<glyph unicode="&#xc7;" horiz-adv-x="1112" d="M106 516v393q0 107 32 200.5t93 167t159 116.5t222 43q168 0 289 -80.5t178 -220.5l-168 -76q-36 93 -113.5 148t-183.5 55t-182.5 -53t-111.5 -133.5t-35 -174.5v-371q0 -97 35 -179.5t111.5 -136.5t182.5 -54t184.5 57.5t114.5 155.5l168 -82q-54 -142 -174.5 -222 t-288.5 -81l-20 -68q56 -3 98 -20.5t64 -44t32.5 -53.5t10.5 -54q0 -29 -11.5 -57t-35.5 -54.5t-69 -42.5t-105 -16q-98 0 -179 37l35 88q71 -31 144 -31q40 0 68 21t28 53q0 38 -32.5 60t-86.5 22h-29l-41 43l37 123q-137 17 -233.5 93t-141.5 186t-45 243z" />
<glyph unicode="&#xc8;" horiz-adv-x="1112" d="M156 0v1425h901v-165h-721v-461h614v-158h-614v-475h721v-166h-901zM287 1722l121 125l303 -250l-76 -86z" />
<glyph unicode="&#xc9;" horiz-adv-x="1112" d="M156 0v1425h901v-165h-721v-461h614v-158h-614v-475h721v-166h-901zM471 1597l303 250l121 -125l-348 -211z" />
<glyph unicode="&#xca;" horiz-adv-x="1112" d="M156 0v1425h901v-165h-721v-461h614v-158h-614v-475h721v-166h-901zM260 1591l307 262h109l293 -258l-62 -79l-293 176l-295 -179z" />
<glyph unicode="&#xcb;" horiz-adv-x="1112" d="M156 0v1425h901v-165h-721v-461h614v-158h-614v-475h721v-166h-901zM326 1571v180h180v-180h-180zM694 1571v180h180v-180h-180z" />
<glyph unicode="&#xcc;" horiz-adv-x="493" d="M-90 1722l121 125l303 -250l-76 -86zM156 0v1425h180v-1425h-180z" />
<glyph unicode="&#xcd;" horiz-adv-x="493" d="M156 0v1425h180v-1425h-180zM180 1597l303 250l121 -125l-348 -211z" />
<glyph unicode="&#xce;" horiz-adv-x="493" d="M-104 1591l307 262h108l293 -258l-61 -79l-293 176l-295 -179zM156 0v1425h180v-1425h-180z" />
<glyph unicode="&#xcf;" horiz-adv-x="493" d="M-23 1571v180h181v-180h-181zM156 0v1425h180v-1425h-180zM346 1571v180h180v-180h-180z" />
<glyph unicode="&#xd0;" horiz-adv-x="1265" d="M12 672v129h144v624h467q167 0 293.5 -65t191.5 -199q35 -71 45 -168.5t10 -255.5q0 -174 -9.5 -276t-41.5 -178q-124 -283 -524 -283h-432v672h-144zM336 166h278q369 0 369 405v273q0 114 -26.5 196.5t-77 129.5t-115.5 68.5t-150 21.5h-278v-459h215v-129h-215v-506z " />
<glyph unicode="&#xd1;" horiz-adv-x="1378" d="M156 0v1425h178l502 -776l206 -342l7 4v1114h178v-1425h-176l-521 803l-188 311l-6 -2v-1112h-180zM332 1597q41 86 100 134.5t121 48.5q52 0 146.5 -48.5t127.5 -48.5q64 0 125 93l107 -60q-86 -182 -219 -182q-51 0 -143 43t-130 43q-35 0 -62.5 -18t-66.5 -64z" />
<glyph unicode="&#xd2;" horiz-adv-x="1218" d="M102 516v393q0 107 32 200.5t93 167t159 116.5t222 43q231 0 369.5 -148t138.5 -379v-393q0 -242 -138 -385t-370 -143q-124 0 -222 42t-159 115.5t-93 167.5t-32 203zM281 526q0 -97 35 -179.5t111.5 -136.5t182.5 -54q148 0 237 104.5t89 265.5v379q0 154 -89 257.5 t-237 103.5q-106 0 -182.5 -53t-111.5 -133.5t-35 -174.5v-379zM311 1722l121 125l303 -250l-76 -86z" />
<glyph unicode="&#xd3;" horiz-adv-x="1218" d="M102 516v393q0 107 32 200.5t93 167t159 116.5t222 43q231 0 369.5 -148t138.5 -379v-393q0 -242 -138 -385t-370 -143q-124 0 -222 42t-159 115.5t-93 167.5t-32 203zM281 526q0 -97 35 -179.5t111.5 -136.5t182.5 -54q148 0 237 104.5t89 265.5v379q0 154 -89 257.5 t-237 103.5q-106 0 -182.5 -53t-111.5 -133.5t-35 -174.5v-379zM528 1597l303 250l121 -125l-348 -211z" />
<glyph unicode="&#xd4;" horiz-adv-x="1218" d="M102 516v393q0 107 32 200.5t93 167t159 116.5t222 43q231 0 369.5 -148t138.5 -379v-393q0 -242 -138 -385t-370 -143q-124 0 -222 42t-159 115.5t-93 167.5t-32 203zM256 1591l307 262h109l293 -258l-62 -79l-293 176l-295 -179zM281 526q0 -97 35 -179.5t111.5 -136.5 t182.5 -54q148 0 237 104.5t89 265.5v379q0 154 -89 257.5t-237 103.5q-106 0 -182.5 -53t-111.5 -133.5t-35 -174.5v-379z" />
<glyph unicode="&#xd5;" horiz-adv-x="1218" d="M102 516v393q0 107 32 200.5t93 167t159 116.5t222 43q231 0 369.5 -148t138.5 -379v-393q0 -242 -138 -385t-370 -143q-124 0 -222 42t-159 115.5t-93 167.5t-32 203zM262 1597q41 86 100 134.5t121 48.5q52 0 147 -48.5t128 -48.5q64 0 125 93l106 -60 q-86 -182 -219 -182q-51 0 -142.5 43t-129.5 43q-35 0 -62.5 -18t-66.5 -64zM281 526q0 -97 35 -179.5t111.5 -136.5t182.5 -54q148 0 237 104.5t89 265.5v379q0 154 -89 257.5t-237 103.5q-106 0 -182.5 -53t-111.5 -133.5t-35 -174.5v-379z" />
<glyph unicode="&#xd6;" horiz-adv-x="1218" d="M102 516v393q0 107 32 200.5t93 167t159 116.5t222 43q231 0 369.5 -148t138.5 -379v-393q0 -242 -138 -385t-370 -143q-124 0 -222 42t-159 115.5t-93 167.5t-32 203zM281 526q0 -97 35 -179.5t111.5 -136.5t182.5 -54q148 0 237 104.5t89 265.5v379q0 154 -89 257.5 t-237 103.5q-106 0 -182.5 -53t-111.5 -133.5t-35 -174.5v-379zM326 1577v180h180v-180h-180zM694 1577v180h180v-180h-180z" />
<glyph unicode="&#xd7;" horiz-adv-x="1024" d="M84 895l92 92l334 -332l330 330l92 -92l-330 -332l336 -336l-92 -92l-336 336l-332 -332l-92 92l332 332z" />
<glyph unicode="&#xd8;" horiz-adv-x="1218" d="M78 55l102 152q-78 130 -78 309v393q0 107 32 200.5t93 167t159 116.5t222 43q197 0 332 -113l74 109l88 -60l-88 -129q102 -136 102 -334v-393q0 -242 -138 -385t-370 -143q-225 0 -358 133l-86 -125zM281 526q0 -77 20 -141l537 786q-92 95 -228 95q-106 0 -182.5 -53 t-111.5 -133.5t-35 -174.5v-379zM356 279q88 -123 254 -123q148 0 237 104.5t89 265.5v379q0 94 -35 172z" />
<glyph unicode="&#xd9;" horiz-adv-x="1265" d="M127 516v909h178v-895q0 -97 35.5 -179.5t112 -136.5t182.5 -54q152 0 239 96.5t87 273.5v895h180v-909q0 -242 -138 -385t-370 -143q-124 0 -222 42t-159 115.5t-93 167.5t-32 203zM295 1722l121 125l303 -250l-76 -86z" />
<glyph unicode="&#xda;" horiz-adv-x="1265" d="M127 516v909h178v-895q0 -97 35.5 -179.5t112 -136.5t182.5 -54q152 0 239 96.5t87 273.5v895h180v-909q0 -242 -138 -385t-370 -143q-124 0 -222 42t-159 115.5t-93 167.5t-32 203zM512 1597l303 250l121 -125l-348 -211z" />
<glyph unicode="&#xdb;" horiz-adv-x="1265" d="M127 516v909h178v-895q0 -97 35.5 -179.5t112 -136.5t182.5 -54q152 0 239 96.5t87 273.5v895h180v-909q0 -242 -138 -385t-370 -143q-124 0 -222 42t-159 115.5t-93 167.5t-32 203zM279 1591l307 262h108l293 -258l-61 -79l-293 176l-295 -179z" />
<glyph unicode="&#xdc;" horiz-adv-x="1265" d="M127 516v909h178v-895q0 -97 35.5 -179.5t112 -136.5t182.5 -54q152 0 239 96.5t87 273.5v895h180v-909q0 -242 -138 -385t-370 -143q-124 0 -222 42t-159 115.5t-93 167.5t-32 203zM360 1577v180h181v-180h-181zM729 1577v180h180v-180h-180z" />
<glyph unicode="&#xdd;" horiz-adv-x="1040" d="M4 1425h191l198 -395l127 -272l133 284l193 383h186l-428 -860v-565h-172v565zM395 1597l303 250l121 -125l-348 -211z" />
<glyph unicode="&#xde;" horiz-adv-x="1171" d="M154 1419h182v-258h342q92 0 174 -25t149.5 -75t107.5 -135.5t40 -196.5q0 -76 -30 -150t-84.5 -134.5t-140.5 -98t-187 -37.5h-371v-309h-180zM336 475h354q128 0 199.5 78.5t71.5 181.5q0 126 -77 193t-202 67h-346v-520z" />
<glyph unicode="&#xdf;" horiz-adv-x="1058" d="M135 0v1098q0 182 108.5 289.5t288.5 107.5q87 0 159 -30.5t117.5 -81t70 -113t24.5 -129.5q0 -92 -41.5 -177.5t-120.5 -121.5q107 -29 159 -133.5t52 -235.5q0 -72 -13 -138.5t-43.5 -129.5t-76.5 -109t-117 -74t-159 -28h-78v145h74q65 0 112 27.5t73 76t38 106.5 t12 128q0 54 -12 103.5t-36.5 92t-68 68t-100.5 25.5h-72v145h64q82 0 134 63t52 150q-2 96 -53.5 161t-159.5 65q-62 0 -107 -22t-68 -59.5t-33.5 -77.5t-10.5 -85v-1106h-168z" />
<glyph unicode="&#xe0;" horiz-adv-x="987" d="M72 289q0 127 84 213t239 86h320v114q0 84 -56 125t-178 41q-166 0 -241 -88l-107 113q56 65 146 99t196 34q410 0 410 -328v-698h-170v88l-2 2q-28 -45 -104 -73.5t-177 -28.5q-169 0 -264.5 83.5t-95.5 217.5zM231 299q0 -74 56 -116t166 -42q262 0 262 189v119h-279 q-98 0 -151.5 -39.5t-53.5 -110.5zM274 1481l166 51l148 -363l-109 -41z" />
<glyph unicode="&#xe1;" horiz-adv-x="987" d="M72 289q0 127 84 213t239 86h320v114q0 84 -56 125t-178 41q-166 0 -241 -88l-107 113q56 65 146 99t196 34q410 0 410 -328v-698h-170v88l-2 2q-28 -45 -104 -73.5t-177 -28.5q-169 0 -264.5 83.5t-95.5 217.5zM231 299q0 -74 56 -116t166 -42q262 0 262 189v119h-279 q-98 0 -151.5 -39.5t-53.5 -110.5zM463 1169l147 363l166 -51l-205 -353z" />
<glyph unicode="&#xe2;" horiz-adv-x="987" d="M72 289q0 127 84 213t239 86h320v114q0 84 -56 125t-178 41q-166 0 -241 -88l-107 113q56 65 146 99t196 34q410 0 410 -328v-698h-170v88l-2 2q-28 -45 -104 -73.5t-177 -28.5q-169 0 -264.5 83.5t-95.5 217.5zM141 1208l308 314h108l293 -310l-82 -79l-272 217 l-275 -220zM231 299q0 -74 56 -116t166 -42q262 0 262 189v119h-279q-98 0 -151.5 -39.5t-53.5 -110.5z" />
<glyph unicode="&#xe3;" horiz-adv-x="987" d="M72 289q0 127 84 213t239 86h320v114q0 84 -56 125t-178 41q-166 0 -241 -88l-107 113q56 65 146 99t196 34q410 0 410 -328v-698h-170v88l-2 2q-28 -45 -104 -73.5t-177 -28.5q-169 0 -264.5 83.5t-95.5 217.5zM145 1249q41 86 100.5 134.5t121.5 48.5q52 0 146.5 -48.5 t127.5 -48.5q65 0 125 92l106 -59q-86 -182 -219 -182q-51 0 -142.5 43t-129.5 43q-35 0 -62.5 -18t-66.5 -64zM231 299q0 -74 56 -116t166 -42q262 0 262 189v119h-279q-98 0 -151.5 -39.5t-53.5 -110.5z" />
<glyph unicode="&#xe4;" horiz-adv-x="987" d="M72 289q0 127 84 213t239 86h320v114q0 84 -56 125t-178 41q-166 0 -241 -88l-107 113q56 65 146 99t196 34q410 0 410 -328v-698h-170v88l-2 2q-28 -45 -104 -73.5t-177 -28.5q-169 0 -264.5 83.5t-95.5 217.5zM229 1223v180h181v-180h-181zM231 299q0 -74 56 -116 t166 -42q262 0 262 189v119h-279q-98 0 -151.5 -39.5t-53.5 -110.5zM598 1223v180h180v-180h-180z" />
<glyph unicode="&#xe5;" horiz-adv-x="987" d="M72 289q0 127 84 213t239 86h320v114q0 84 -56 125t-178 41q-166 0 -241 -88l-107 113q56 65 146 99t196 34q410 0 410 -328v-698h-170v88l-2 2q-28 -45 -104 -73.5t-177 -28.5q-169 0 -264.5 83.5t-95.5 217.5zM231 299q0 -74 56 -116t166 -42q262 0 262 189v119h-279 q-98 0 -151.5 -39.5t-53.5 -110.5zM317 1319q0 83 59 142t144 59q83 0 142 -59t59 -142t-59 -142t-142 -59q-85 0 -144 59t-59 142zM408 1319q0 -47 32.5 -80t79.5 -33t80 33t33 80q0 46 -33 79.5t-80 33.5t-79.5 -33.5t-32.5 -79.5z" />
<glyph unicode="&#xe6;" horiz-adv-x="1636" d="M92 289q0 126 84.5 212.5t239.5 86.5h319v114q0 84 -56 125t-177 41q-167 0 -242 -88l-106 113q56 65 146 99t196 34q264 0 362 -125q114 125 295 125q173 0 294.5 -120.5t121.5 -323.5v-129h-666q0 -107 37 -177q34 -64 96 -98.5t146 -34.5q53 0 118 26t113 69l107 -121 q-135 -129 -334 -129q-247 0 -359 159q-49 -78 -145.5 -118.5t-228.5 -40.5q-169 0 -265 83.5t-96 217.5zM252 299q0 -74 55.5 -116t165.5 -42q262 0 262 189v123h-278q-97 0 -151 -41.5t-54 -112.5zM903 590h494q-4 136 -69.5 208t-172.5 72q-108 0 -177 -73.5t-75 -206.5z " />
<glyph unicode="&#xe7;" horiz-adv-x="882" d="M57 506q0 109 25.5 197.5t69.5 148t103.5 99.5t125 57.5t137.5 17.5q188 0 332 -141l-109 -123q-42 47 -99 74.5t-116 27.5q-145 0 -223 -89.5t-78 -268.5q0 -178 78 -268.5t223 -90.5q60 0 117 30.5t98 74.5l111 -121q-143 -143 -334 -143h-4l-20 -68q56 -3 98 -20.5 t64 -44t32 -53.5t10 -54q0 -29 -11.5 -57t-35.5 -54.5t-69 -42.5t-105 -16q-97 0 -178 37l35 88q71 -31 143 -31q40 0 68 21t28 53q0 38 -32 60t-86 22h-29l-41 43l39 125q-77 14 -141 50t-116 96t-81 153t-29 211z" />
<glyph unicode="&#xe8;" horiz-adv-x="985" d="M80 504q0 116 26 208t67.5 150t98 96.5t114 54t118.5 15.5q173 0 289 -120t116 -326v-131h-653v-17q0 -126 68.5 -208.5t193.5 -82.5q51 0 116 26.5t114 70.5l108 -121q-137 -131 -346 -131q-67 0 -124.5 13t-115.5 48t-98.5 91.5t-66 149.5t-25.5 214zM256 592h477 q-6 134 -69 205t-168 71q-104 0 -168.5 -72.5t-71.5 -203.5zM289 1481l166 51l147 -363l-108 -41z" />
<glyph unicode="&#xe9;" horiz-adv-x="985" d="M80 504q0 116 26 208t67.5 150t98 96.5t114 54t118.5 15.5q173 0 289 -120t116 -326v-131h-653v-17q0 -126 68.5 -208.5t193.5 -82.5q51 0 116 26.5t114 70.5l108 -121q-137 -131 -346 -131q-67 0 -124.5 13t-115.5 48t-98.5 91.5t-66 149.5t-25.5 214zM256 592h477 q-6 134 -69 205t-168 71q-104 0 -168.5 -72.5t-71.5 -203.5zM414 1169l147 363l166 -51l-205 -353z" />
<glyph unicode="&#xea;" horiz-adv-x="985" d="M80 504q0 116 26 208t67.5 150t98 96.5t114 54t118.5 15.5q173 0 289 -120t116 -326v-131h-653v-17q0 -126 68.5 -208.5t193.5 -82.5q51 0 116 26.5t114 70.5l108 -121q-137 -131 -346 -131q-67 0 -124.5 13t-115.5 48t-98.5 91.5t-66 149.5t-25.5 214zM162 1208l307 314 h109l292 -310l-82 -79l-272 217l-274 -220zM256 592h477q-6 134 -69 205t-168 71q-104 0 -168.5 -72.5t-71.5 -203.5z" />
<glyph unicode="&#xeb;" horiz-adv-x="985" d="M80 504q0 116 26 208t67.5 150t98 96.5t114 54t118.5 15.5q173 0 289 -120t116 -326v-131h-653v-17q0 -126 68.5 -208.5t193.5 -82.5q51 0 116 26.5t114 70.5l108 -121q-137 -131 -346 -131q-67 0 -124.5 13t-115.5 48t-98.5 91.5t-66 149.5t-25.5 214zM244 1223v180h180 v-180h-180zM256 592h477q-6 134 -69 205t-168 71q-104 0 -168.5 -72.5t-71.5 -203.5zM612 1223v180h181v-180h-181z" />
<glyph unicode="&#xec;" horiz-adv-x="409" d="M-10 1481l166 51l147 -363l-108 -41zM115 0v1014h180v-1014h-180z" />
<glyph unicode="&#xed;" horiz-adv-x="409" d="M115 0v1014h180v-1014h-180zM158 1169l147 363l166 -51l-205 -353z" />
<glyph unicode="&#xee;" horiz-adv-x="626" d="M-41 1208l307 314h109l293 -310l-82 -79l-273 217l-274 -220zM225 0v1014h181v-1014h-181z" />
<glyph unicode="&#xef;" horiz-adv-x="466" d="M-41 1223v180h180v-180h-180zM145 0v1014h181v-1014h-181zM328 1223v180h180v-180h-180z" />
<glyph unicode="&#xf0;" horiz-adv-x="1005" d="M76 504q3 150 49 241q53 110 150 170t227 60q66 0 145 -34.5t119 -100.5h8q-2 87 -20.5 176t-55.5 137l-127 -90l-47 67l119 87q-80 96 -281 137l29 137q125 -10 224.5 -56.5t158.5 -113.5l156 115l55 -70l-154 -111q39 -60 63 -129t33.5 -160.5t12 -158t2.5 -186.5 q0 -88 -26 -222.5t-78 -220.5q-57 -95 -150.5 -142.5t-206.5 -47.5q-227 0 -329 153q-82 123 -76 363zM244 502q0 -83 5 -132t23 -89q29 -66 85.5 -103t131.5 -37q85 0 149.5 45.5t92.5 135.5q23 70 23 182q0 102 -29 172q-28 72 -89 109.5t-136 37.5t-133.5 -37.5 t-90.5 -105.5q-32 -71 -32 -178z" />
<glyph unicode="&#xf1;" horiz-adv-x="1036" d="M115 0v1018h168v-129h6q52 65 131 101t162 36q152 0 245 -90.5t93 -261.5v-674h-168v608q0 125 -52.5 188.5t-179.5 63.5q-103 0 -170 -68.5t-67 -183.5v-608h-168zM131 1249q41 86 100 134.5t121 48.5q52 0 147 -48.5t128 -48.5q65 0 125 92l106 -59q-86 -182 -219 -182 q-51 0 -142.5 43t-129.5 43q-35 0 -62.5 -18t-66.5 -64z" />
<glyph unicode="&#xf2;" horiz-adv-x="1052" d="M104 504q0 184 52 291q51 109 151 169t232 60q109 0 195.5 -44t139.5 -126q70 -110 70 -311q0 -262 -63 -369q-52 -89 -148 -137.5t-217 -48.5q-110 0 -197 39t-139 114q-76 116 -76 363zM272 502q0 -153 31 -221q30 -67 85.5 -103.5t129.5 -36.5q85 0 148.5 45t91.5 136 q16 56 16 215q0 124 -26 188q-28 73 -85 110t-131 37q-75 0 -133.5 -37.5t-89.5 -105.5q-34 -71 -37 -227zM311 1481l166 51l148 -363l-109 -41z" />
<glyph unicode="&#xf3;" horiz-adv-x="1052" d="M104 504q0 184 52 291q51 109 151 169t232 60q109 0 195.5 -44t139.5 -126q70 -110 70 -311q0 -262 -63 -369q-52 -89 -148 -137.5t-217 -48.5q-110 0 -197 39t-139 114q-76 116 -76 363zM272 502q0 -153 31 -221q30 -67 85.5 -103.5t129.5 -36.5q85 0 148.5 45t91.5 136 q16 56 16 215q0 124 -26 188q-28 73 -85 110t-131 37q-75 0 -133.5 -37.5t-89.5 -105.5q-34 -71 -37 -227zM471 1169l147 363l166 -51l-204 -353z" />
<glyph unicode="&#xf4;" horiz-adv-x="1052" d="M104 504q0 184 52 291q51 109 151 169t232 60q109 0 195.5 -44t139.5 -126q70 -110 70 -311q0 -262 -63 -369q-52 -89 -148 -137.5t-217 -48.5q-110 0 -197 39t-139 114q-76 116 -76 363zM168 1208l307 314h109l293 -310l-82 -79l-273 217l-274 -220zM272 502 q0 -153 31 -221q30 -67 85.5 -103.5t129.5 -36.5q85 0 148.5 45t91.5 136q16 56 16 215q0 124 -26 188q-28 73 -85 110t-131 37q-75 0 -133.5 -37.5t-89.5 -105.5q-34 -71 -37 -227z" />
<glyph unicode="&#xf5;" horiz-adv-x="1052" d="M104 504q0 184 52 291q51 109 151 169t232 60q109 0 195.5 -44t139.5 -126q70 -110 70 -311q0 -262 -63 -369q-52 -89 -148 -137.5t-217 -48.5q-110 0 -197 39t-139 114q-76 116 -76 363zM182 1249q41 86 100 134.5t121 48.5q52 0 147 -48.5t128 -48.5q65 0 125 92 l106 -59q-86 -182 -219 -182q-51 0 -142.5 43t-129.5 43q-35 0 -62.5 -18t-66.5 -64zM272 502q0 -153 31 -221q30 -67 85.5 -103.5t129.5 -36.5q85 0 148.5 45t91.5 136q16 56 16 215q0 124 -26 188q-28 73 -85 110t-131 37q-75 0 -133.5 -37.5t-89.5 -105.5 q-34 -71 -37 -227z" />
<glyph unicode="&#xf6;" horiz-adv-x="1052" d="M104 504q0 184 52 291q51 109 151 169t232 60q109 0 195.5 -44t139.5 -126q70 -110 70 -311q0 -262 -63 -369q-52 -89 -148 -137.5t-217 -48.5q-110 0 -197 39t-139 114q-76 116 -76 363zM244 1223v180h180v-180h-180zM272 502q0 -153 31 -221q30 -67 85.5 -103.5 t129.5 -36.5q85 0 148.5 45t91.5 136q16 56 16 215q0 124 -26 188q-28 73 -85 110t-131 37q-75 0 -133.5 -37.5t-89.5 -105.5q-34 -71 -37 -227zM612 1223v180h181v-180h-181z" />
<glyph unicode="&#xf7;" horiz-adv-x="1024" d="M57 537v129h924v-129h-924zM403 238q0 47 34 80.5t83 33.5q48 0 82.5 -33.5t34.5 -80.5q0 -49 -34.5 -83t-82.5 -34q-50 0 -83.5 33.5t-33.5 83.5zM403 969q0 48 34 82t83 34q47 0 82 -34.5t35 -81.5t-35 -82t-82 -35q-49 0 -83 34.5t-34 82.5z" />
<glyph unicode="&#xf8;" horiz-adv-x="1052" d="M104 504q0 184 52 291q51 109 151 169t232 60q135 0 241 -72l86 121l78 -55l-94 -131l24 -33q70 -110 70 -311q0 -262 -63 -369q-52 -89 -148 -137.5t-217 -48.5q-151 0 -252 67l-76 -106l-75 57l82 115q-10 10 -15 20q-76 116 -76 363zM272 502q0 -153 31 -221v-5 l383 541q-61 55 -154 55q-75 0 -133.5 -37.5t-89.5 -105.5q-34 -71 -37 -227zM362 197q62 -56 156 -56q85 0 148.5 45t91.5 136q16 56 16 215q0 124 -26 188q-5 5 -5 8z" />
<glyph unicode="&#xf9;" horiz-adv-x="1052" d="M115 342v674h168v-610q0 -138 49.5 -198.5t183.5 -60.5q101 0 168.5 72t67.5 187v610h168v-1016h-168v115h-7q-49 -63 -122.5 -95t-155.5 -32q-165 0 -258.5 86t-93.5 268zM295 1481l166 51l147 -363l-108 -41z" />
<glyph unicode="&#xfa;" horiz-adv-x="1052" d="M115 342v674h168v-610q0 -138 49.5 -198.5t183.5 -60.5q101 0 168.5 72t67.5 187v610h168v-1016h-168v115h-7q-49 -63 -122.5 -95t-155.5 -32q-165 0 -258.5 86t-93.5 268zM434 1169l148 363l166 -51l-205 -353z" />
<glyph unicode="&#xfb;" horiz-adv-x="1052" d="M115 342v674h168v-610q0 -138 49.5 -198.5t183.5 -60.5q101 0 168.5 72t67.5 187v610h168v-1016h-168v115h-7q-49 -63 -122.5 -95t-155.5 -32q-165 0 -258.5 86t-93.5 268zM162 1208l307 314h109l292 -310l-82 -79l-272 217l-274 -220z" />
<glyph unicode="&#xfc;" horiz-adv-x="1052" d="M115 342v674h168v-610q0 -138 49.5 -198.5t183.5 -60.5q101 0 168.5 72t67.5 187v610h168v-1016h-168v115h-7q-49 -63 -122.5 -95t-155.5 -32q-165 0 -258.5 86t-93.5 268zM223 1223v180h180v-180h-180zM592 1223v180h180v-180h-180z" />
<glyph unicode="&#xfd;" horiz-adv-x="897" d="M0 1016h186l162 -461l105 -319h6l104 317l158 463h176l-436 -1231q-28 -79 -72 -124t-89 -58t-107 -13h-87v148h84q44 0 75 26t52 89l56 167zM383 1169l147 363l166 -51l-204 -353z" />
<glyph unicode="&#xfe;" horiz-adv-x="1052" d="M115 -406v1831h168v-522l6 -2q108 125 276 125q84 0 149 -29.5t105 -77t65 -115.5t34.5 -137.5t9.5 -150.5q0 -84 -10 -156t-37.5 -142.5t-71 -119.5t-114.5 -79.5t-163 -30.5q-76 0 -130.5 22.5t-114.5 79.5h-4v-496h-168zM283 506q0 -53 4.5 -96.5t19 -92.5t39 -82.5 t68 -56t102.5 -22.5q61 0 105.5 21.5t69 53.5t39 81.5t18.5 93.5t4 100q0 45 -3 81.5t-11 80t-24.5 75.5t-41.5 60t-65 42.5t-91 14.5q-59 0 -103 -23t-68.5 -57.5t-39 -85t-18.5 -93.5t-4 -95z" />
<glyph unicode="&#xff;" horiz-adv-x="897" d="M0 1016h186l162 -461l105 -319h6l104 317l158 463h176l-436 -1231q-28 -79 -72 -124t-89 -58t-107 -13h-87v148h84q44 0 75 26t52 89l56 167zM195 1223v180h180v-180h-180zM563 1223v180h180v-180h-180z" />
<glyph unicode="&#x100;" horiz-adv-x="1224" d="M12 0l523 1425h155l522 -1425h-190l-115 328h-592l-114 -328h-189zM338 1597v154h549v-154h-549zM367 483h489l-137 400l-105 303h-6l-100 -295z" />
<glyph unicode="&#x101;" horiz-adv-x="987" d="M72 289q0 127 84 213t239 86h320v114q0 84 -56 125t-178 41q-166 0 -241 -88l-107 113q56 65 146 99t196 34q410 0 410 -328v-698h-170v88l-2 2q-28 -45 -104 -73.5t-177 -28.5q-169 0 -264.5 83.5t-95.5 217.5zM231 299q0 -74 56 -116t166 -42q262 0 262 189v119h-279 q-98 0 -151.5 -39.5t-53.5 -110.5zM240 1229v153h548v-153h-548z" />
<glyph unicode="&#x102;" horiz-adv-x="1224" d="M12 0l523 1425h155l522 -1425h-190l-115 328h-592l-114 -328h-189zM319 1761h150q3 -47 43.5 -88t101.5 -41q68 0 108 41t40 88h145q-3 -35 -12.5 -68.5t-31 -70t-52.5 -63.5t-82 -44.5t-115 -17.5t-116 17.5t-84 45t-54 63t-31 70t-10 68.5zM367 483h489l-137 400 l-105 303h-6l-100 -295z" />
<glyph unicode="&#x103;" horiz-adv-x="987" d="M72 289q0 127 84 213t239 86h320v114q0 84 -56 125t-178 41q-166 0 -241 -88l-107 113q56 65 146 99t196 34q410 0 410 -328v-698h-170v88l-2 2q-28 -45 -104 -73.5t-177 -28.5q-169 0 -264.5 83.5t-95.5 217.5zM231 299q0 -74 56 -116t166 -42q262 0 262 189v119h-279 q-98 0 -151.5 -39.5t-53.5 -110.5zM240 1427h149q3 -46 44 -87.5t102 -41.5q68 0 107.5 41t39.5 88h145q-3 -35 -12.5 -68.5t-31 -70t-52 -63.5t-81.5 -44.5t-115 -17.5t-116 17.5t-84 45t-54 63t-31 70t-10 68.5z" />
<glyph unicode="&#x104;" horiz-adv-x="1224" d="M12 0l523 1425h155l522 -1425h-67q-66 -92 -66 -158q0 -42 26.5 -66t72.5 -24q52 0 118 27l39 -98q-76 -50 -178 -50q-94 0 -152.5 52.5t-58.5 128.5q0 83 76 188l-115 328h-592l-114 -328h-189zM367 483h489l-137 400l-105 303h-6l-100 -295z" />
<glyph unicode="&#x105;" horiz-adv-x="987" d="M72 289q0 127 84 213t239 86h320v114q0 84 -56 125t-178 41q-166 0 -241 -88l-107 113q56 65 146 99t196 34q410 0 410 -328v-698h-47q-66 -92 -66 -158q0 -43 26 -66.5t72 -23.5q53 0 119 27l39 -98q-76 -50 -178 -50q-94 0 -152.5 52.5t-58.5 128.5q0 83 76 188v88 l-2 2q-28 -45 -104 -73.5t-177 -28.5q-169 0 -264.5 83.5t-95.5 217.5zM231 299q0 -74 56 -116t166 -42q262 0 262 189v119h-279q-98 0 -151.5 -39.5t-53.5 -110.5z" />
<glyph unicode="&#x106;" horiz-adv-x="1112" d="M106 516v393q0 107 32 200.5t93 167t159 116.5t222 43q168 0 289 -80.5t178 -220.5l-168 -76q-36 93 -113.5 148t-183.5 55t-182.5 -53t-111.5 -133.5t-35 -174.5v-371q0 -97 35 -179.5t111.5 -136.5t182.5 -54t184.5 57.5t114.5 155.5l168 -82q-54 -144 -176.5 -223.5 t-292.5 -79.5q-124 0 -222 42t-159 115.5t-93 167.5t-32 203zM471 1597l303 250l121 -125l-348 -211z" />
<glyph unicode="&#x107;" horiz-adv-x="882" d="M57 506q0 109 25.5 197.5t69.5 148t103.5 99.5t125 57.5t137.5 17.5q188 0 332 -141l-109 -123q-42 47 -99 74.5t-116 27.5q-145 0 -223 -89.5t-78 -268.5q0 -178 78 -268.5t223 -90.5q60 0 117 30.5t98 74.5l111 -121q-143 -143 -334 -143q-72 0 -137.5 17.5t-125 57.5 t-103.5 99t-69.5 147.5t-25.5 196.5zM395 1169l148 363l166 -51l-205 -353z" />
<glyph unicode="&#x108;" horiz-adv-x="1112" d="M106 516v393q0 107 32 200.5t93 167t159 116.5t222 43q168 0 289 -80.5t178 -220.5l-168 -76q-36 93 -113.5 148t-183.5 55t-182.5 -53t-111.5 -133.5t-35 -174.5v-371q0 -97 35 -179.5t111.5 -136.5t182.5 -54t184.5 57.5t114.5 155.5l168 -82q-54 -144 -176.5 -223.5 t-292.5 -79.5q-124 0 -222 42t-159 115.5t-93 167.5t-32 203zM260 1591l307 262h109l293 -258l-62 -79l-293 176l-295 -179z" />
<glyph unicode="&#x109;" horiz-adv-x="882" d="M57 506q0 109 25.5 197.5t69.5 148t103.5 99.5t125 57.5t137.5 17.5q188 0 332 -141l-109 -123q-42 47 -99 74.5t-116 27.5q-145 0 -223 -89.5t-78 -268.5q0 -178 78 -268.5t223 -90.5q60 0 117 30.5t98 74.5l111 -121q-143 -143 -334 -143q-72 0 -137.5 17.5t-125 57.5 t-103.5 99t-69.5 147.5t-25.5 196.5zM141 1208l308 314h108l293 -310l-82 -79l-272 217l-275 -220z" />
<glyph unicode="&#x10a;" horiz-adv-x="1112" d="M106 516v393q0 107 32 200.5t93 167t159 116.5t222 43q168 0 289 -80.5t178 -220.5l-168 -76q-36 93 -113.5 148t-183.5 55t-182.5 -53t-111.5 -133.5t-35 -174.5v-371q0 -97 35 -179.5t111.5 -136.5t182.5 -54t184.5 57.5t114.5 155.5l168 -82q-54 -144 -176.5 -223.5 t-292.5 -79.5q-124 0 -222 42t-159 115.5t-93 167.5t-32 203zM506 1571v180h180v-180h-180z" />
<glyph unicode="&#x10b;" horiz-adv-x="882" d="M57 506q0 109 25.5 197.5t69.5 148t103.5 99.5t125 57.5t137.5 17.5q188 0 332 -141l-109 -123q-42 47 -99 74.5t-116 27.5q-145 0 -223 -89.5t-78 -268.5q0 -178 78 -268.5t223 -90.5q60 0 117 30.5t98 74.5l111 -121q-143 -143 -334 -143q-72 0 -137.5 17.5t-125 57.5 t-103.5 99t-69.5 147.5t-25.5 196.5zM424 1223v180h180v-180h-180z" />
<glyph unicode="&#x10c;" horiz-adv-x="1112" d="M106 516v393q0 107 32 200.5t93 167t159 116.5t222 43q168 0 289 -80.5t178 -220.5l-168 -76q-36 93 -113.5 148t-183.5 55t-182.5 -53t-111.5 -133.5t-35 -174.5v-371q0 -97 35 -179.5t111.5 -136.5t182.5 -54t184.5 57.5t114.5 155.5l168 -82q-54 -144 -176.5 -223.5 t-292.5 -79.5q-124 0 -222 42t-159 115.5t-93 167.5t-32 203zM252 1784l59 78l295 -179l293 177l62 -80l-293 -260h-109z" />
<glyph unicode="&#x10d;" horiz-adv-x="882" d="M57 506q0 109 25.5 197.5t69.5 148t103.5 99.5t125 57.5t137.5 17.5q188 0 332 -141l-109 -123q-42 47 -99 74.5t-116 27.5q-145 0 -223 -89.5t-78 -268.5q0 -178 78 -268.5t223 -90.5q60 0 117 30.5t98 74.5l111 -121q-143 -143 -334 -143q-72 0 -137.5 17.5t-125 57.5 t-103.5 99t-69.5 147.5t-25.5 196.5zM141 1446l80 78l275 -219l272 217l82 -80l-293 -309h-108z" />
<glyph unicode="&#x10e;" horiz-adv-x="1265" d="M156 0v1425h467q167 0 293.5 -65t191.5 -199q35 -71 45 -168.5t10 -255.5q0 -174 -9.5 -276t-41.5 -178q-124 -283 -524 -283h-432zM209 1784l59 78l295 -179l293 177l62 -80l-293 -260h-109zM336 166h278q369 0 369 405v273q0 114 -26.5 196.5t-77 129.5t-115.5 68.5 t-150 21.5h-278v-1094z" />
<glyph unicode="&#x10f;" horiz-adv-x="1255" d="M94 498q0 84 10 156t37.5 142.5t70.5 119.5t114 79.5t163 30.5q77 0 143 -26t103 -76h4v563h168v-1487h-168v98l-6 2q-117 -112 -284 -112q-85 0 -148.5 27.5t-102.5 72.5t-63 112.5t-32.5 138.5t-8.5 159zM270 508q0 -64 4 -110t18 -95t38.5 -79.5t68 -50t103.5 -19.5 q58 0 102 23t69 58t40.5 84.5t20.5 93.5t5 95q0 54 -4 96.5t-18 92.5t-37.5 83t-67 55.5t-102.5 22.5q-61 0 -106 -21.5t-70 -54t-40 -81.5t-19.5 -93t-4.5 -100zM1022 1075l80 180h-72v228h211v-223l-115 -185h-104z" />
<glyph unicode="&#x110;" horiz-adv-x="1265" d="M12 672v129h144v624h467q167 0 293.5 -65t191.5 -199q35 -71 45 -168.5t10 -255.5q0 -174 -9.5 -276t-41.5 -178q-124 -283 -524 -283h-432v672h-144zM336 166h278q369 0 369 405v273q0 114 -26.5 196.5t-77 129.5t-115.5 68.5t-150 21.5h-278v-459h215v-129h-215v-506z " />
<glyph unicode="&#x111;" horiz-adv-x="1015" d="M94 498q0 84 10 156t37.5 142.5t70.5 119.5t114 79.5t163 30.5q77 0 143 -26t103 -76h4v237h-178v117h178v209h168v-209h109v-117h-109v-1161h-168v98l-6 2q-117 -112 -284 -112q-85 0 -148.5 27.5t-102.5 72.5t-63 112.5t-32.5 138.5t-8.5 159zM270 508q0 -64 4 -110 t18 -95t38.5 -79.5t68 -50t103.5 -19.5q58 0 102 23t69 58t40.5 84.5t20.5 93.5t5 95q0 54 -4 96.5t-18 92.5t-37.5 83t-67 55.5t-102.5 22.5q-61 0 -106 -21.5t-70 -54t-40 -81.5t-19.5 -93t-4.5 -100z" />
<glyph unicode="&#x112;" horiz-adv-x="1112" d="M156 0v1425h901v-165h-721v-461h614v-158h-614v-475h721v-166h-901zM338 1597v154h549v-154h-549z" />
<glyph unicode="&#x113;" horiz-adv-x="985" d="M80 504q0 116 26 208t67.5 150t98 96.5t114 54t118.5 15.5q173 0 289 -120t116 -326v-131h-653v-17q0 -126 68.5 -208.5t193.5 -82.5q51 0 116 26.5t114 70.5l108 -121q-137 -131 -346 -131q-67 0 -124.5 13t-115.5 48t-98.5 91.5t-66 149.5t-25.5 214zM256 592h477 q-6 134 -69 205t-168 71q-104 0 -168.5 -72.5t-71.5 -203.5zM260 1229v153h549v-153h-549z" />
<glyph unicode="&#x114;" horiz-adv-x="1112" d="M156 0v1425h901v-165h-721v-461h614v-158h-614v-475h721v-166h-901zM319 1761h150q3 -47 43.5 -88t101.5 -41q68 0 108 41t40 88h145q-3 -35 -12.5 -68.5t-31 -70t-52.5 -63.5t-82 -44.5t-115 -17.5t-116 17.5t-84 45t-54 63t-31 70t-10 68.5z" />
<glyph unicode="&#x115;" horiz-adv-x="985" d="M80 504q0 116 26 208t67.5 150t98 96.5t114 54t118.5 15.5q173 0 289 -120t116 -326v-131h-653v-17q0 -126 68.5 -208.5t193.5 -82.5q51 0 116 26.5t114 70.5l108 -121q-137 -131 -346 -131q-67 0 -124.5 13t-115.5 48t-98.5 91.5t-66 149.5t-25.5 214zM219 1427h150 q3 -47 43.5 -88t101.5 -41q68 0 108 41t40 88h145q-3 -35 -12.5 -68.5t-31 -70t-52.5 -63.5t-82 -44.5t-115 -17.5t-116 17.5t-84 45t-54 63t-31 70t-10 68.5zM256 592h477q-6 134 -69 205t-168 71q-104 0 -168.5 -72.5t-71.5 -203.5z" />
<glyph unicode="&#x116;" horiz-adv-x="1112" d="M156 0v1425h901v-165h-721v-461h614v-158h-614v-475h721v-166h-901zM506 1571v180h180v-180h-180z" />
<glyph unicode="&#x117;" horiz-adv-x="985" d="M80 504q0 116 26 208t67.5 150t98 96.5t114 54t118.5 15.5q173 0 289 -120t116 -326v-131h-653v-17q0 -126 68.5 -208.5t193.5 -82.5q51 0 116 26.5t114 70.5l108 -121q-137 -131 -346 -131q-67 0 -124.5 13t-115.5 48t-98.5 91.5t-66 149.5t-25.5 214zM256 592h477 q-6 134 -69 205t-168 71q-104 0 -168.5 -72.5t-71.5 -203.5zM418 1223v180h180v-180h-180z" />
<glyph unicode="&#x118;" horiz-adv-x="1112" d="M156 0v1425h901v-165h-721v-461h614v-158h-614v-475h721v-166q-66 -92 -66 -158q0 -42 26.5 -66t72.5 -24q52 0 118 27l39 -98q-76 -50 -178 -50q-94 0 -152.5 52.5t-58.5 128.5q0 83 74 188h-776z" />
<glyph unicode="&#x119;" horiz-adv-x="985" d="M80 504q0 116 26 208t67.5 150t98 96.5t114 54t118.5 15.5q173 0 289 -120t116 -326v-131h-653v-17q0 -126 68.5 -208.5t193.5 -82.5q51 0 116 26.5t114 70.5l108 -121q-38 -38 -78 -60h10l3 -4q-66 -92 -66 -157q0 -43 26 -67t72 -24q53 0 119 27l39 -98 q-74 -49 -178 -49q-94 0 -152.5 52t-58.5 128q0 67 39 133q-59 -12 -121 -12q-67 0 -124.5 13t-115.5 48t-98.5 91.5t-66 149.5t-25.5 214zM256 592h477q-6 134 -69 205t-168 71q-104 0 -168.5 -72.5t-71.5 -203.5z" />
<glyph unicode="&#x11a;" horiz-adv-x="1112" d="M156 0v1425h901v-165h-721v-461h614v-158h-614v-475h721v-166h-901zM238 1784l59 78l295 -179l293 177l61 -80l-293 -260h-108z" />
<glyph unicode="&#x11b;" horiz-adv-x="985" d="M80 504q0 116 26 208t67.5 150t98 96.5t114 54t118.5 15.5q173 0 289 -120t116 -326v-131h-653v-17q0 -126 68.5 -208.5t193.5 -82.5q51 0 116 26.5t114 70.5l108 -121q-137 -131 -346 -131q-67 0 -124.5 13t-115.5 48t-98.5 91.5t-66 149.5t-25.5 214zM154 1446l79 78 l275 -219l272 217l82 -80l-293 -309h-108zM256 592h477q-6 134 -69 205t-168 71q-104 0 -168.5 -72.5t-71.5 -203.5z" />
<glyph unicode="&#x11c;" horiz-adv-x="1224" d="M104 516v393q0 107 30.5 200.5t89.5 167.5t156 116.5t220 42.5q168 0 289 -80.5t178 -220.5l-168 -76q-36 93 -115 148t-186 55q-80 0 -142 -30.5t-99 -82t-55.5 -114.5t-18.5 -134v-383q0 -98 35 -180t111.5 -136.5t182.5 -54.5q137 0 231.5 102t94.5 238v113h-301v164 h481v-277q0 -219 -142 -360t-366 -141q-126 0 -224.5 42.5t-159 116t-91.5 168t-31 203.5zM260 1591l307 262h109l293 -258l-62 -79l-293 176l-295 -179z" />
<glyph unicode="&#x11d;" horiz-adv-x="1046" d="M94 485q0 87 8 158t32.5 145.5t65 125t110 82.5t163.5 32q76 0 148 -33.5t112 -91.5h4v113h170v-998q0 -111 -35.5 -196.5t-97.5 -137.5t-139.5 -78t-167.5 -26q-205 0 -328 117l101 137q42 -37 108 -64.5t123 -27.5q118 0 192 67t74 187v119h-4q-112 -125 -276 -125 q-84 0 -148.5 28t-104.5 74t-65.5 111.5t-35 133.5t-9.5 148zM162 1208l307 314h109l292 -310l-82 -79l-272 217l-274 -220zM268 508q0 -63 4 -108.5t17.5 -94t38 -78.5t68 -49.5t104.5 -19.5q237 0 237 350q0 36 -1 63.5t-6.5 66t-14.5 67.5t-26.5 60t-41.5 51t-60.5 33 t-82.5 13q-61 0 -106 -22t-69.5 -55t-38.5 -83.5t-18 -94t-4 -99.5z" />
<glyph unicode="&#x11e;" horiz-adv-x="1224" d="M104 516v393q0 107 30.5 200.5t89.5 167.5t156 116.5t220 42.5q168 0 289 -80.5t178 -220.5l-168 -76q-36 93 -115 148t-186 55q-80 0 -142 -30.5t-99 -82t-55.5 -114.5t-18.5 -134v-383q0 -98 35 -180t111.5 -136.5t182.5 -54.5q137 0 231.5 102t94.5 238v113h-301v164 h481v-277q0 -219 -142 -360t-366 -141q-126 0 -224.5 42.5t-159 116t-91.5 168t-31 203.5zM319 1761h150q3 -47 43.5 -88t101.5 -41q68 0 108 41t40 88h145q-3 -35 -12.5 -68.5t-31 -70t-52.5 -63.5t-82 -44.5t-115 -17.5t-116 17.5t-84 45t-54 63t-31 70t-10 68.5z" />
<glyph unicode="&#x11f;" horiz-adv-x="1046" d="M94 485q0 87 8 158t32.5 145.5t65 125t110 82.5t163.5 32q76 0 148 -33.5t112 -91.5h4v113h170v-998q0 -111 -35.5 -196.5t-97.5 -137.5t-139.5 -78t-167.5 -26q-205 0 -328 117l101 137q42 -37 108 -64.5t123 -27.5q118 0 192 67t74 187v119h-4q-112 -125 -276 -125 q-84 0 -148.5 28t-104.5 74t-65.5 111.5t-35 133.5t-9.5 148zM260 1427h150q3 -47 43.5 -88t101.5 -41q68 0 107.5 41t39.5 88h146q-3 -35 -12.5 -68.5t-31 -70t-52.5 -63.5t-82 -44.5t-115 -17.5t-116 17.5t-84 45t-54 63t-31 70t-10 68.5zM268 508q0 -63 4 -108.5 t17.5 -94t38 -78.5t68 -49.5t104.5 -19.5q237 0 237 350q0 36 -1 63.5t-6.5 66t-14.5 67.5t-26.5 60t-41.5 51t-60.5 33t-82.5 13q-61 0 -106 -22t-69.5 -55t-38.5 -83.5t-18 -94t-4 -99.5z" />
<glyph unicode="&#x120;" horiz-adv-x="1224" d="M104 516v393q0 107 30.5 200.5t89.5 167.5t156 116.5t220 42.5q168 0 289 -80.5t178 -220.5l-168 -76q-36 93 -115 148t-186 55q-80 0 -142 -30.5t-99 -82t-55.5 -114.5t-18.5 -134v-383q0 -98 35 -180t111.5 -136.5t182.5 -54.5q137 0 231.5 102t94.5 238v113h-301v164 h481v-277q0 -219 -142 -360t-366 -141q-126 0 -224.5 42.5t-159 116t-91.5 168t-31 203.5zM530 1571v180h181v-180h-181z" />
<glyph unicode="&#x121;" horiz-adv-x="1046" d="M94 485q0 87 8 158t32.5 145.5t65 125t110 82.5t163.5 32q76 0 148 -33.5t112 -91.5h4v113h170v-998q0 -111 -35.5 -196.5t-97.5 -137.5t-139.5 -78t-167.5 -26q-205 0 -328 117l101 137q42 -37 108 -64.5t123 -27.5q118 0 192 67t74 187v119h-4q-112 -125 -276 -125 q-84 0 -148.5 28t-104.5 74t-65.5 111.5t-35 133.5t-9.5 148zM268 508q0 -63 4 -108.5t17.5 -94t38 -78.5t68 -49.5t104.5 -19.5q237 0 237 350q0 36 -1 63.5t-6.5 66t-14.5 67.5t-26.5 60t-41.5 51t-60.5 33t-82.5 13q-61 0 -106 -22t-69.5 -55t-38.5 -83.5t-18 -94 t-4 -99.5zM438 1223v180h180v-180h-180z" />
<glyph unicode="&#x122;" horiz-adv-x="1224" d="M104 516v393q0 107 30.5 200.5t89.5 167.5t156 116.5t220 42.5q168 0 289 -80.5t178 -220.5l-168 -76q-36 93 -115 148t-186 55q-80 0 -142 -30.5t-99 -82t-55.5 -114.5t-18.5 -134v-383q0 -98 35 -180t111.5 -136.5t182.5 -54.5q137 0 231.5 102t94.5 238v113h-301v164 h481v-277q0 -219 -142 -360t-366 -141q-126 0 -224.5 42.5t-159 116t-91.5 168t-31 203.5zM508 -526l80 180h-72v227h211v-223l-115 -184h-104z" />
<glyph unicode="&#x123;" horiz-adv-x="1046" d="M94 485q0 87 8 158t32.5 145.5t65 125t110 82.5t163.5 32q76 0 148 -33.5t112 -91.5h4v113h170v-998q0 -111 -35.5 -196.5t-97.5 -137.5t-139.5 -78t-167.5 -26q-205 0 -328 117l101 137q42 -37 108 -64.5t123 -27.5q118 0 192 67t74 187v119h-4q-112 -125 -276 -125 q-84 0 -148.5 28t-104.5 74t-65.5 111.5t-35 133.5t-9.5 148zM268 508q0 -63 4 -108.5t17.5 -94t38 -78.5t68 -49.5t104.5 -19.5q237 0 237 350q0 36 -1 63.5t-6.5 66t-14.5 67.5t-26.5 60t-41.5 51t-60.5 33t-82.5 13q-61 0 -106 -22t-69.5 -55t-38.5 -83.5t-18 -94 t-4 -99.5zM430 1133v223l115 184h104l-80 -180h72v-227h-211z" />
<glyph unicode="&#x124;" horiz-adv-x="1302" d="M156 0v1425h180v-626h631v626h180v-1425h-180v641h-631v-641h-180zM293 1591l307 262h109l292 -258l-61 -79l-293 176l-295 -179z" />
<glyph unicode="&#x125;" horiz-adv-x="1128" d="M-72 1591l308 262h108l293 -258l-62 -79l-292 176l-295 -179zM207 0v1487h168v-598h6q52 66 126.5 101.5t156.5 35.5q153 0 250.5 -91t97.5 -261v-674h-168v608q0 124 -50.5 188t-172.5 64q-104 0 -175 -69t-71 -183v-608h-168z" />
<glyph unicode="&#x126;" horiz-adv-x="1302" d="M53 1096v123h103v206h180v-206h631v206h180v-206h104v-123h-104v-1096h-180v641h-631v-641h-180v1096h-103zM336 799h631v297h-631v-297z" />
<glyph unicode="&#x127;" horiz-adv-x="1067" d="M27 1171v138h125v178h167v-178h443v-138h-443v-294h7q52 65 128.5 101t159.5 36q153 0 247.5 -90.5t94.5 -261.5v-662h-168v596q0 124 -50.5 188t-172.5 64q-104 0 -175 -69t-71 -183v-596h-167v1171h-125z" />
<glyph unicode="&#x128;" horiz-adv-x="493" d="M-115 1597q41 86 100 134.5t121 48.5q52 0 147 -48.5t128 -48.5q64 0 125 93l106 -60q-86 -182 -219 -182q-51 0 -142.5 43t-129.5 43q-35 0 -62.5 -18t-66.5 -64zM156 0v1425h180v-1425h-180z" />
<glyph unicode="&#x129;" horiz-adv-x="645" d="M-41 1249q41 86 100 134.5t121 48.5q52 0 147 -48.5t128 -48.5q65 0 125 92l106 -59q-86 -182 -219 -182q-51 0 -142.5 43t-129.5 43q-35 0 -62.5 -18t-66.5 -64zM231 0v1014h181v-1014h-181z" />
<glyph unicode="&#x12a;" horiz-adv-x="493" d="M-23 1597v154h549v-154h-549zM156 0v1425h180v-1425h-180z" />
<glyph unicode="&#x12b;" horiz-adv-x="507" d="M-18 1229v153h548v-153h-548zM164 0v1014h180v-1014h-180z" />
<glyph unicode="&#x12c;" horiz-adv-x="555" d="M-10 1761h149q3 -46 44 -87.5t102 -41.5q68 0 107.5 41t39.5 88h146q-3 -35 -12.5 -68.5t-31 -70t-52.5 -63.5t-82 -44.5t-115 -17.5t-116 17.5t-84 45t-54 63t-31 70t-10 68.5zM188 0v1425h181v-1425h-181z" />
<glyph unicode="&#x12d;" horiz-adv-x="505" d="M-41 1440h150q3 -47 43.5 -88t101.5 -41q68 0 107.5 41t39.5 88h146q-3 -35 -12.5 -68.5t-31 -70t-52.5 -63.5t-82 -44.5t-115 -17.5t-116 17.5t-84 45t-54 63t-31 70t-10 68.5zM162 0v1014h180v-1014h-180z" />
<glyph unicode="&#x12e;" horiz-adv-x="493" d="M80 -188q0 83 76 188v1425h180v-1425h-57q-66 -92 -66 -158q0 -43 26 -66.5t72 -23.5q53 0 119 27l39 -98q-76 -50 -178 -50q-94 0 -152.5 52.5t-58.5 128.5z" />
<glyph unicode="&#x12f;" horiz-adv-x="458" d="M72 -186q0 85 73 186v1016h168v-1016h-45q-63 -89 -63 -156q0 -43 26 -66.5t72 -23.5q53 0 119 27l39 -98q-76 -50 -178 -50q-94 0 -152.5 52.5t-58.5 128.5zM145 1257v168h168v-168h-168z" />
<glyph unicode="&#x130;" horiz-adv-x="493" d="M154 1571v180h180v-180h-180zM156 0v1425h180v-1425h-180z" />
<glyph unicode="&#x131;" horiz-adv-x="409" d="M115 0v1014h180v-1014h-180z" />
<glyph unicode="&#x132;" horiz-adv-x="1380" d="M154 0v1425h180v-1425h-180zM453 135l118 133q41 -41 107.5 -75.5t120.5 -34.5q56 0 99.5 12.5t82 44t59.5 92.5t21 150v968h180v-970q0 -127 -33.5 -219.5t-94.5 -145.5t-137 -77.5t-171 -24.5q-105 0 -198.5 40t-153.5 107z" />
<glyph unicode="&#x133;" horiz-adv-x="897" d="M145 0v1016h168v-1016h-168zM145 1257v168h168v-168h-168zM385 -260h61q56 2 87.5 37t31.5 98v1141h170v-1153q0 -126 -67.5 -201.5t-192.5 -75.5h-90v154zM565 1257v168h170v-168h-170z" />
<glyph unicode="&#x134;" horiz-adv-x="956" d="M29 137l118 133q41 -41 107.5 -75.5t120.5 -34.5q56 0 99.5 12.5t82 44t59.5 92.5t21 150v968h180v-970q0 -127 -33.5 -219.5t-94.5 -145.5t-137 -77.5t-171 -24.5q-105 0 -198.5 40t-153.5 107zM369 1595l307 263h108l293 -259l-61 -79l-293 176l-295 -178z" />
<glyph unicode="&#x135;" horiz-adv-x="626" d="M-41 1208l307 314h109l293 -310l-82 -79l-273 217l-274 -220zM47 -260q60 0 62 2q56 2 87 36t31 97v1139h170v-1151q0 -123 -80 -200t-208 -77h-62v154z" />
<glyph unicode="&#x136;" horiz-adv-x="1265" d="M156 0v1425h182v-772l6 2l262 320l375 450h209l-465 -561l528 -864h-209l-434 723l-274 -330v-393h-180zM549 -485l80 180h-72v227h211v-223l-115 -184h-104z" />
<glyph unicode="&#x137;" horiz-adv-x="1036" d="M139 0v1487h168v-961h6l439 490h198l-346 -383l418 -633h-195l-335 510l-185 -203v-307h-168zM434 -526l80 180h-72v227h211v-223l-114 -184h-105z" />
<glyph unicode="&#x138;" horiz-adv-x="1036" d="M139 0v1016h168v-490h6l439 490h198l-346 -383l418 -633h-195l-335 510l-185 -203v-307h-168z" />
<glyph unicode="&#x139;" horiz-adv-x="1112" d="M156 0v1425h180v-1259h721v-166h-901zM164 1597l303 250l121 -125l-348 -211z" />
<glyph unicode="&#x13a;" horiz-adv-x="497" d="M139 236v1251h168v-1237q0 -96 105 -96h49v-154h-72q-250 0 -250 236zM143 1618l303 250l121 -125l-348 -211z" />
<glyph unicode="&#x13b;" horiz-adv-x="1112" d="M156 0v1425h180v-1259h721v-166h-901zM487 -526l80 180h-71v227h211v-223l-115 -184h-105z" />
<glyph unicode="&#x13c;" horiz-adv-x="497" d="M139 236v1251h168v-1237q0 -96 105 -96h49v-154h-72q-250 0 -250 236zM184 -526l80 180h-71v227h210v-223l-114 -184h-105z" />
<glyph unicode="&#x13d;" horiz-adv-x="1112" d="M156 0v1425h180v-1259h721v-166h-901zM694 1018l80 180h-72v227h211v-223l-114 -184h-105z" />
<glyph unicode="&#x13e;" horiz-adv-x="641" d="M139 236v1251h168v-1237q0 -96 105 -96h49v-154h-72q-250 0 -250 236zM422 1077l80 180h-72v228h211v-223l-115 -185h-104z" />
<glyph unicode="&#x13f;" horiz-adv-x="1112" d="M156 0v1425h180v-1259h721v-166h-901zM635 637v180h180v-180h-180z" />
<glyph unicode="&#x140;" horiz-adv-x="659" d="M139 236v1251h168v-1237q0 -96 105 -96h49v-154h-72q-250 0 -250 236zM461 692v180h180v-180h-180z" />
<glyph unicode="&#x141;" horiz-adv-x="1175" d="M-16 518l235 137v770h180v-665l260 151l68 -118l-328 -191v-436h721v-166h-901v496l-168 -97z" />
<glyph unicode="&#x142;" horiz-adv-x="667" d="M0 621l229 131v735h168v-637l203 117l68 -119l-271 -156v-442q0 -96 105 -96h49v-154h-72q-250 0 -250 236v358l-161 -92z" />
<glyph unicode="&#x143;" horiz-adv-x="1378" d="M156 0v1425h178l502 -776l206 -342l7 4v1114h178v-1425h-176l-521 803l-188 311l-6 -2v-1112h-180zM573 1597l304 250l120 -125l-348 -211z" />
<glyph unicode="&#x144;" horiz-adv-x="1036" d="M115 0v1018h168v-129h6q52 65 131 101t162 36q152 0 245 -90.5t93 -261.5v-674h-168v608q0 125 -52.5 188.5t-179.5 63.5q-103 0 -170 -68.5t-67 -183.5v-608h-168zM395 1169l148 363l166 -51l-205 -353z" />
<glyph unicode="&#x145;" horiz-adv-x="1378" d="M156 0v1425h178l502 -776l206 -342l7 4v1114h178v-1425h-176l-521 803l-188 311l-6 -2v-1112h-180zM569 -485l80 180h-71v227h210v-223l-114 -184h-105z" />
<glyph unicode="&#x146;" horiz-adv-x="1036" d="M115 0v1018h168v-129h6q52 65 131 101t162 36q152 0 245 -90.5t93 -261.5v-674h-168v608q0 125 -52.5 188.5t-179.5 63.5q-103 0 -170 -68.5t-67 -183.5v-608h-168zM397 -526l80 180h-71v227h210v-223l-114 -184h-105z" />
<glyph unicode="&#x147;" horiz-adv-x="1378" d="M156 0v1425h178l502 -776l206 -342l7 4v1114h178v-1425h-176l-521 803l-188 311l-6 -2v-1112h-180zM334 1784l59 78l295 -179l293 177l61 -80l-292 -260h-109z" />
<glyph unicode="&#x148;" horiz-adv-x="1036" d="M115 0v1018h168v-129h6q52 65 131 101t162 36q152 0 245 -90.5t93 -261.5v-674h-168v608q0 125 -52.5 188.5t-179.5 63.5q-103 0 -170 -68.5t-67 -183.5v-608h-168zM162 1446l80 78l274 -219l272 217l82 -80l-292 -309h-109z" />
<glyph unicode="&#x149;" horiz-adv-x="1202" d="M20 963l80 180h-71v227h211v-223l-115 -184h-105zM281 0v1018h168v-129h6q52 65 131 101t162 36q152 0 244.5 -90.5t92.5 -261.5v-674h-167v608q0 125 -52.5 188.5t-179.5 63.5q-103 0 -170 -68.5t-67 -183.5v-608h-168z" />
<glyph unicode="&#x14a;" horiz-adv-x="1378" d="M156 0v1425h178l502 -776l206 -342l7 4v1114h178v-1572q0 -110 -57.5 -164t-151.5 -54q-90 0 -180 43l43 121q83 -22 110 -22q35 0 51.5 19.5t16.5 64.5v129l-529 813l-188 311l-6 -2v-1112h-180z" />
<glyph unicode="&#x14b;" horiz-adv-x="1036" d="M115 0v1016h170v-123h8q50 64 126.5 98.5t160.5 34.5q146 0 243 -93.5t97 -256.5v-823q0 -110 -57.5 -164t-151.5 -54q-91 0 -181 43l43 121q83 -22 111 -22q35 0 51.5 19.5t16.5 64.5v747q0 250 -234 250q-102 0 -167.5 -69t-65.5 -181v-608h-170z" />
<glyph unicode="&#x14c;" horiz-adv-x="1218" d="M102 516v393q0 107 32 200.5t93 167t159 116.5t222 43q231 0 369.5 -148t138.5 -379v-393q0 -242 -138 -385t-370 -143q-124 0 -222 42t-159 115.5t-93 167.5t-32 203zM281 526q0 -97 35 -179.5t111.5 -136.5t182.5 -54q148 0 237 104.5t89 265.5v379q0 154 -89 257.5 t-237 103.5q-106 0 -182.5 -53t-111.5 -133.5t-35 -174.5v-379zM354 1597v154h549v-154h-549z" />
<glyph unicode="&#x14d;" horiz-adv-x="1052" d="M104 504q0 184 52 291q51 109 151 169t232 60q109 0 195.5 -44t139.5 -126q70 -110 70 -311q0 -262 -63 -369q-52 -89 -148 -137.5t-217 -48.5q-110 0 -197 39t-139 114q-76 116 -76 363zM260 1229v153h549v-153h-549zM272 502q0 -153 31 -221q30 -67 85.5 -103.5 t129.5 -36.5q85 0 148.5 45t91.5 136q16 56 16 215q0 124 -26 188q-28 73 -85 110t-131 37q-75 0 -133.5 -37.5t-89.5 -105.5q-34 -71 -37 -227z" />
<glyph unicode="&#x14e;" horiz-adv-x="1218" d="M102 516v393q0 107 32 200.5t93 167t159 116.5t222 43q231 0 369.5 -148t138.5 -379v-393q0 -242 -138 -385t-370 -143q-124 0 -222 42t-159 115.5t-93 167.5t-32 203zM281 526q0 -97 35 -179.5t111.5 -136.5t182.5 -54q148 0 237 104.5t89 265.5v379q0 154 -89 257.5 t-237 103.5q-106 0 -182.5 -53t-111.5 -133.5t-35 -174.5v-379zM326 1761h149q3 -46 44 -87.5t102 -41.5q68 0 107.5 41t39.5 88h145q-3 -35 -12.5 -68.5t-31 -70t-52 -63.5t-81.5 -44.5t-115 -17.5t-116 17.5t-84 45t-54 63t-31 70t-10 68.5z" />
<glyph unicode="&#x14f;" horiz-adv-x="1052" d="M104 504q0 184 52 291q51 109 151 169t232 60q109 0 195.5 -44t139.5 -126q70 -110 70 -311q0 -262 -63 -369q-52 -89 -148 -137.5t-217 -48.5q-110 0 -197 39t-139 114q-76 116 -76 363zM240 1427h149q3 -46 44 -87.5t102 -41.5q68 0 107.5 41t39.5 88h145 q-3 -35 -12.5 -68.5t-31 -70t-52 -63.5t-81.5 -44.5t-115 -17.5t-116 17.5t-84 45t-54 63t-31 70t-10 68.5zM272 502q0 -153 31 -221q30 -67 85.5 -103.5t129.5 -36.5q85 0 148.5 45t91.5 136q16 56 16 215q0 124 -26 188q-28 73 -85 110t-131 37q-75 0 -133.5 -37.5 t-89.5 -105.5q-34 -71 -37 -227z" />
<glyph unicode="&#x150;" horiz-adv-x="1218" d="M102 516v393q0 107 32 200.5t93 167t159 116.5t222 43q231 0 369.5 -148t138.5 -379v-393q0 -242 -138 -385t-370 -143q-124 0 -222 42t-159 115.5t-93 167.5t-32 203zM281 526q0 -97 35 -179.5t111.5 -136.5t182.5 -54q148 0 237 104.5t89 265.5v379q0 154 -89 257.5 t-237 103.5q-106 0 -182.5 -53t-111.5 -133.5t-35 -174.5v-379zM358 1597l304 250l120 -125l-348 -211zM672 1597l303 250l121 -125l-348 -211z" />
<glyph unicode="&#x151;" horiz-adv-x="1052" d="M104 504q0 184 52 291q51 109 151 169t232 60q109 0 195.5 -44t139.5 -126q70 -110 70 -311q0 -262 -63 -369q-52 -89 -148 -137.5t-217 -48.5q-110 0 -197 39t-139 114q-76 116 -76 363zM272 502q0 -153 31 -221q30 -67 85.5 -103.5t129.5 -36.5q85 0 148.5 45t91.5 136 q16 56 16 215q0 124 -26 188q-28 73 -85 110t-131 37q-75 0 -133.5 -37.5t-89.5 -105.5q-34 -71 -37 -227zM313 1169l148 363l166 -51l-205 -353zM580 1169l147 363l166 -51l-205 -353z" />
<glyph unicode="&#x152;" horiz-adv-x="1660" d="M86 516v393q0 107 32 200.5t93 167t159 116.5t222 43q45 0 113 -11h901v-165h-721v-461h614v-158h-614v-475h721v-166h-891q-59 -12 -123 -12q-124 0 -222 42t-159 115.5t-93 167.5t-32 203zM264 526q0 -97 35.5 -179.5t112 -136.5t182.5 -54q58 0 111 18v1073 q-55 19 -111 19q-80 0 -144.5 -30.5t-104 -82t-60.5 -115t-21 -133.5v-379z" />
<glyph unicode="&#x153;" horiz-adv-x="1695" d="M88 504q0 194 45 291q50 109 148 169t229 60q109 0 196.5 -43.5t141.5 -124.5v-2q59 89 147 130.5t185 41.5q173 0 294 -120.5t121 -323.5v-129h-665q0 -107 37 -177q71 -133 241 -133q53 0 118.5 26t113.5 69l106 -121q-135 -129 -334 -129q-250 0 -364 172 q-57 -86 -147 -129t-197 -43q-229 0 -334 153q-82 122 -82 363zM256 502q0 -149 33 -221q31 -67 88 -103.5t131 -36.5q85 0 146.5 45t88.5 136q15 52 15 182q0 147 -31 221q-30 73 -87.5 110t-131.5 37q-75 0 -132.5 -37.5t-88.5 -105.5q-31 -70 -31 -227zM930 590h493 q-4 136 -69 208t-172 72q-108 0 -177 -73.5t-75 -206.5z" />
<glyph unicode="&#x154;" horiz-adv-x="1224" d="M156 0v1425h581q176 0 294 -109t118 -280q0 -143 -83.5 -246t-223.5 -145l288 -645h-200l-273 627h-321v-627h-180zM336 784h360q121 0 197 67t76 185q0 116 -71 174t-193 58h-369v-484zM471 1597l303 250l121 -125l-348 -211z" />
<glyph unicode="&#x155;" horiz-adv-x="747" d="M139 0v1016h168v-129h8q52 75 117 107t150 32q110 0 172 -43l-72 -162q-59 39 -143 39q-103 0 -167.5 -64t-64.5 -182v-614h-168zM307 1169l148 363l166 -51l-205 -353z" />
<glyph unicode="&#x156;" horiz-adv-x="1224" d="M156 0v1425h581q176 0 294 -109t118 -280q0 -143 -83.5 -246t-223.5 -145l288 -645h-200l-273 627h-321v-627h-180zM336 784h360q121 0 197 67t76 185q0 116 -71 174t-193 58h-369v-484zM508 -485l80 180h-72v227h211v-223l-115 -184h-104z" />
<glyph unicode="&#x157;" horiz-adv-x="747" d="M123 -526l80 180h-72v227h211v-223l-115 -184h-104zM139 0v1016h168v-129h8q52 75 117 107t150 32q110 0 172 -43l-72 -162q-59 39 -143 39q-103 0 -167.5 -64t-64.5 -182v-614h-168z" />
<glyph unicode="&#x158;" horiz-adv-x="1224" d="M156 0v1425h581q176 0 294 -109t118 -280q0 -143 -83.5 -246t-223.5 -145l288 -645h-200l-273 627h-321v-627h-180zM211 1784l59 78l295 -179l293 177l62 -80l-293 -260h-109zM336 784h360q121 0 197 67t76 185q0 116 -71 174t-193 58h-369v-484z" />
<glyph unicode="&#x159;" horiz-adv-x="747" d="M33 1446l80 78l274 -219l272 217l82 -80l-292 -309h-109zM139 0v1016h168v-129h8q52 75 117 107t150 32q110 0 172 -43l-72 -162q-59 39 -143 39q-103 0 -167.5 -64t-64.5 -182v-614h-168z" />
<glyph unicode="&#x15a;" horiz-adv-x="1114" d="M4 182l115 146q84 -81 198 -124.5t242 -43.5q144 0 231 61t87 187q0 47 -18.5 83.5t-45 59t-74.5 41.5t-88 28.5t-104 22.5q-174 34 -245 62q-158 64 -199 205q-17 57 -17 128q0 126 66 219t171.5 138t235.5 45q284 0 457 -137l-101 -154q-171 115 -356 115 q-141 0 -218 -59.5t-77 -166.5q0 -37 11 -66t36.5 -52t55 -39.5t80 -32t97.5 -26.5t120 -25q48 -10 80 -18t77.5 -23.5t76 -33.5t64 -48t54 -66t34 -88t13.5 -114q0 -193 -141 -305.5t-371 -112.5q-142 0 -291.5 50.5t-255.5 143.5zM430 1597l303 250l121 -125l-348 -211z " />
<glyph unicode="&#x15b;" horiz-adv-x="935" d="M39 135l102 129q143 -125 330 -125q97 0 160 41t63 117q0 72 -57.5 101.5t-175.5 41.5q-49 5 -82.5 10.5t-80.5 17t-78 30.5t-60.5 47.5t-44.5 72t-15 99.5q0 138 108 223.5t263 85.5q218 0 363 -111l-91 -135q-136 90 -272 90q-96 0 -151.5 -40.5t-55.5 -108.5 q0 -45 33 -73t90.5 -42t155.5 -24q47 -5 88.5 -15t85 -31t74.5 -51t51 -77.5t20 -106.5q0 -140 -111.5 -226.5t-287.5 -86.5q-253 0 -424 147zM395 1169l148 363l166 -51l-205 -353z" />
<glyph unicode="&#x15c;" horiz-adv-x="1114" d="M4 182l115 146q84 -81 198 -124.5t242 -43.5q144 0 231 61t87 187q0 47 -18.5 83.5t-45 59t-74.5 41.5t-88 28.5t-104 22.5q-174 34 -245 62q-158 64 -199 205q-17 57 -17 128q0 126 66 219t171.5 138t235.5 45q284 0 457 -137l-101 -154q-171 115 -356 115 q-141 0 -218 -59.5t-77 -166.5q0 -37 11 -66t36.5 -52t55 -39.5t80 -32t97.5 -26.5t120 -25q48 -10 80 -18t77.5 -23.5t76 -33.5t64 -48t54 -66t34 -88t13.5 -114q0 -193 -141 -305.5t-371 -112.5q-142 0 -291.5 50.5t-255.5 143.5zM199 1591l307 262h108l293 -258l-61 -79 l-293 176l-295 -179z" />
<glyph unicode="&#x15d;" horiz-adv-x="935" d="M39 135l102 129q143 -125 330 -125q97 0 160 41t63 117q0 72 -57.5 101.5t-175.5 41.5q-49 5 -82.5 10.5t-80.5 17t-78 30.5t-60.5 47.5t-44.5 72t-15 99.5q0 138 108 223.5t263 85.5q218 0 363 -111l-91 -135q-136 90 -272 90q-96 0 -151.5 -40.5t-55.5 -108.5 q0 -45 33 -73t90.5 -42t155.5 -24q47 -5 88.5 -15t85 -31t74.5 -51t51 -77.5t20 -106.5q0 -140 -111.5 -226.5t-287.5 -86.5q-253 0 -424 147zM121 1208l307 314h109l292 -310l-81 -79l-273 217l-274 -220z" />
<glyph unicode="&#x15e;" horiz-adv-x="1114" d="M4 182l115 146q84 -81 198 -124.5t242 -43.5q144 0 231 61t87 187q0 47 -18.5 83.5t-45 59t-74.5 41.5t-88 28.5t-104 22.5q-174 34 -245 62q-158 64 -199 205q-17 57 -17 128q0 126 66 219t171.5 138t235.5 45q284 0 457 -137l-101 -154q-171 115 -356 115 q-141 0 -218 -59.5t-77 -166.5q0 -37 11 -66t36.5 -52t55 -39.5t80 -32t97.5 -26.5t120 -25q48 -10 80 -18t77.5 -23.5t76 -33.5t64 -48t54 -66t34 -88t13.5 -114q0 -188 -134.5 -300t-357.5 -118l-20 -68q56 -3 98 -20.5t64 -44t32.5 -53.5t10.5 -54q0 -29 -11.5 -57 t-35.5 -54.5t-69 -42.5t-105 -16q-98 0 -179 37l35 88q71 -31 144 -31q40 0 68 21t28 53q0 38 -32.5 60t-86.5 22h-29l-41 43l37 121q-128 9 -255.5 58.5t-219.5 131.5z" />
<glyph unicode="&#x15f;" horiz-adv-x="935" d="M39 135l102 129q143 -125 330 -125q97 0 160 41t63 117q0 72 -57.5 101.5t-175.5 41.5q-49 5 -82.5 10.5t-80.5 17t-78 30.5t-60.5 47.5t-44.5 72t-15 99.5q0 138 108 223.5t263 85.5q218 0 363 -111l-91 -135q-136 90 -272 90q-96 0 -151.5 -40.5t-55.5 -108.5 q0 -45 33 -73t90.5 -42t155.5 -24q47 -5 88.5 -15t85 -31t74.5 -51t51 -77.5t20 -106.5q0 -137 -107.5 -222.5t-277.5 -90.5l-20 -68q56 -3 98 -20.5t64 -44t32.5 -53.5t10.5 -54q0 -65 -54 -117.5t-168 -52.5q-97 0 -178 37l35 88q71 -31 143 -31q40 0 68.5 21t28.5 53 q0 38 -32.5 60t-86.5 22h-29l-41 43l37 121q-203 20 -346 143z" />
<glyph unicode="&#x160;" horiz-adv-x="1114" d="M4 182l115 146q84 -81 198 -124.5t242 -43.5q144 0 231 61t87 187q0 47 -18.5 83.5t-45 59t-74.5 41.5t-88 28.5t-104 22.5q-174 34 -245 62q-158 64 -199 205q-17 57 -17 128q0 126 66 219t171.5 138t235.5 45q284 0 457 -137l-101 -154q-171 115 -356 115 q-141 0 -218 -59.5t-77 -166.5q0 -37 11 -66t36.5 -52t55 -39.5t80 -32t97.5 -26.5t120 -25q48 -10 80 -18t77.5 -23.5t76 -33.5t64 -48t54 -66t34 -88t13.5 -114q0 -193 -141 -305.5t-371 -112.5q-142 0 -291.5 50.5t-255.5 143.5zM211 1784l59 78l295 -179l293 177l62 -80 l-293 -260h-109z" />
<glyph unicode="&#x161;" horiz-adv-x="935" d="M39 135l102 129q143 -125 330 -125q97 0 160 41t63 117q0 72 -57.5 101.5t-175.5 41.5q-49 5 -82.5 10.5t-80.5 17t-78 30.5t-60.5 47.5t-44.5 72t-15 99.5q0 138 108 223.5t263 85.5q218 0 363 -111l-91 -135q-136 90 -272 90q-96 0 -151.5 -40.5t-55.5 -108.5 q0 -45 33 -73t90.5 -42t155.5 -24q47 -5 88.5 -15t85 -31t74.5 -51t51 -77.5t20 -106.5q0 -140 -111.5 -226.5t-287.5 -86.5q-253 0 -424 147zM106 1446l80 78l275 -219l272 217l82 -80l-293 -309h-108z" />
<glyph unicode="&#x162;" horiz-adv-x="995" d="M2 1268v157h991v-157h-405v-1268h-180v1268h-406zM385 -526l80 180h-72v227h211v-223l-115 -184h-104z" />
<glyph unicode="&#x163;" horiz-adv-x="610" d="M72 870v146h121v252h167v-252h156v-146h-156v-591q0 -127 101 -127h88v-152h-121q-106 0 -170.5 62.5t-64.5 175.5v632h-121zM205 -526l80 180h-72v227h211v-223l-115 -184h-104z" />
<glyph unicode="&#x164;" horiz-adv-x="995" d="M2 1268v157h991v-157h-405v-1268h-180v1268h-406zM143 1784l60 78l295 -179l293 177l61 -80l-293 -260h-108z" />
<glyph unicode="&#x165;" horiz-adv-x="700" d="M72 870v146h121v252h167v-252h156v-146h-156v-591q0 -127 101 -127h88v-152h-121q-106 0 -170.5 62.5t-64.5 175.5v632h-121zM485 1130l80 181h-71v227h211v-223l-115 -185h-105z" />
<glyph unicode="&#x166;" horiz-adv-x="995" d="M2 1268v157h991v-157h-405v-443h295v-143h-295v-682h-180v682h-299v143h299v443h-406z" />
<glyph unicode="&#x167;" horiz-adv-x="610" d="M72 870v146h121v252h167v-252h156v-146h-156v-233h160v-137h-160v-221q0 -127 101 -127h88v-152h-121q-106 0 -170.5 62.5t-64.5 175.5v262h-117v137h117v233h-121z" />
<glyph unicode="&#x168;" horiz-adv-x="1265" d="M127 516v909h178v-895q0 -97 35.5 -179.5t112 -136.5t182.5 -54q152 0 239 96.5t87 273.5v895h180v-909q0 -242 -138 -385t-370 -143q-124 0 -222 42t-159 115.5t-93 167.5t-32 203zM266 1597q41 86 100 134.5t121 48.5q52 0 147 -48.5t128 -48.5q64 0 125 93l106 -60 q-86 -182 -219 -182q-51 0 -142.5 43t-129.5 43q-35 0 -62.5 -18t-66.5 -64z" />
<glyph unicode="&#x169;" horiz-adv-x="1052" d="M115 342v674h168v-610q0 -138 49.5 -198.5t183.5 -60.5q101 0 168.5 72t67.5 187v610h168v-1016h-168v115h-7q-49 -63 -122.5 -95t-155.5 -32q-165 0 -258.5 86t-93.5 268zM143 1249q41 86 100.5 134.5t121.5 48.5q52 0 146.5 -48.5t127.5 -48.5q65 0 125 92l106 -59 q-86 -182 -219 -182q-51 0 -142.5 43t-129.5 43q-35 0 -62.5 -18t-66.5 -64z" />
<glyph unicode="&#x16a;" horiz-adv-x="1265" d="M127 516v909h178v-895q0 -97 35.5 -179.5t112 -136.5t182.5 -54q152 0 239 96.5t87 273.5v895h180v-909q0 -242 -138 -385t-370 -143q-124 0 -222 42t-159 115.5t-93 167.5t-32 203zM338 1597v154h549v-154h-549z" />
<glyph unicode="&#x16b;" horiz-adv-x="1052" d="M115 342v674h168v-610q0 -138 49.5 -198.5t183.5 -60.5q101 0 168.5 72t67.5 187v610h168v-1016h-168v115h-7q-49 -63 -122.5 -95t-155.5 -32q-165 0 -258.5 86t-93.5 268zM260 1229v153h549v-153h-549z" />
<glyph unicode="&#x16c;" horiz-adv-x="1265" d="M127 516v909h178v-895q0 -97 35.5 -179.5t112 -136.5t182.5 -54q152 0 239 96.5t87 273.5v895h180v-909q0 -242 -138 -385t-370 -143q-124 0 -222 42t-159 115.5t-93 167.5t-32 203zM344 1735h150q3 -47 43.5 -88t101.5 -41q68 0 107.5 41t39.5 88h146 q-3 -35 -12.5 -68.5t-31 -70.5t-52.5 -64t-82 -44.5t-115 -17.5q-79 0 -139 26t-92 67.5t-47.5 84.5t-16.5 87z" />
<glyph unicode="&#x16d;" horiz-adv-x="1052" d="M115 342v674h168v-610q0 -138 49.5 -198.5t183.5 -60.5q101 0 168.5 72t67.5 187v610h168v-1016h-168v115h-7q-49 -63 -122.5 -95t-155.5 -32q-165 0 -258.5 86t-93.5 268zM227 1427h150q3 -47 43.5 -88t101.5 -41q68 0 108 41t40 88h145q-3 -35 -12.5 -68.5t-31 -70 t-52.5 -63.5t-82 -44.5t-115 -17.5t-116 17.5t-84 45t-54 63t-31 70t-10 68.5z" />
<glyph unicode="&#x16e;" horiz-adv-x="1265" d="M127 516v909h178v-895q0 -97 35.5 -179.5t112 -136.5t182.5 -54q152 0 239 96.5t87 273.5v895h180v-909q0 -242 -138 -385t-370 -143q-124 0 -222 42t-159 115.5t-93 167.5t-32 203zM438 1651q0 83 59 141.5t144 58.5q83 0 142 -58.5t59 -141.5t-59 -142t-142 -59 q-85 0 -144 59t-59 142zM528 1651q0 -47 33 -80t80 -33t80 33t33 80q0 46 -33 79t-80 33t-80 -33t-33 -79z" />
<glyph unicode="&#x16f;" horiz-adv-x="1052" d="M115 342v674h168v-610q0 -138 49.5 -198.5t183.5 -60.5q101 0 168.5 72t67.5 187v610h168v-1016h-168v115h-7q-49 -63 -122.5 -95t-155.5 -32q-165 0 -258.5 86t-93.5 268zM319 1319q0 83 59 142t144 59q83 0 142 -59t59 -142t-59 -142t-142 -59q-85 0 -144 59t-59 142z M410 1319q0 -47 32.5 -80t79.5 -33t80 33t33 80q0 46 -33 79.5t-80 33.5t-79.5 -33.5t-32.5 -79.5z" />
<glyph unicode="&#x170;" horiz-adv-x="1265" d="M127 516v909h178v-895q0 -97 35.5 -179.5t112 -136.5t182.5 -54q152 0 239 96.5t87 273.5v895h180v-909q0 -242 -138 -385t-370 -143q-124 0 -222 42t-159 115.5t-93 167.5t-32 203zM322 1597l303 250l120 -125l-348 -211zM635 1597l303 250l121 -125l-348 -211z" />
<glyph unicode="&#x171;" horiz-adv-x="1052" d="M115 342v674h168v-610q0 -138 49.5 -198.5t183.5 -60.5q101 0 168.5 72t67.5 187v610h168v-1016h-168v115h-7q-49 -63 -122.5 -95t-155.5 -32q-165 0 -258.5 86t-93.5 268zM313 1169l148 363l166 -51l-205 -353zM580 1169l147 363l166 -51l-205 -353z" />
<glyph unicode="&#x172;" horiz-adv-x="1265" d="M127 516v909h178v-895q0 -97 35.5 -179.5t112 -136.5t182.5 -54q152 0 239 96.5t87 273.5v895h180v-909q0 -220 -114 -358.5t-312 -163.5q-58 -88 -58 -148q0 -42 26.5 -66t72.5 -24q52 0 118 27l39 -98q-76 -50 -178 -50q-94 0 -152.5 52.5t-58.5 128.5q0 79 64 174 q-113 7 -202 51.5t-145 116.5t-85 163t-29 195z" />
<glyph unicode="&#x173;" horiz-adv-x="1052" d="M115 342v674h168v-610q0 -138 49.5 -198.5t183.5 -60.5q101 0 168.5 72t67.5 187v610h168v-1016h-48q-61 -87 -61 -154q0 -43 26 -66.5t72 -23.5q53 0 119 27l39 -98q-76 -50 -178 -50q-94 0 -152.5 52.5t-58.5 128.5q0 84 74 186v113h-7q-49 -63 -122.5 -95t-155.5 -32 q-165 0 -258.5 86t-93.5 268z" />
<glyph unicode="&#x174;" horiz-adv-x="1685" d="M25 1425h196l160 -698l86 -385l8 -2l94 383l195 702h147l201 -714l98 -373h7q12 56 36 182.5t37 184.5l164 720h197l-361 -1425h-155l-193 709l-102 381l-9 -3l-92 -352l-198 -735h-158zM489 1591l308 262h108l293 -258l-61 -79l-293 176l-295 -179z" />
<glyph unicode="&#x175;" horiz-adv-x="1472" d="M12 1016h185l153 -535l66 -227h8q11 39 33.5 113.5t31.5 107.5l168 541h156l164 -535l70 -239h10q20 70 65 245l148 529h186l-326 -1016h-159l-152 489l-88 283l-82 -280l-151 -492h-162zM377 1208l307 314h109l292 -310l-81 -79l-273 217l-274 -220z" />
<glyph unicode="&#x176;" horiz-adv-x="1040" d="M4 1425h191l198 -395l127 -272l133 284l193 383h186l-428 -860v-565h-172v565zM162 1591l307 262h109l292 -258l-61 -79l-293 176l-295 -179z" />
<glyph unicode="&#x177;" horiz-adv-x="897" d="M0 1016h186l162 -461l105 -319h6l104 317l158 463h176l-436 -1231q-28 -79 -72 -124t-89 -58t-107 -13h-87v148h84q44 0 75 26t52 89l56 167zM98 1208l308 314h108l293 -310l-82 -79l-272 217l-275 -220z" />
<glyph unicode="&#x178;" horiz-adv-x="1040" d="M4 1425h191l198 -395l127 -272l133 284l193 383h186l-428 -860v-565h-172v565zM246 1577v180h180v-180h-180zM614 1577v180h181v-180h-181z" />
<glyph unicode="&#x179;" horiz-adv-x="1034" d="M68 0v158l694 1110h-668v157h875v-143l-699 -1116h699v-166h-901zM393 1597l303 250l121 -125l-348 -211z" />
<glyph unicode="&#x17a;" horiz-adv-x="888" d="M70 0v139l553 729h-523v148h719v-146l-549 -714h549v-156h-749zM395 1169l148 363l166 -51l-205 -353z" />
<glyph unicode="&#x17b;" horiz-adv-x="1034" d="M68 0v158l694 1110h-668v157h875v-143l-699 -1116h699v-166h-901zM461 1571v180h180v-180h-180z" />
<glyph unicode="&#x17c;" horiz-adv-x="888" d="M70 0v139l553 729h-523v148h719v-146l-549 -714h549v-156h-749zM367 1223v180h180v-180h-180z" />
<glyph unicode="&#x17d;" horiz-adv-x="1034" d="M68 0v158l694 1110h-668v157h875v-143l-699 -1116h699v-166h-901zM182 1784l60 78l295 -179l292 177l62 -80l-293 -260h-109z" />
<glyph unicode="&#x17e;" horiz-adv-x="888" d="M70 0v139l553 729h-523v148h719v-146l-549 -714h549v-156h-749zM100 1446l80 78l275 -219l272 217l82 -80l-293 -309h-108z" />
<glyph unicode="&#x192;" horiz-adv-x="1024" d="M-2 -145q9 29 26 70.5t25 66.5q71 -27 123 -27q81 0 123 73t63 212l68 469h-178v141h198l23 150q65 424 383 424q90 0 164 -29q-6 -25 -19.5 -75t-19.5 -79q-58 21 -133 21q-160 0 -195 -252l-22 -160h217v-141h-238l-65 -467q-15 -103 -38.5 -178.5t-63.5 -136 t-101.5 -91t-144.5 -30.5q-98 0 -195 39z" />
<glyph unicode="&#x1a0;" horiz-adv-x="1218" d="M102 516v393q0 107 32 200.5t93 167t159 116.5t222 43q182 0 312 -97q66 7 91 52t25 151v43h158v-67q0 -238 -160 -304q82 -130 82 -305v-393q0 -242 -138 -385t-370 -143q-124 0 -222 42t-159 115.5t-93 167.5t-32 203zM281 526q0 -97 35 -179.5t111.5 -136.5t182.5 -54 q148 0 237 104.5t89 265.5v379q0 154 -89 257.5t-237 103.5q-106 0 -182.5 -53t-111.5 -133.5t-35 -174.5v-379z" />
<glyph unicode="&#x1a1;" horiz-adv-x="1099" d="M104 504q0 184 52 291q51 109 151 169t232 60q155 0 266 -90q78 3 107.5 46.5t29.5 158.5v43h158v-68q0 -261 -199 -315q43 -101 43 -256q0 -262 -63 -369q-52 -89 -148 -137.5t-217 -48.5q-110 0 -197 39t-139 114q-76 116 -76 363zM272 502q0 -153 31 -221 q30 -67 85.5 -103.5t129.5 -36.5q85 0 148.5 45t91.5 136q16 56 16 215q0 124 -26 188q-28 73 -85 110t-131 37q-75 0 -133.5 -37.5t-89.5 -105.5q-34 -71 -37 -227z" />
<glyph unicode="&#x1af;" horiz-adv-x="1359" d="M127 516v909h178v-895q0 -97 35.5 -179.5t112 -136.5t182.5 -54q152 0 239 96.5t87 273.5v895h180v-86q66 7 91 52t25 151v43h158v-67q0 -154 -66.5 -235.5t-207.5 -90.5v-676q0 -242 -138 -385t-370 -143q-124 0 -222 42t-159 115.5t-93 167.5t-32 203z" />
<glyph unicode="&#x1b0;" horiz-adv-x="1163" d="M115 342v674h168v-610q0 -138 49.5 -198.5t183.5 -60.5q101 0 168.5 72t67.5 187v610h168v-80q66 7 91 52t25 151v43h158v-68q0 -154 -66.5 -235.5t-207.5 -90.5v-788h-168v115h-7q-49 -63 -122.5 -95t-155.5 -32q-165 0 -258.5 86t-93.5 268z" />
<glyph unicode="&#x1fc;" horiz-adv-x="2000" d="M20 0l910 1425h979v-165h-721v-461h614v-158h-614v-475h721v-166h-903v418h-531l-266 -418h-189zM573 573h433v680zM1227 1597l303 250l121 -125l-348 -211z" />
<glyph unicode="&#x1fd;" horiz-adv-x="1636" d="M92 289q0 126 84.5 212.5t239.5 86.5h319v114q0 84 -56 125t-177 41q-167 0 -242 -88l-106 113q56 65 146 99t196 34q264 0 362 -125q114 125 295 125q173 0 294.5 -120.5t121.5 -323.5v-129h-666q0 -107 37 -177q34 -64 96 -98.5t146 -34.5q53 0 118 26t113 69l107 -121 q-135 -129 -334 -129q-247 0 -359 159q-49 -78 -145.5 -118.5t-228.5 -40.5q-169 0 -265 83.5t-96 217.5zM252 299q0 -74 55.5 -116t165.5 -42q262 0 262 189v123h-278q-97 0 -151 -41.5t-54 -112.5zM805 1169l147 363l166 -51l-205 -353zM903 590h494q-4 136 -69.5 208 t-172.5 72q-108 0 -177 -73.5t-75 -206.5z" />
<glyph unicode="&#x1fe;" horiz-adv-x="1218" d="M78 55l102 152q-78 130 -78 309v393q0 107 32 200.5t93 167t159 116.5t222 43q197 0 332 -113l74 109l88 -60l-88 -129q102 -136 102 -334v-393q0 -242 -138 -385t-370 -143q-225 0 -358 133l-86 -125zM281 526q0 -77 20 -141l537 786q-92 95 -228 95q-106 0 -182.5 -53 t-111.5 -133.5t-35 -174.5v-379zM356 279q88 -123 254 -123q148 0 237 104.5t89 265.5v379q0 94 -35 172zM528 1597l303 250l121 -125l-348 -211z" />
<glyph unicode="&#x1ff;" horiz-adv-x="1052" d="M104 504q0 184 52 291q51 109 151 169t232 60q135 0 241 -72l86 121l78 -55l-94 -131l24 -33q70 -110 70 -311q0 -262 -63 -369q-52 -89 -148 -137.5t-217 -48.5q-151 0 -252 67l-76 -106l-75 57l82 115q-10 10 -15 20q-76 116 -76 363zM272 502q0 -153 31 -221v-5 l383 541q-61 55 -154 55q-75 0 -133.5 -37.5t-89.5 -105.5q-34 -71 -37 -227zM362 197q62 -56 156 -56q85 0 148.5 45t91.5 136q16 56 16 215q0 124 -26 188q-5 5 -5 8zM436 1169l148 363l166 -51l-205 -353z" />
<glyph unicode="&#x218;" horiz-adv-x="1114" d="M4 182l115 146q84 -81 198 -124.5t242 -43.5q144 0 231 61t87 187q0 47 -18.5 83.5t-45 59t-74.5 41.5t-88 28.5t-104 22.5q-174 34 -245 62q-158 64 -199 205q-17 57 -17 128q0 126 66 219t171.5 138t235.5 45q284 0 457 -137l-101 -154q-171 115 -356 115 q-141 0 -218 -59.5t-77 -166.5q0 -37 11 -66t36.5 -52t55 -39.5t80 -32t97.5 -26.5t120 -25q48 -10 80 -18t77.5 -23.5t76 -33.5t64 -48t54 -66t34 -88t13.5 -114q0 -193 -141 -305.5t-371 -112.5q-142 0 -291.5 50.5t-255.5 143.5zM461 -526l80 180h-72v227h211v-223 l-115 -184h-104z" />
<glyph unicode="&#x219;" horiz-adv-x="935" d="M39 135l102 129q143 -125 330 -125q97 0 160 41t63 117q0 72 -57.5 101.5t-175.5 41.5q-49 5 -82.5 10.5t-80.5 17t-78 30.5t-60.5 47.5t-44.5 72t-15 99.5q0 138 108 223.5t263 85.5q218 0 363 -111l-91 -135q-136 90 -272 90q-96 0 -151.5 -40.5t-55.5 -108.5 q0 -45 33 -73t90.5 -42t155.5 -24q47 -5 88.5 -15t85 -31t74.5 -51t51 -77.5t20 -106.5q0 -140 -111.5 -226.5t-287.5 -86.5q-253 0 -424 147zM365 -526l79 180h-71v227h211v-223l-115 -184h-104z" />
<glyph unicode="&#x259;" horiz-adv-x="985" d="M82 434v131h653v17q0 126 -68.5 208t-193.5 82q-52 0 -116 -26t-113 -70l-109 121q137 131 346 131q67 0 124.5 -13t115.5 -48t98.5 -91.5t66 -149.5t25.5 -214q0 -116 -26 -208t-67.5 -150t-98 -96.5t-114 -54t-118.5 -15.5q-173 0 -289 120t-116 326zM258 424 q6 -134 69.5 -205.5t168.5 -71.5q104 0 168 73t71 204h-477z" />
<glyph unicode="&#x2b9;" horiz-adv-x="552" d="M96 864l203 557l197 -49l-283 -545z" />
<glyph unicode="&#x2c6;" horiz-adv-x="1005" d="M162 1208l307 314h109l292 -310l-82 -79l-272 217l-274 -220z" />
<glyph unicode="&#x2c7;" horiz-adv-x="1005" d="M162 1446l80 78l274 -219l272 217l82 -80l-292 -309h-109z" />
<glyph unicode="&#x2d8;" horiz-adv-x="1046" d="M260 1427h150q3 -47 43.5 -88t101.5 -41q68 0 107.5 41t39.5 88h146q-3 -35 -12.5 -68.5t-31 -70t-52.5 -63.5t-82 -44.5t-115 -17.5t-116 17.5t-84 45t-54 63t-31 70t-10 68.5z" />
<glyph unicode="&#x2d9;" horiz-adv-x="1005" d="M418 1223v180h180v-180h-180z" />
<glyph unicode="&#x2da;" horiz-adv-x="1005" d="M358 1319q0 83 59 142t144 59q83 0 142 -59t59 -142t-59 -142t-142 -59q-85 0 -144 59t-59 142zM449 1319q0 -47 32.5 -80t79.5 -33t80 33t33 80q0 46 -33 79.5t-80 33.5t-79.5 -33.5t-32.5 -79.5z" />
<glyph unicode="&#x2db;" horiz-adv-x="575" d="M121 -188q0 83 78 192h118l2 -4q-65 -91 -65 -158q0 -43 26 -66.5t72 -23.5q53 0 119 27l39 -98q-76 -50 -178 -50q-94 0 -152.5 52.5t-58.5 128.5z" />
<glyph unicode="&#x2dc;" horiz-adv-x="1005" d="M143 1249q41 86 100.5 134.5t121.5 48.5q52 0 146.5 -48.5t127.5 -48.5q65 0 125 92l106 -59q-86 -182 -219 -182q-51 0 -142.5 43t-129.5 43q-35 0 -62.5 -18t-66.5 -64z" />
<glyph unicode="&#x2dd;" horiz-adv-x="1153" d="M313 1169l148 363l166 -51l-205 -353zM580 1169l147 363l166 -51l-205 -353z" />
<glyph unicode="&#x384;" horiz-adv-x="1005" d="M395 1169l148 363l166 -51l-205 -353z" />
<glyph unicode="&#x385;" horiz-adv-x="800" d="M14 1206v183h179v-183h-179zM260 1169l148 363l165 -51l-204 -353zM598 1206v183h178v-183h-178z" />
<glyph unicode="&#x386;" horiz-adv-x="1224" d="M-74 1128l148 363l166 -51l-205 -353zM12 0l523 1425h155l522 -1425h-190l-115 328h-592l-114 -328h-189zM367 483h489l-137 400l-105 303h-6l-100 -295z" />
<glyph unicode="&#x387;" horiz-adv-x="487" d="M131 584v227h211v-227h-211z" />
<glyph unicode="&#x388;" horiz-adv-x="1112" d="M-266 1128l147 363l166 -51l-205 -353zM156 0v1425h901v-165h-721v-461h614v-158h-614v-475h721v-166h-901z" />
<glyph unicode="&#x389;" horiz-adv-x="1302" d="M-252 1128l148 363l165 -51l-204 -353zM156 0v1425h180v-626h631v626h180v-1425h-180v641h-631v-641h-180z" />
<glyph unicode="&#x38a;" horiz-adv-x="493" d="M-256 1128l147 363l166 -51l-204 -353zM156 0v1425h180v-1425h-180z" />
<glyph unicode="&#x38c;" horiz-adv-x="1218" d="M-219 1128l147 363l166 -51l-205 -353zM102 516v393q0 107 32 200.5t93 167t159 116.5t222 43q231 0 369.5 -148t138.5 -379v-393q0 -242 -138 -385t-370 -143q-124 0 -222 42t-159 115.5t-93 167.5t-32 203zM281 526q0 -97 35 -179.5t111.5 -136.5t182.5 -54 q148 0 237 104.5t89 265.5v379q0 154 -89 257.5t-237 103.5q-106 0 -182.5 -53t-111.5 -133.5t-35 -174.5v-379z" />
<glyph unicode="&#x38e;" horiz-adv-x="1040" d="M-371 1128l148 363l166 -51l-205 -353zM4 1425h191l198 -395l127 -272l133 284l193 383h186l-428 -860v-565h-172v565z" />
<glyph unicode="&#x38f;" horiz-adv-x="1187" d="M-219 1128l147 363l166 -51l-205 -353zM55 0v166h181q-81 50 -116.5 157t-35.5 240v348q0 107 32 200.5t93 167t159 116.5t222 43q231 0 369.5 -148t138.5 -379v-348q0 -283 -152 -397h182v-166h-419v195q99 35 154 131.5t55 226.5v354q0 157 -85.5 261t-240.5 104 q-84 0 -149.5 -31t-103.5 -83.5t-57.5 -116t-19.5 -134.5v-354q0 -120 55.5 -218.5t159.5 -139.5l-2 -195h-420z" />
<glyph unicode="&#x390;" horiz-adv-x="460" d="M-139 1206v183h178v-183h-178zM106 1169l148 363l166 -51l-205 -353zM139 227v785h168v-776q0 -63 16.5 -78t75.5 -15l-4 -143q-20 -2 -43 -2q-121 0 -167 51t-46 178zM444 1206v183h179v-183h-179z" />
<glyph unicode="&#x391;" horiz-adv-x="1224" d="M12 0l523 1425h155l522 -1425h-190l-115 328h-592l-114 -328h-189zM367 483h489l-137 400l-105 303h-6l-100 -295z" />
<glyph unicode="&#x392;" horiz-adv-x="1224" d="M156 0v1425h538q202 0 311 -101.5t109 -270.5q0 -96 -53.5 -185t-161.5 -127v-6q79 -19 137 -74t84.5 -124t26.5 -142q0 -176 -114.5 -285.5t-278.5 -109.5h-598zM336 166h366q128 0 196.5 70.5t68.5 173.5q0 102 -68.5 171.5t-196.5 69.5h-366v-485zM336 807h336 q126 0 194 65t68 166q0 100 -68.5 165t-193.5 65h-336v-461z" />
<glyph unicode="&#x393;" horiz-adv-x="1073" d="M156 0v1425h901v-165h-721v-1260h-180z" />
<glyph unicode="&#x394;" horiz-adv-x="1224" d="M12 0l523 1425h155l522 -1425h-1200zM256 158h711l-246 719l-107 329h-6l-106 -332z" />
<glyph unicode="&#x395;" horiz-adv-x="1112" d="M156 0v1425h901v-165h-721v-461h614v-158h-614v-475h721v-166h-901z" />
<glyph unicode="&#x396;" horiz-adv-x="1034" d="M68 0v158l694 1110h-668v157h875v-143l-699 -1116h699v-166h-901z" />
<glyph unicode="&#x397;" horiz-adv-x="1302" d="M156 0v1425h180v-626h631v626h180v-1425h-180v641h-631v-641h-180z" />
<glyph unicode="&#x398;" horiz-adv-x="1187" d="M86 516v393q0 107 32 200.5t93 167t159 116.5t222 43q231 0 369.5 -148t138.5 -379v-393q0 -242 -138 -385t-370 -143q-124 0 -222 42t-159 115.5t-93 167.5t-32 203zM264 530q0 -97 35.5 -179.5t112 -136.5t182.5 -54q148 0 237 104.5t89 265.5v371q0 154 -89 257.5 t-237 103.5q-80 0 -144.5 -30.5t-104 -82t-60.5 -115t-21 -133.5v-371zM332 651v154h524v-154h-524z" />
<glyph unicode="&#x399;" horiz-adv-x="493" d="M156 0v1425h180v-1425h-180z" />
<glyph unicode="&#x39a;" horiz-adv-x="1265" d="M156 0v1425h182v-772l6 2l262 320l375 450h209l-465 -561l528 -864h-209l-434 723l-274 -330v-393h-180z" />
<glyph unicode="&#x39b;" horiz-adv-x="1224" d="M12 0l523 1425h155l522 -1425h-190l-125 360q-191 539 -283 807h-6q-101 -296 -186 -539t-94 -268l-127 -360h-189z" />
<glyph unicode="&#x39c;" horiz-adv-x="1531" d="M156 0v1425h180l301 -665l141 -332h6l142 330l297 667h176v-1425h-180v1016l-7 -4l-110 -269l-246 -532h-158l-249 549l-107 256l-6 -4v-1012h-180z" />
<glyph unicode="&#x39d;" horiz-adv-x="1378" d="M156 0v1425h178l502 -776l206 -342l7 4v1114h178v-1425h-176l-521 803l-188 311l-6 -2v-1112h-180z" />
<glyph unicode="&#x39e;" horiz-adv-x="1163" d="M117 0v166h921v-166h-921zM117 1260v165h921v-165h-921zM227 641v158h701v-158h-701z" />
<glyph unicode="&#x39f;" horiz-adv-x="1218" d="M102 516v393q0 107 32 200.5t93 167t159 116.5t222 43q231 0 369.5 -148t138.5 -379v-393q0 -242 -138 -385t-370 -143q-124 0 -222 42t-159 115.5t-93 167.5t-32 203zM281 526q0 -97 35 -179.5t111.5 -136.5t182.5 -54q148 0 237 104.5t89 265.5v379q0 154 -89 257.5 t-237 103.5q-106 0 -182.5 -53t-111.5 -133.5t-35 -174.5v-379z" />
<glyph unicode="&#x3a0;" horiz-adv-x="1302" d="M156 0v1425h991v-1425h-180v1268h-631v-1268h-180z" />
<glyph unicode="&#x3a1;" horiz-adv-x="1189" d="M156 0v1425h522q92 0 174 -25t149.5 -75t107.5 -135.5t40 -196.5q0 -76 -30 -150t-84.5 -134.5t-140.5 -98t-187 -37.5h-371v-573h-180zM336 739h354q128 0 199.5 78.5t71.5 181.5q0 126 -77 193.5t-202 67.5h-346v-521z" />
<glyph unicode="&#x3a3;" horiz-adv-x="1034" d="M68 0v158l344 575l-342 549v143h874v-157h-663l342 -535l-347 -567h693v-166h-901z" />
<glyph unicode="&#x3a4;" horiz-adv-x="995" d="M2 1268v157h991v-157h-405v-1268h-180v1268h-406z" />
<glyph unicode="&#x3a5;" horiz-adv-x="1040" d="M4 1425h191l198 -395l127 -272l133 284l193 383h186l-428 -860v-565h-172v565z" />
<glyph unicode="&#x3a6;" horiz-adv-x="1499" d="M78 727q0 174 64.5 310.5t197 222.5t317.5 98v67h179v-67q152 -7 265.5 -57t181.5 -135.5t101 -194.5t33 -244q0 -264 -151.5 -432.5t-429.5 -181.5v-113h-179v113q-273 17 -426 181.5t-153 432.5zM254 727q0 -197 108 -321.5t295 -141.5v948q-103 -5 -182.5 -47.5 t-126.5 -111.5t-70.5 -151.5t-23.5 -174.5zM836 264q192 3 298.5 134t106.5 329q0 212 -101.5 344.5t-303.5 138.5v-946z" />
<glyph unicode="&#x3a7;" horiz-adv-x="1071" d="M-2 0l438 731l-409 694h200l308 -555l309 555h200l-409 -694l438 -731h-201l-337 592l-336 -592h-201z" />
<glyph unicode="&#x3a8;" horiz-adv-x="1486" d="M127 803v622h180v-598q0 -160 95 -258.5t251 -103.5v960h181v-960q155 2 250.5 93t95.5 249v618h180v-643q0 -214 -146.5 -346t-379.5 -143v-293h-181v295q-236 6 -381 143t-145 365z" />
<glyph unicode="&#x3a9;" horiz-adv-x="1187" d="M55 0v166h181q-81 50 -116.5 157t-35.5 240v348q0 107 32 200.5t93 167t159 116.5t222 43q231 0 369.5 -148t138.5 -379v-348q0 -283 -152 -397h182v-166h-419v195q99 35 154 131.5t55 226.5v354q0 157 -85.5 261t-240.5 104q-84 0 -149.5 -31t-103.5 -83.5t-57.5 -116 t-19.5 -134.5v-354q0 -120 55.5 -218.5t159.5 -139.5l-2 -195h-420z" />
<glyph unicode="&#x3aa;" horiz-adv-x="493" d="M-29 1577v180h181v-180h-181zM156 0v1425h180v-1425h-180zM340 1577v180h180v-180h-180z" />
<glyph unicode="&#x3ab;" horiz-adv-x="1040" d="M4 1425h191l198 -395l127 -272l133 284l193 383h186l-428 -860v-565h-172v565zM244 1577v180h180v-180h-180zM612 1577v180h181v-180h-181z" />
<glyph unicode="&#x3ac;" horiz-adv-x="1034" d="M98 500q0 86 10.5 159.5t38 142t70 116.5t110.5 77t156 29q170 0 254 -123l4 2v111h168v-1014h-168v113l-4 2q-116 -127 -276 -127q-363 0 -363 512zM272 506q0 -56 4.5 -100t19 -93t39 -81.5t69 -54t104.5 -21.5q233 0 233 350q0 53 -4 95.5t-18 93t-38.5 85t-68.5 57.5 t-104 23q-51 0 -91 -14.5t-65 -42.5t-41.5 -60t-24.5 -75.5t-11 -80t-3 -81.5zM406 1169l147 363l166 -51l-205 -353z" />
<glyph unicode="&#x3ad;" horiz-adv-x="901" d="M100 291q0 27 8 58t25 66.5t50 66.5t77 48v5q-143 55 -143 200q0 121 96 206t272 85q105 0 199 -33.5t158 -95.5l-105 -127q-38 39 -107.5 64.5t-135.5 25.5q-97 0 -153 -39.5t-56 -97.5q0 -52 39 -84.5t122 -32.5h172v-149h-165q-85 0 -136 -43.5t-51 -110.5t64 -110 t172 -43q66 0 142 29.5t116 72.5l106 -121q-69 -64 -171.5 -101.5t-207.5 -37.5q-176 0 -281.5 80.5t-105.5 218.5zM395 1169l148 363l166 -51l-205 -353z" />
<glyph unicode="&#x3ae;" horiz-adv-x="1073" d="M133 0v1018h168v-129h6q52 66 126.5 101.5t156.5 35.5q153 0 250.5 -91t97.5 -261v-674h-168v608q0 125 -52 188.5t-179 63.5q-103 0 -170.5 -68.5t-67.5 -183.5v-608h-168zM395 1169l148 363l166 -51l-205 -353z" />
<glyph unicode="&#x3af;" horiz-adv-x="460" d="M139 227v785h168v-776q0 -63 16.5 -78t75.5 -15l-4 -143q-20 -2 -43 -2q-121 0 -167 51t-46 178zM158 1169l147 363l166 -51l-205 -353z" />
<glyph unicode="&#x3b0;" horiz-adv-x="1083" d="M139 354v662h168v-610q0 -115 66.5 -185.5t169.5 -70.5t169 70.5t66 185.5v610h168v-662q0 -162 -113 -264t-292 -102t-290.5 102t-111.5 264zM160 1206v183h178v-183h-178zM406 1169l147 363l166 -51l-205 -353zM743 1206v183h179v-183h-179z" />
<glyph unicode="&#x3b1;" horiz-adv-x="1034" d="M98 500q0 86 10.5 159.5t38 142t70 116.5t110.5 77t156 29q170 0 254 -123l4 2v111h168v-1014h-168v113l-4 2q-116 -127 -276 -127q-363 0 -363 512zM272 506q0 -56 4.5 -100t19 -93t39 -81.5t69 -54t104.5 -21.5q233 0 233 350q0 53 -4 95.5t-18 93t-38.5 85t-68.5 57.5 t-104 23q-51 0 -91 -14.5t-65 -42.5t-41.5 -60t-24.5 -75.5t-11 -80t-3 -81.5z" />
<glyph unicode="&#x3b2;" horiz-adv-x="1058" d="M135 -297v1389q0 186 101 292.5t286 106.5q81 0 146.5 -24t106 -61.5t68.5 -85.5t39 -93t11 -88q0 -200 -139 -289q200 -39 200 -373q-1 -79 -11 -146t-36 -132t-67 -110.5t-106.5 -73t-151.5 -27.5q-171 0 -275 123l-4 -2v-406h-168zM303 502q0 -361 238 -361 q240 0 235 361q-1 41 -6 76t-18.5 72.5t-34.5 63.5t-56.5 43t-82.5 17h-164v146h135q49 0 84.5 19t54 51t27 64.5t8.5 67.5q0 37 -11 73.5t-33.5 71.5t-64 57t-96.5 22q-62 0 -106.5 -22.5t-67 -60.5t-32 -78t-9.5 -85v-598z" />
<glyph unicode="&#x3b3;" horiz-adv-x="921" d="M10 1006q58 18 103 18q65 0 104 -36.5t66 -106.5q91 -247 186 -574h12l56.5 169.5t67.5 200t56.5 157.5t69.5 182h180q-204 -513 -356 -967v-459h-168v428q-110 384 -250 750q-28 71 -41.5 83.5t-62.5 12.5h-8z" />
<glyph unicode="&#x3b4;" horiz-adv-x="1005" d="M80 498q0 174 49 280q31 68 84 123t125 80q-71 38 -112.5 97t-41.5 132q0 132 99.5 207.5t246.5 75.5q172 0 324 -82l-74 -145q-128 71 -252 71q-77 0 -125.5 -33.5t-48.5 -80.5q0 -52 58 -97t172 -98q196 -92 256 -184q80 -124 80 -350q0 -200 -68 -316 q-55 -95 -149 -142.5t-207 -47.5q-229 0 -334 153q-82 122 -82 357zM248 496q0 -154 33 -226q60 -129 219 -129q85 0 146.5 45t88.5 136q15 52 15 176q0 141 -31 215q-30 73 -80.5 114.5t-132.5 63.5q-84 -7 -146 -54.5t-86 -115.5q-26 -71 -26 -225z" />
<glyph unicode="&#x3b5;" horiz-adv-x="901" d="M100 291q0 27 8 58t25 66.5t50 66.5t77 48v5q-143 55 -143 200q0 121 96 206t272 85q105 0 199 -33.5t158 -95.5l-105 -127q-38 39 -107.5 64.5t-135.5 25.5q-97 0 -153 -39.5t-56 -97.5q0 -52 39 -84.5t122 -32.5h172v-149h-165q-85 0 -136 -43.5t-51 -110.5t64 -110 t172 -43q66 0 142 29.5t116 72.5l106 -121q-69 -64 -171.5 -101.5t-207.5 -37.5q-176 0 -281.5 80.5t-105.5 218.5z" />
<glyph unicode="&#x3b6;" horiz-adv-x="815" d="M70 436q0 177 162 419.5t440 453.5h-527v147h758v-139q-122 -94 -236.5 -206t-209 -229.5t-152 -234.5t-57.5 -207q0 -98 50.5 -155t143.5 -95l236 -94q97 -38 130.5 -81t33.5 -105q0 -28 -10.5 -60t-35.5 -72t-39.5 -61.5t-50 -68t-38.5 -51.5l-131 71l84 142 q22 44 22 69q0 24 -21.5 42.5t-70.5 37.5l-191 74q-135 52 -212.5 154t-77.5 249z" />
<glyph unicode="&#x3b7;" horiz-adv-x="1073" d="M133 0v1018h168v-129h6q52 66 126.5 101.5t156.5 35.5q153 0 250.5 -91t97.5 -261v-674h-168v608q0 125 -52 188.5t-179 63.5q-103 0 -170.5 -68.5t-67.5 -183.5v-608h-168z" />
<glyph unicode="&#x3b8;" horiz-adv-x="1048" d="M102 758q0 179 23.5 315t50.5 191q109 233 365 233q108 0 190.5 -45.5t128.5 -128.5q86 -144 86 -539q0 -437 -86 -602q-44 -88 -134.5 -141t-207.5 -53q-219 0 -328 159q-88 134 -88 611zM262 717q-6 -301 39 -430q49 -146 223 -146q179 0 228 187l4 18q4 17 5.5 23.5 t6 29.5t5.5 35.5t5.5 42.5t5 49t3.5 56t1.5 63.5t-0.5 71.5h-526zM262 864h526q0 59 -3 108t-9 86.5t-10 57.5t-12 47.5t-9 30.5q-20 70 -78 111t-135 41q-74 0 -130 -38t-87 -106q-23 -48 -36 -118t-17 -220z" />
<glyph unicode="&#x3b9;" horiz-adv-x="460" d="M139 227v785h168v-776q0 -63 16.5 -78t75.5 -15l-4 -143q-20 -2 -43 -2q-121 0 -167 51t-46 178z" />
<glyph unicode="&#x3ba;" horiz-adv-x="1036" d="M139 0v1016h168v-490h6l439 490h198l-346 -383l418 -633h-195l-335 510l-185 -203v-307h-168z" />
<glyph unicode="&#x3bb;" horiz-adv-x="929" d="M6 0l377 1008l-66 219q-16 57 -42 81.5t-87 24.5q-29 0 -45 -2l-10 152q59 12 105 12q93 0 147 -49t88 -152l346 -1048q13 -40 19 -54.5t18.5 -30t29 -19t46.5 -3.5l6 -141q-44 -10 -92 -10q-62 0 -100 28.5t-60 92.5l-127 372l-90 285h-6l-113 -338l-157 -428h-187z" />
<glyph unicode="&#x3bc;" horiz-adv-x="1069" d="M139 -410v1426h168v-610q0 -123 54.5 -186.5t181.5 -63.5q102 0 167.5 67.5t65.5 182.5v610h168v-1016h-168v115h-6q-49 -63 -123.5 -95t-157.5 -32q-97 0 -176 55l-6 -2v-451h-168z" />
<glyph unicode="&#x3bd;" horiz-adv-x="913" d="M10 1016h178l150 -424l117 -352h6l114 350l148 426h180l-375 -1016h-143z" />
<glyph unicode="&#x3be;" horiz-adv-x="845" d="M74 430q0 40 12 88t37 102t73 105t111 84q-53 21 -92.5 59.5t-59.5 83.5t-29 85t-9 75q0 167 119 275t303 108q202 0 344 -90l-80 -148q-126 74 -254 74q-117 0 -185.5 -64.5t-68.5 -158.5q0 -93 83 -159t189 -66h187v-146h-234q-79 0 -140.5 -45t-91.5 -111.5 t-30 -140.5q0 -99 54.5 -163.5t144.5 -96.5q223 -77 283 -109q84 -44 104 -104q8 -25 8 -59q0 -115 -152 -311l-133 67l76 143q19 43 19 54q0 52 -87 82l-208 77q-66 25 -115 56t-91.5 78.5t-64.5 117t-22 158.5z" />
<glyph unicode="&#x3bf;" horiz-adv-x="1052" d="M104 504q0 184 52 291q51 109 151 169t232 60q109 0 195.5 -44t139.5 -126q70 -110 70 -311q0 -262 -63 -369q-52 -89 -148 -137.5t-217 -48.5q-110 0 -197 39t-139 114q-76 116 -76 363zM272 502q0 -153 31 -221q30 -67 85.5 -103.5t129.5 -36.5q85 0 148.5 45t91.5 136 q16 56 16 215q0 124 -26 188q-28 73 -85 110t-131 37q-75 0 -133.5 -37.5t-89.5 -105.5q-34 -71 -37 -227z" />
<glyph unicode="&#x3c0;" horiz-adv-x="1083" d="M139 0v1016h805v-1016h-168v868h-469v-868h-168z" />
<glyph unicode="&#x3c1;" horiz-adv-x="1050" d="M119 -410v914q0 87 12.5 167.5t32.5 123.5q50 110 145 169.5t226 59.5q109 0 196 -43t141 -125q74 -114 74 -356q0 -208 -67 -322q-55 -95 -146.5 -142.5t-204.5 -47.5q-77 0 -132.5 28t-104.5 86l-4 -6v-506h-168zM283 502q0 -155 30 -221q62 -140 207 -140 q85 0 147.5 45t90.5 136q18 55 18 182q3 147 -28 221q-28 73 -85.5 110t-132.5 37q-145 0 -213 -143q-30 -69 -34 -227z" />
<glyph unicode="&#x3c2;" horiz-adv-x="880" d="M111 485q0 111 25.5 202.5t69.5 153t103 104t124.5 62t135.5 19.5q212 0 351 -133l-109 -131q-99 96 -221 96q-143 0 -223 -90.5t-80 -269.5q0 -113 42.5 -187.5t141.5 -115.5l234 -97q153 -62 153 -186q0 -111 -147 -281l-129 74q42 62 57 96q25 52 25 76 q0 27 -22.5 46.5t-70.5 39.5q-188 72 -252 109q-121 68 -167 173q-41 93 -41 240z" />
<glyph unicode="&#x3c3;" horiz-adv-x="1038" d="M90 500q0 239 106.5 377.5t311.5 138.5h475v-150l-178 2v-6q59 -43 87 -126.5t28 -235.5q0 -252 -110.5 -382t-307.5 -130q-412 0 -412 512zM258 504q0 -170 62.5 -264.5t185.5 -94.5q116 0 180 90.5t64 262.5q0 175 -64 266.5t-180 91.5q-122 0 -185 -95t-63 -257z" />
<glyph unicode="&#x3c4;" horiz-adv-x="751" d="M35 866v150h665v-150h-264v-587q0 -123 101 -123h112v-156h-145q-106 0 -171 62.5t-65 175.5v628h-233z" />
<glyph unicode="&#x3c5;" horiz-adv-x="1083" d="M139 354v662h168v-610q0 -115 66.5 -185.5t169.5 -70.5t169 70.5t66 185.5v610h168v-662q0 -162 -113 -264t-292 -102t-290.5 102t-111.5 264z" />
<glyph unicode="&#x3c6;" horiz-adv-x="1226" d="M86 504q0 72 7.5 133t27.5 122t51.5 107.5t83 83.5t119.5 56l49 -146q-45 -17 -77 -45t-49.5 -60t-27.5 -77t-13 -83.5t-3 -92.5q0 -149 33 -221q30 -65 96.5 -103.5t142.5 -38.5v887h181q113 0 209.5 -42.5t148.5 -121.5q80 -124 80 -356q0 -212 -68 -328 q-47 -81 -145.5 -132t-235.5 -58v-396h-170v396q-117 3 -212.5 41.5t-145.5 111.5q-82 122 -82 363zM696 141q89 0 164 46.5t101 134.5q14 49 14 188q0 147 -31 221q-29 70 -98.5 105.5t-149.5 35.5v-731z" />
<glyph unicode="&#x3c7;" horiz-adv-x="948" d="M33 0l346 520l-330 496h201l225 -381l225 381h203l-332 -498l347 -518h-203l-240 395l-239 -395h-203z" />
<glyph unicode="&#x3c8;" horiz-adv-x="1280" d="M133 360v656h168v-606q0 -116 69.5 -187t184.5 -76v908h168v-908q118 5 190 75t72 188v606h168v-647q0 -111 -60.5 -197t-157 -132t-212.5 -52v-396h-168v396q-177 9 -299.5 112t-122.5 260z" />
<glyph unicode="&#x3c9;" horiz-adv-x="1540" d="M90 504q0 235 88.5 371.5t276.5 148.5l18 -158q-211 -23 -211 -364q0 -164 52.5 -259.5t158.5 -95.5q101 0 156 68t55 184v379h168v-379q0 -116 59 -182.5t166 -66.5q106 0 158.5 95t52.5 259q0 336 -207 362l25 158q354 -22 354 -518q0 -516 -387 -516q-189 0 -299 151 q-63 -76 -134.5 -114.5t-162.5 -38.5q-387 0 -387 516z" />
<glyph unicode="&#x3ca;" horiz-adv-x="460" d="M-68 1223v180h181v-180h-181zM139 227v785h168v-776q0 -63 16.5 -78t75.5 -15l-4 -143q-20 -2 -43 -2q-121 0 -167 51t-46 178zM301 1223v180h180v-180h-180z" />
<glyph unicode="&#x3cb;" horiz-adv-x="1083" d="M139 354v662h168v-610q0 -115 66.5 -185.5t169.5 -70.5t169 70.5t66 185.5v610h168v-662q0 -162 -113 -264t-292 -102t-290.5 102t-111.5 264zM262 1223v180h180v-180h-180zM631 1223v180h180v-180h-180z" />
<glyph unicode="&#x3cc;" horiz-adv-x="1052" d="M104 504q0 184 52 291q51 109 151 169t232 60q109 0 195.5 -44t139.5 -126q70 -110 70 -311q0 -262 -63 -369q-52 -89 -148 -137.5t-217 -48.5q-110 0 -197 39t-139 114q-76 116 -76 363zM272 502q0 -153 31 -221q30 -67 85.5 -103.5t129.5 -36.5q85 0 148.5 45t91.5 136 q16 56 16 215q0 124 -26 188q-28 73 -85 110t-131 37q-75 0 -133.5 -37.5t-89.5 -105.5q-34 -71 -37 -227zM424 1169l147 363l166 -51l-205 -353z" />
<glyph unicode="&#x3cd;" horiz-adv-x="1083" d="M139 354v662h168v-610q0 -115 66.5 -185.5t169.5 -70.5t169 70.5t66 185.5v610h168v-662q0 -162 -113 -264t-292 -102t-290.5 102t-111.5 264zM436 1169l148 363l166 -51l-205 -353z" />
<glyph unicode="&#x3ce;" horiz-adv-x="1540" d="M90 504q0 235 88.5 371.5t276.5 148.5l18 -158q-211 -23 -211 -364q0 -164 52.5 -259.5t158.5 -95.5q101 0 156 68t55 184v379h168v-379q0 -116 59 -182.5t166 -66.5q106 0 158.5 95t52.5 259q0 336 -207 362l25 158q354 -22 354 -518q0 -516 -387 -516q-189 0 -299 151 q-63 -76 -134.5 -114.5t-162.5 -38.5q-387 0 -387 516zM676 1169l147 363l166 -51l-205 -353z" />
<glyph unicode="&#x401;" horiz-adv-x="1112" d="M156 0v1425h901v-165h-721v-461h614v-158h-614v-475h721v-166h-901zM336 1577v180h180v-180h-180zM705 1577v180h180v-180h-180z" />
<glyph unicode="&#x402;" horiz-adv-x="1445" d="M2 1268v157h1124v-157h-538v-432h4q64 59 154 92t186 33q85 0 160 -27.5t137.5 -83t99.5 -151t37 -218.5q0 -112 -29 -205.5t-86.5 -165.5t-152 -112.5t-217.5 -40.5q-20 0 -70 4v145h37q165 0 250.5 90.5t85.5 268.5q0 161 -81 244.5t-204 83.5q-79 0 -161 -38.5 t-150 -107.5v-647h-180v1268h-406z" />
<glyph unicode="&#x403;" horiz-adv-x="1073" d="M156 0v1425h901v-165h-721v-1260h-180zM449 1597l303 250l120 -125l-348 -211z" />
<glyph unicode="&#x404;" horiz-adv-x="1112" d="M106 516v393q0 107 32 200.5t93 167t159 116.5t222 43q168 0 289 -80.5t178 -220.5l-168 -76q-36 93 -113.5 148t-183.5 55t-182.5 -53t-111.5 -133.5t-35 -174.5v-102h491v-158h-491v-111q0 -97 35 -179.5t111.5 -136.5t182.5 -54t184.5 57.5t114.5 155.5l168 -82 q-54 -144 -176.5 -223.5t-292.5 -79.5q-124 0 -222 42t-159 115.5t-93 167.5t-32 203z" />
<glyph unicode="&#x405;" horiz-adv-x="1114" d="M4 182l115 146q84 -81 198 -124.5t242 -43.5q144 0 231 61t87 187q0 47 -18.5 83.5t-45 59t-74.5 41.5t-88 28.5t-104 22.5q-174 34 -245 62q-158 64 -199 205q-17 57 -17 128q0 126 66 219t171.5 138t235.5 45q284 0 457 -137l-101 -154q-171 115 -356 115 q-141 0 -218 -59.5t-77 -166.5q0 -37 11 -66t36.5 -52t55 -39.5t80 -32t97.5 -26.5t120 -25q48 -10 80 -18t77.5 -23.5t76 -33.5t64 -48t54 -66t34 -88t13.5 -114q0 -193 -141 -305.5t-371 -112.5q-142 0 -291.5 50.5t-255.5 143.5z" />
<glyph unicode="&#x406;" horiz-adv-x="493" d="M156 0v1425h180v-1425h-180z" />
<glyph unicode="&#x407;" horiz-adv-x="493" d="M-29 1589v180h181v-180h-181zM156 0v1425h180v-1425h-180zM340 1589v180h180v-180h-180z" />
<glyph unicode="&#x408;" horiz-adv-x="956" d="M29 135l118 133q41 -41 107.5 -75.5t120.5 -34.5q56 0 99.5 12.5t82 44t59.5 92.5t21 150v968h180v-970q0 -127 -33.5 -219.5t-94.5 -145.5t-137 -77.5t-171 -24.5q-105 0 -198.5 40t-153.5 107z" />
<glyph unicode="&#x409;" horiz-adv-x="1875" d="M20 125q106 39 146 67q88 61 115 205q16 83 16 203v825h733v-616h371q102 0 187 -33t140 -88t85 -125t30 -145q0 -103 -40 -185t-107.5 -131.5t-150 -75.5t-173.5 -26h-522v1268h-377v-678q0 -110 -13.5 -199t-41 -152.5t-62 -110t-82 -77t-96.5 -49t-110 -29.5z M1030 166h346q123 0 201 66t78 182q0 97 -71 167t-200 70h-354v-485z" />
<glyph unicode="&#x40a;" horiz-adv-x="1918" d="M156 0v1425h180v-616h557v616h180v-616h348q209 0 337 -110t128 -285q0 -105 -39.5 -186.5t-106 -130t-148.5 -73t-173 -24.5h-526v643h-557v-643h-180zM1073 166h346q126 0 202.5 61t76.5 181q0 96 -74.5 165.5t-204.5 69.5h-346v-477z" />
<glyph unicode="&#x40b;" horiz-adv-x="1488" d="M2 1268v157h1124v-157h-538v-428h4q168 127 366 127q112 0 199 -38t141 -122t54 -205v-602h-178v539q0 131 -58.5 196.5t-193.5 65.5q-160 0 -334 -142v-659h-180v1268h-406z" />
<glyph unicode="&#x40c;" horiz-adv-x="1183" d="M145 0v1421h181v-618h231q31 0 56.5 3.5t56.5 16.5t56 35t49.5 61t41.5 93l131 409h178l-129 -415q-33 -106 -84.5 -176t-117.5 -93q84 -26 134.5 -96t84.5 -184l137 -457h-195l-125 428q-20 69 -48.5 114.5t-64.5 67.5t-70.5 30.5t-80.5 8.5h-241v-649h-181zM455 1597 l303 250l121 -125l-349 -211z" />
<glyph unicode="&#x40e;" horiz-adv-x="1120" d="M55 1423h195l182 -516l150 -391h8l139 393l182 518h187l-445 -1187q-30 -80 -64.5 -132.5t-74.5 -80.5t-81.5 -39t-94.5 -11h-117v168h80q58 0 95 22.5t69 88.5l16 47zM297 1729h149q3 -47 44 -88.5t102 -41.5q68 0 107.5 41.5t39.5 88.5h146q-3 -35 -12.5 -68.5 t-31 -70.5t-52.5 -64t-82 -44.5t-115 -17.5q-79 0 -139 26t-92 67.5t-47.5 84.5t-16.5 87z" />
<glyph unicode="&#x40f;" horiz-adv-x="1302" d="M156 0v1425h180v-1259h631v1259h180v-1425h-397v-334h-197v334h-397z" />
<glyph unicode="&#x410;" horiz-adv-x="1224" d="M12 0l523 1425h155l522 -1425h-190l-115 328h-592l-114 -328h-189zM367 483h489l-137 400l-105 303h-6l-100 -295z" />
<glyph unicode="&#x411;" horiz-adv-x="1220" d="M156 0v1425h862v-165h-682v-451h348q216 0 340.5 -109t124.5 -286q0 -105 -39.5 -186.5t-106 -130t-148.5 -73t-173 -24.5h-526zM336 166h346q126 0 202.5 61t76.5 181q0 98 -71.5 166.5t-207.5 68.5h-346v-477z" />
<glyph unicode="&#x412;" horiz-adv-x="1224" d="M156 0v1425h538q202 0 311 -101.5t109 -270.5q0 -96 -53.5 -185t-161.5 -127v-6q79 -19 137 -74t84.5 -124t26.5 -142q0 -176 -114.5 -285.5t-278.5 -109.5h-598zM336 166h366q128 0 196.5 70.5t68.5 173.5q0 102 -68.5 171.5t-196.5 69.5h-366v-485zM336 807h336 q126 0 194 65t68 166q0 100 -68.5 165t-193.5 65h-336v-461z" />
<glyph unicode="&#x413;" horiz-adv-x="1073" d="M156 0v1425h901v-165h-721v-1260h-180z" />
<glyph unicode="&#x414;" horiz-adv-x="1449" d="M41 135l111 25q27 18 48 38.5t38 41.5t30 52.5t22 58t16 70.5t11.5 78.5t8 95t5.5 106.5t5 124l18 600h912l2 -1267h131v-463h-176v305h-1004v-305h-178v440zM391 158h694v1110h-565l-14 -434q-6 -154 -10.5 -231t-16 -175.5t-33 -160t-55.5 -109.5z" />
<glyph unicode="&#x415;" horiz-adv-x="1112" d="M156 0v1425h901v-165h-721v-461h614v-158h-614v-475h721v-166h-901z" />
<glyph unicode="&#x416;" horiz-adv-x="1853" d="M41 0l137 457q34 114 84.5 184t134.5 96q-67 23 -120 93.5t-82 175.5l-129 415h178l131 -409q16 -54 40 -93.5t49 -61.5t57 -34.5t57.5 -16t56.5 -3.5h201v624h182v-624h201q31 0 56.5 3.5t57.5 16t57 34.5t49 61.5t40 93.5l131 409h178l-129 -415q-29 -105 -82.5 -175.5 t-120.5 -93.5q84 -26 134.5 -96t84.5 -184l137 -457h-194l-125 428q-41 130 -105.5 175.5t-158.5 45.5h-211v-649h-182v649h-211q-94 0 -159 -45.5t-106 -175.5l-124 -428h-195z" />
<glyph unicode="&#x417;" horiz-adv-x="1134" d="M23 291l167 82q35 -94 135 -156.5t210 -62.5q144 0 232.5 70.5t88.5 191.5q0 122 -72.5 192t-208.5 70h-151v160h147q119 0 192 61.5t73 161.5q0 90 -76.5 145.5t-198.5 55.5q-110 0 -201 -54.5t-135 -148.5l-168 76q56 139 188 219t314 80q227 0 344 -101.5t117 -263.5 q0 -88 -52.5 -178t-152.5 -127v-10q67 -22 114.5 -62.5t71 -89.5t33.5 -93.5t10 -90.5q0 -186 -140.5 -307t-375.5 -121q-181 0 -316 79.5t-189 221.5z" />
<glyph unicode="&#x418;" horiz-adv-x="1378" d="M154 0v1425h178v-1122l6 -4l735 1126h152v-1425h-181v1071l-6 2l-708 -1073h-176z" />
<glyph unicode="&#x419;" horiz-adv-x="1378" d="M154 0v1425h178v-1122l6 -4l735 1126h152v-1425h-181v1071l-6 2l-708 -1073h-176zM389 1737h150q3 -47 43.5 -88t101.5 -41q68 0 107.5 41t39.5 88h146q-3 -35 -12.5 -68.5t-31 -70t-52.5 -63.5t-82 -44.5t-115 -17.5t-116 17.5t-84 45t-54 63t-31 70t-10 68.5z" />
<glyph unicode="&#x41a;" horiz-adv-x="1183" d="M145 0v1421h181v-618h231q31 0 56.5 3.5t56.5 16.5t56 35t49.5 61t41.5 93l131 409h178l-129 -415q-33 -106 -84.5 -176t-117.5 -93q84 -26 134.5 -96t84.5 -184l137 -457h-195l-125 428q-20 69 -48.5 114.5t-64.5 67.5t-70.5 30.5t-80.5 8.5h-241v-649h-181z" />
<glyph unicode="&#x41b;" horiz-adv-x="1333" d="M10 125q108 39 150 70q89 66 114 220q13 78 13 185v825h882v-1425h-180v1268h-526v-678q0 -132 -21 -233t-55.5 -166.5t-88 -111t-110.5 -69t-131 -37.5z" />
<glyph unicode="&#x41c;" horiz-adv-x="1531" d="M156 0v1425h180l301 -665l141 -332h6l142 330l297 667h176v-1425h-180v1016l-7 -4l-110 -269l-246 -532h-158l-249 549l-107 256l-6 -4v-1012h-180z" />
<glyph unicode="&#x41d;" horiz-adv-x="1302" d="M156 0v1425h180v-626h631v626h180v-1425h-180v641h-631v-641h-180z" />
<glyph unicode="&#x41e;" horiz-adv-x="1218" d="M102 516v393q0 107 32 200.5t93 167t159 116.5t222 43q231 0 369.5 -148t138.5 -379v-393q0 -242 -138 -385t-370 -143q-124 0 -222 42t-159 115.5t-93 167.5t-32 203zM281 526q0 -97 35 -179.5t111.5 -136.5t182.5 -54q148 0 237 104.5t89 265.5v379q0 154 -89 257.5 t-237 103.5q-106 0 -182.5 -53t-111.5 -133.5t-35 -174.5v-379z" />
<glyph unicode="&#x41f;" horiz-adv-x="1302" d="M156 0v1425h991v-1425h-180v1268h-631v-1268h-180z" />
<glyph unicode="&#x420;" horiz-adv-x="1171" d="M156 0v1425h522q92 0 174 -25t149.5 -75t107.5 -135.5t40 -196.5q0 -76 -30 -150t-84.5 -134.5t-140.5 -98t-187 -37.5h-371v-573h-180zM336 739h354q128 0 199.5 78.5t71.5 181.5q0 126 -77 193.5t-202 67.5h-346v-521z" />
<glyph unicode="&#x421;" horiz-adv-x="1112" d="M106 516v393q0 107 32 200.5t93 167t159 116.5t222 43q168 0 289 -80.5t178 -220.5l-168 -76q-36 93 -113.5 148t-183.5 55t-182.5 -53t-111.5 -133.5t-35 -174.5v-371q0 -97 35 -179.5t111.5 -136.5t182.5 -54t184.5 57.5t114.5 155.5l168 -82q-54 -144 -176.5 -223.5 t-292.5 -79.5q-124 0 -222 42t-159 115.5t-93 167.5t-32 203z" />
<glyph unicode="&#x422;" horiz-adv-x="995" d="M2 1268v157h991v-157h-405v-1268h-180v1268h-406z" />
<glyph unicode="&#x423;" horiz-adv-x="1120" d="M55 1423h195l182 -516l150 -391h8l139 393l182 518h187l-445 -1187q-30 -80 -64.5 -132.5t-74.5 -80.5t-81.5 -39t-94.5 -11h-117v168h80q58 0 95 22.5t69 88.5l16 47z" />
<glyph unicode="&#x424;" horiz-adv-x="1499" d="M78 727q0 174 64.5 310.5t197 222.5t317.5 98v67h179v-67q152 -7 265.5 -57t181.5 -135.5t101 -194.5t33 -244q0 -264 -151.5 -432.5t-429.5 -181.5v-113h-179v113q-273 17 -426 181.5t-153 432.5zM254 727q0 -197 108 -321.5t295 -141.5v948q-103 -5 -182.5 -47.5 t-126.5 -111.5t-70.5 -151.5t-23.5 -174.5zM836 264q192 3 298.5 134t106.5 329q0 212 -101.5 344.5t-303.5 138.5v-946z" />
<glyph unicode="&#x425;" horiz-adv-x="1071" d="M-2 0l438 731l-409 694h200l308 -555l309 555h200l-409 -694l438 -731h-201l-337 592l-336 -592h-201z" />
<glyph unicode="&#x426;" horiz-adv-x="1351" d="M156 0v1425h180v-1259h631v1259h180v-1263h151v-467h-176v305h-966z" />
<glyph unicode="&#x427;" horiz-adv-x="1249" d="M113 1001v424h178v-405q0 -152 78 -227.5t217 -75.5q74 0 163 29t164 92v587h181v-1425h-181v666h-4q-165 -109 -364 -109q-201 0 -316.5 122t-115.5 322z" />
<glyph unicode="&#x428;" horiz-adv-x="1843" d="M143 0v1425h181v-1259h505v1259h181v-1259h510v1259h180v-1425h-1557z" />
<glyph unicode="&#x429;" horiz-adv-x="1900" d="M139 0v1425h180v-1259h506v1259h181v-1259h510v1259h180v-1263h151v-467h-176v305h-1532z" />
<glyph unicode="&#x42a;" horiz-adv-x="1474" d="M12 1260v165h629v-616h348q209 0 337 -110t128 -285q0 -105 -39.5 -186.5t-106 -130t-148.5 -73t-173 -24.5h-526v1260h-449zM641 166h346q126 0 202.5 61t76.5 181q0 96 -74.5 165.5t-204.5 69.5h-346v-477z" />
<glyph unicode="&#x42b;" horiz-adv-x="1626" d="M172 0v1425h180v-616h348q209 0 337 -110t128 -285q0 -105 -39.5 -186.5t-106 -130t-148.5 -73t-173 -24.5h-526zM352 166h346q126 0 202.5 61t76.5 181q0 96 -74.5 165.5t-204.5 69.5h-346v-477zM1307 0v1425h180v-1425h-180z" />
<glyph unicode="&#x42c;" horiz-adv-x="1171" d="M156 0v1425h180v-616h348q209 0 337 -110t128 -285q0 -105 -39.5 -186.5t-106 -130t-148.5 -73t-173 -24.5h-526zM336 166h346q126 0 202.5 61t76.5 181q0 96 -74.5 165.5t-204.5 69.5h-346v-477z" />
<glyph unicode="&#x42d;" horiz-adv-x="1136" d="M39 291l168 82q36 -98 114.5 -155.5t184.5 -57.5q73 0 130 20.5t94 55t61.5 83t34.5 100.5t10 111v132h-494v157h494v82q0 57 -10 107.5t-33 98t-58 81t-89 54t-122 20.5q-107 0 -190 -55.5t-119 -147.5l-168 76q56 138 183.5 219.5t297.5 81.5q107 0 191 -28.5 t139 -76.5t90.5 -116.5t50.5 -143.5t15 -162v-393q0 -109 -32 -203t-93 -167.5t-159 -115.5t-222 -42q-170 0 -292.5 79.5t-176.5 223.5z" />
<glyph unicode="&#x42e;" horiz-adv-x="1585" d="M154 0v1425h180v-626h196v108q0 107 29 200.5t86 168t150 117.5t211 43q122 0 214.5 -38.5t149 -109.5t85 -165t28.5 -210v-403q0 -238 -127.5 -380t-349.5 -142q-127 0 -221.5 43t-148.5 118.5t-80 167t-26 199.5v125h-196v-641h-180zM709 526q0 -59 9 -111t30.5 -100.5 t55 -83t85.5 -55t119 -20.5q153 0 224 100t71 270v373q0 71 -15.5 133.5t-48.5 116.5t-92.5 85.5t-138.5 31.5q-68 0 -121.5 -23t-86 -59.5t-54 -86t-29.5 -98t-8 -100.5v-373z" />
<glyph unicode="&#x42f;" horiz-adv-x="1245" d="M57 0l117 412q33 110 76 171t119 89q-69 17 -120 55t-77 87t-37.5 97t-11.5 97q0 179 116.5 298t313.5 119h539v-1425h-181v631h-254q-44 0 -84.5 -11.5t-80.5 -37.5t-73.5 -74.5t-53.5 -116.5l-113 -391h-195zM303 1010q0 -115 81 -170.5t212 -55.5h315v484h-333 q-126 0 -200.5 -69t-74.5 -189z" />
<glyph unicode="&#x430;" horiz-adv-x="987" d="M72 289q0 127 84 213t239 86h320v114q0 84 -56 125t-178 41q-166 0 -241 -88l-107 113q56 65 146 99t196 34q410 0 410 -328v-698h-170v88l-2 2q-28 -45 -104 -73.5t-177 -28.5q-169 0 -264.5 83.5t-95.5 217.5zM231 299q0 -74 56 -116t166 -42q262 0 262 189v119h-279 q-98 0 -151.5 -39.5t-53.5 -110.5z" />
<glyph unicode="&#x431;" horiz-adv-x="1052" d="M104 627q5 202 25 307q33 167 123.5 277t255.5 175q35 14 338 125l53 -127q-97 -43 -260 -104q-126 -48 -198.5 -99t-112 -125.5t-49.5 -187.5q2 0 4 -2q53 60 126.5 92.5t149.5 32.5q210 0 311 -153q78 -120 78 -351q0 -195 -67 -309q-55 -95 -149 -142.5t-208 -47.5 q-229 0 -334 153q-45 69 -66 176t-20 310zM276 489q0 -141 33 -213q32 -69 83 -102t136 -33q182 0 236 181q14 49 14 170q0 128 -26 200q-30 73 -80 110.5t-140 37.5q-136 0 -202 -111q-54 -91 -54 -240z" />
<glyph unicode="&#x432;" horiz-adv-x="983" d="M119 0v1016h438q164 0 254 -78.5t90 -202.5q0 -64 -34.5 -120t-106.5 -89q85 -28 125.5 -89t40.5 -138q0 -129 -95 -214t-229 -85h-483zM289 156h274q94 0 144.5 41.5t50.5 103.5q0 64 -51 108t-144 44h-274v-297zM289 586h250q100 0 146 39t46 104q0 63 -49 101t-143 38 h-250v-282z" />
<glyph unicode="&#x433;" horiz-adv-x="862" d="M119 0v1016h735v-148h-565v-868h-170z" />
<glyph unicode="&#x434;" horiz-adv-x="1148" d="M31 133l102 19q28 18 47.5 37t33.5 48.5t22.5 57t15 77.5t9.5 93t7 119l21 432h715v-866h104v-426h-166v276h-745v-276h-166v409zM344 150h487v718h-395l-12 -278q-9 -187 -23.5 -281t-56.5 -159z" />
<glyph unicode="&#x435;" horiz-adv-x="985" d="M80 504q0 116 26 208t67.5 150t98 96.5t114 54t118.5 15.5q173 0 289 -120t116 -326v-131h-653v-17q0 -126 68.5 -208.5t193.5 -82.5q51 0 116 26.5t114 70.5l108 -121q-137 -131 -346 -131q-67 0 -124.5 13t-115.5 48t-98.5 91.5t-66 149.5t-25.5 214zM256 592h477 q-6 134 -69 205t-168 71q-104 0 -168.5 -72.5t-71.5 -203.5z" />
<glyph unicode="&#x436;" horiz-adv-x="1464" d="M41 0l100 330q25 86 60 135t100 65q-100 26 -149 191l-93 295h168l90 -293q27 -89 75.5 -118.5t119.5 -29.5h135v439h170v-439h135q71 0 119.5 29.5t75.5 118.5l90 293h168l-92 -295q-49 -164 -150 -191q65 -16 100 -65t60 -135l100 -330h-172l-80 281q-30 93 -75.5 125 t-120.5 32h-158v-440h-170v440h-158q-75 0 -120.5 -32t-75.5 -125l-80 -281h-172z" />
<glyph unicode="&#x437;" horiz-adv-x="927" d="M41 111l111 120q36 -39 112.5 -62.5t163.5 -23.5q108 0 174 46.5t66 121.5q0 71 -59 110.5t-142 39.5h-156v137h156q90 0 136 36t46 99q0 62 -52 96.5t-138 34.5q-196 0 -277 -84l-104 119q62 61 160.5 93t205.5 32q191 0 281 -77t90 -197q0 -61 -37 -123.5t-108 -93.5 q63 -25 102 -66t52.5 -80.5t13.5 -81.5q0 -134 -105 -226.5t-301 -92.5q-268 0 -391 123z" />
<glyph unicode="&#x438;" horiz-adv-x="1083" d="M121 0v1016h170v-740h10l141 207l377 533h142v-1016h-173v721l-8 -2l-135 -195l-362 -524h-162z" />
<glyph unicode="&#x439;" horiz-adv-x="1083" d="M121 0v1016h170v-740h10l141 207l377 533h142v-1016h-173v721l-8 -2l-135 -195l-362 -524h-162zM250 1427h149q3 -46 44 -87.5t102 -41.5q68 0 107.5 41t39.5 88h146q-3 -35 -12.5 -68.5t-31 -70t-52.5 -63.5t-82 -44.5t-115 -17.5t-116 17.5t-84 45t-54 63t-31 70 t-10 68.5z" />
<glyph unicode="&#x43a;" horiz-adv-x="960" d="M102 0v1016h170v-441h177q71 0 119 29.5t75 118.5l90 293h168l-92 -295q-49 -164 -150 -191q65 -16 100 -65t60 -135l101 -330h-172l-80 281q-30 92 -76 124.5t-121 32.5h-199v-438h-170z" />
<glyph unicode="&#x43b;" horiz-adv-x="1077" d="M10 115q27 10 42.5 16t37.5 16t34 19t28 24t24 31.5t18.5 39.5t15.5 51t10 64.5t7 80t2 96.5v463h705v-1016h-172v868h-369v-325q0 -124 -15.5 -217t-42.5 -154t-70.5 -102.5t-93 -63t-116.5 -33.5z" />
<glyph unicode="&#x43c;" horiz-adv-x="1247" d="M121 0v1016h164l239 -481q20 -37 53 -109t52 -109q18 34 50.5 109t49.5 109l238 481h159v-1016h-170v653q-25 -56 -65 -131l-197 -377h-139l-203 387l-61 123v-655h-170z" />
<glyph unicode="&#x43d;" horiz-adv-x="1044" d="M119 0v1016h170v-436h469v436h168v-1016h-168v444h-469v-444h-170z" />
<glyph unicode="&#x43e;" horiz-adv-x="1052" d="M104 504q0 184 52 291q51 109 151 169t232 60q109 0 195.5 -44t139.5 -126q70 -110 70 -311q0 -262 -63 -369q-52 -89 -148 -137.5t-217 -48.5q-110 0 -197 39t-139 114q-76 116 -76 363zM272 502q0 -153 31 -221q30 -67 85.5 -103.5t129.5 -36.5q85 0 148.5 45t91.5 136 q16 56 16 215q0 124 -26 188q-28 73 -85 110t-131 37q-75 0 -133.5 -37.5t-89.5 -105.5q-34 -71 -37 -227z" />
<glyph unicode="&#x43f;" horiz-adv-x="1050" d="M123 0v1016h805v-1016h-168v868h-469v-868h-168z" />
<glyph unicode="&#x440;" horiz-adv-x="1021" d="M115 -406v1422h168v-113l6 -2q108 125 276 125q84 0 149 -29.5t105 -77t65 -115.5t34.5 -137.5t9.5 -150.5q0 -84 -10 -156t-37.5 -142.5t-71 -119.5t-114.5 -79.5t-163 -30.5q-159 0 -245 102h-4v-496h-168zM283 506q0 -54 4 -96.5t18 -92.5t37.5 -83t67 -55.5 t102.5 -22.5q61 0 106 21.5t70 54t40 81.5t19.5 93t4.5 100q0 46 -2.5 81.5t-9.5 79.5t-23 75.5t-40.5 60t-64 43t-90.5 14.5q-239 0 -239 -354z" />
<glyph unicode="&#x441;" horiz-adv-x="882" d="M57 506q0 109 25.5 197.5t69.5 148t103.5 99.5t125 57.5t137.5 17.5q188 0 332 -141l-109 -123q-42 47 -99 74.5t-116 27.5q-145 0 -223 -89.5t-78 -268.5q0 -178 78 -268.5t223 -90.5q60 0 117 30.5t98 74.5l111 -121q-143 -143 -334 -143q-72 0 -137.5 17.5t-125 57.5 t-103.5 99t-69.5 147.5t-25.5 196.5z" />
<glyph unicode="&#x442;" horiz-adv-x="811" d="M2 868v146h807v-146h-320v-868h-170v868h-317z" />
<glyph unicode="&#x443;" horiz-adv-x="897" d="M0 1016h186l162 -461l105 -319h6l104 317l158 463h176l-436 -1231q-28 -79 -72 -124t-89 -58t-107 -13h-87v148h84q44 0 75 26t52 89l56 167z" />
<glyph unicode="&#x444;" horiz-adv-x="1226" d="M86 504q0 185 49 291q49 108 157 172.5t234 64.5v457h170v-457q110 0 209 -47.5t152 -128.5q76 -117 76 -356q0 -206 -68 -322q-55 -96 -156 -148.5t-213 -52.5v-385h-170v385q-110 0 -208 44t-150 120q-82 122 -82 363zM254 502q0 -149 33 -221q31 -66 97 -106t142 -40 v735q-77 0 -144 -37.5t-97 -103.5q-31 -70 -31 -227zM696 135q86 0 155.5 48.5t96.5 138.5q15 52 15 182q0 152 -29 221q-29 71 -95 108t-143 37v-735z" />
<glyph unicode="&#x445;" horiz-adv-x="948" d="M33 0l346 520l-330 496h201l225 -381l225 381h203l-332 -498l347 -518h-203l-240 395l-239 -395h-203z" />
<glyph unicode="&#x446;" horiz-adv-x="1122" d="M123 0v1016h172v-862h467v862h168v-862h151v-430h-166v276h-792z" />
<glyph unicode="&#x447;" horiz-adv-x="989" d="M72 705v313h168v-303q0 -109 49.5 -154t146.5 -45q53 0 133.5 21t137.5 61v420h167v-1018h-167v440h-7q-64 -41 -141.5 -63.5t-146.5 -22.5q-159 0 -249.5 85t-90.5 266z" />
<glyph unicode="&#x448;" horiz-adv-x="1581" d="M123 0v1016h170v-860h412v860h167v-860h416v860h170v-1016h-1335z" />
<glyph unicode="&#x449;" horiz-adv-x="1650" d="M123 0v1016h172v-860h410v860h169v-860h414v860h170v-862h152v-430h-166v276h-1321z" />
<glyph unicode="&#x44a;" horiz-adv-x="1196" d="M14 868v148h523v-395h284q168 0 260.5 -86t92.5 -222q0 -142 -94 -227.5t-261 -85.5h-454v868h-351zM535 156h280q88 0 136 40.5t48 116.5q0 63 -46 107.5t-138 44.5l-280 2v-311z" />
<glyph unicode="&#x44b;" horiz-adv-x="1333" d="M115 0v1016h170v-395h284q168 0 260.5 -86t92.5 -222q0 -142 -94 -227.5t-261 -85.5h-452zM283 156h280q88 0 136.5 40.5t48.5 116.5q0 63 -46.5 107.5t-138.5 44.5l-280 2v-311zM1040 0v1014h170v-1014h-170z" />
<glyph unicode="&#x44c;" horiz-adv-x="940" d="M123 0l2 1016h170v-395h285q168 0 260 -86t92 -222q0 -142 -93.5 -227.5t-260.5 -85.5h-455zM293 156h280q88 0 136.5 40.5t48.5 116.5q0 63 -46.5 107.5t-138.5 44.5l-280 2v-311z" />
<glyph unicode="&#x44d;" horiz-adv-x="913" d="M27 131l110 121q41 -44 98 -74.5t117 -30.5q283 0 307 304h-378v135h378q-5 133 -71.5 205.5t-192.5 72.5q-61 0 -128.5 -28.5t-108.5 -73.5l-109 123q66 64 160.5 102.5t193.5 38.5q88 0 163 -27t135.5 -83t95 -152.5t34.5 -224.5q0 -116 -25.5 -209.5t-68.5 -156.5 t-103 -105t-126.5 -61t-140.5 -19q-197 0 -340 143z" />
<glyph unicode="&#x44e;" horiz-adv-x="1331" d="M123 0v1014h168v-434h141q6 127 45 215q46 109 137.5 169t214.5 60q107 0 191.5 -39.5t132.5 -118.5q72 -115 72 -366q0 -216 -62 -326q-52 -94 -141.5 -140t-196.5 -46q-104 0 -186 39.5t-131 113.5q-31 46 -52 128.5t-24 174.5h-141v-444h-168zM598 502q0 -147 31 -221 q62 -140 200 -140q167 0 213 176q15 52 15 187q0 153 -27 227q-55 141 -201 141q-138 0 -200 -143q-12 -30 -21.5 -95.5t-9.5 -131.5z" />
<glyph unicode="&#x44f;" horiz-adv-x="1007" d="M59 0l66 274q17 71 50.5 116t105.5 69q-96 20 -141.5 86.5t-45.5 154.5q0 133 88 223.5t228 90.5h483v-1014h-168v420h-221q-178 -8 -213 -166l-55 -254h-177zM262 705q0 -74 55.5 -112t145.5 -38h262v311h-289q-71 0 -122.5 -43t-51.5 -118z" />
<glyph unicode="&#x451;" horiz-adv-x="985" d="M80 504q0 116 26 208t67.5 150t98 96.5t114 54t118.5 15.5q173 0 289 -120t116 -326v-131h-653v-17q0 -126 68.5 -208.5t193.5 -82.5q51 0 116 26.5t114 70.5l108 -121q-137 -131 -346 -131q-67 0 -124.5 13t-115.5 48t-98.5 91.5t-66 149.5t-25.5 214zM227 1237v180h181 v-180h-181zM256 592h477q-6 134 -69 205t-168 71q-104 0 -168.5 -72.5t-71.5 -203.5zM596 1237v180h180v-180h-180z" />
<glyph unicode="&#x452;" horiz-adv-x="1124" d="M27 1171v136h125v180h165v-180h467v-136h-467v-284h7q103 129 292 129q187 0 291.5 -128t104.5 -390q0 -106 -26 -196.5t-78 -162.5t-139.5 -113.5t-201.5 -41.5q-19 0 -65 6v149q23 -4 67 -4q135 0 204 100.5t69 256.5q0 81 -15 145.5t-47.5 116.5t-89.5 80t-135 28 q-40 0 -80 -17.5t-76 -51.5t-59 -93.5t-23 -134.5v-565h-165v1171h-125z" />
<glyph unicode="&#x453;" horiz-adv-x="862" d="M119 0v1016h735v-148h-565v-868h-170zM373 1169l147 363l166 -51l-205 -353z" />
<glyph unicode="&#x454;" horiz-adv-x="882" d="M57 492q0 139 38.5 245t104.5 167.5t146 91.5t172 30q188 0 332 -141l-109 -123q-42 47 -99 74.5t-116 27.5q-129 0 -205.5 -71.5t-91.5 -212.5h383v-136h-385q13 -148 90 -222.5t209 -74.5q60 0 117 30.5t98 74.5l111 -121q-143 -143 -334 -143q-71 0 -136 17.5 t-125 56.5t-104 96t-70 143t-26 191z" />
<glyph unicode="&#x455;" horiz-adv-x="935" d="M39 135l102 129q143 -125 330 -125q97 0 160 41t63 117q0 72 -57.5 101.5t-175.5 41.5q-49 5 -82.5 10.5t-80.5 17t-78 30.5t-60.5 47.5t-44.5 72t-15 99.5q0 138 108 223.5t263 85.5q218 0 363 -111l-91 -135q-136 90 -272 90q-96 0 -151.5 -40.5t-55.5 -108.5 q0 -45 33 -73t90.5 -42t155.5 -24q47 -5 88.5 -15t85 -31t74.5 -51t51 -77.5t20 -106.5q0 -140 -111.5 -226.5t-287.5 -86.5q-253 0 -424 147z" />
<glyph unicode="&#x456;" horiz-adv-x="458" d="M145 0v1016h168v-1016h-168zM145 1257v168h168v-168h-168z" />
<glyph unicode="&#x457;" horiz-adv-x="409" d="M-86 1223v180h180v-180h-180zM115 0v1014h180v-1014h-180zM283 1223v180h180v-180h-180z" />
<glyph unicode="&#x458;" horiz-adv-x="497" d="M-14 -260h61q56 2 87.5 37t31.5 98v1141h170v-1153q0 -126 -67.5 -201.5t-192.5 -75.5h-90v154zM166 1257v168h170v-168h-170z" />
<glyph unicode="&#x459;" horiz-adv-x="1503" d="M35 115q51 18 81 34t60 46.5t45 74.5t24 114t9 169v463h588v-395h284q168 0 260.5 -86t92.5 -222q0 -142 -94 -227.5t-261 -85.5h-454v868h-252v-325q0 -124 -15.5 -216t-42.5 -152.5t-71.5 -101.5t-92.5 -63t-116 -37zM840 156h280q88 0 136.5 40.5t48.5 116.5 q0 63 -46.5 108.5t-138.5 45.5h-280v-311z" />
<glyph unicode="&#x45a;" horiz-adv-x="1540" d="M125 0v1016h170v-393h410v393h172v-395h284q168 0 260 -86t92 -222q0 -142 -93.5 -227.5t-260.5 -85.5h-454v471h-410v-471h-170zM874 156h281q88 0 136 40.5t48 116.5q0 63 -46 107.5t-138 44.5l-281 2v-311z" />
<glyph unicode="&#x45b;" horiz-adv-x="1067" d="M27 1171v138h125v178h167v-178h443v-138h-443v-294h7q52 65 128.5 101t159.5 36q153 0 247.5 -90.5t94.5 -261.5v-662h-168v596q0 124 -50.5 188t-172.5 64q-104 0 -175 -69t-71 -183v-596h-167v1171h-125z" />
<glyph unicode="&#x45c;" horiz-adv-x="960" d="M102 0v1016h170v-441h177q71 0 119 29.5t75 118.5l90 293h168l-92 -295q-49 -164 -150 -191q65 -16 100 -65t60 -135l101 -330h-172l-80 281q-30 92 -76 124.5t-121 32.5h-199v-438h-170zM383 1169l147 363l166 -51l-204 -353z" />
<glyph unicode="&#x45e;" horiz-adv-x="897" d="M0 1016h186l162 -461l105 -319h6l104 317l158 463h176l-436 -1231q-28 -79 -72 -124t-89 -58t-107 -13h-87v148h84q44 0 75 26t52 89l56 167zM158 1427h149q3 -46 44 -87.5t102 -41.5q68 0 107.5 41t39.5 88h145q-3 -35 -12.5 -68.5t-31 -70t-52 -63.5t-81.5 -44.5 t-115 -17.5t-116 17.5t-84 45t-54 63t-31 70t-10 68.5z" />
<glyph unicode="&#x45f;" horiz-adv-x="1044" d="M119 0v1014h170v-858h469v858h168v-1014h-312v-289h-188v289h-307z" />
<glyph unicode="&#x490;" horiz-adv-x="1073" d="M156 0v1425h731v228h168l2 -393h-721v-1260h-180z" />
<glyph unicode="&#x491;" horiz-adv-x="862" d="M119 0v1016h577v203h158v-351h-565v-868h-170z" />
<glyph unicode="&#x4d9;" horiz-adv-x="985" d="M82 434v131h653v17q0 126 -68.5 208t-193.5 82q-52 0 -116 -26t-113 -70l-109 121q137 131 346 131q67 0 124.5 -13t115.5 -48t98.5 -91.5t66 -149.5t25.5 -214q0 -116 -26 -208t-67.5 -150t-98 -96.5t-114 -54t-118.5 -15.5q-173 0 -289 120t-116 326zM258 424 q6 -134 69.5 -205.5t168.5 -71.5q104 0 168 73t71 204h-477z" />
<glyph unicode="&#x1e80;" horiz-adv-x="1685" d="M25 1425h196l160 -698l86 -385l8 -2l94 383l195 702h147l201 -714l98 -373h7q12 56 36 182.5t37 184.5l164 720h197l-361 -1425h-155l-193 709l-102 381l-9 -3l-92 -352l-198 -735h-158zM520 1722l121 125l303 -250l-76 -86z" />
<glyph unicode="&#x1e81;" horiz-adv-x="1472" d="M12 1016h185l153 -535l66 -227h8q11 39 33.5 113.5t31.5 107.5l168 541h156l164 -535l70 -239h10q20 70 65 245l148 529h186l-326 -1016h-159l-152 489l-88 283l-82 -280l-151 -492h-162zM500 1481l166 51l147 -363l-108 -41z" />
<glyph unicode="&#x1e82;" horiz-adv-x="1685" d="M25 1425h196l160 -698l86 -385l8 -2l94 383l195 702h147l201 -714l98 -373h7q12 56 36 182.5t37 184.5l164 720h197l-361 -1425h-155l-193 709l-102 381l-9 -3l-92 -352l-198 -735h-158zM772 1597l303 250l121 -125l-348 -211z" />
<glyph unicode="&#x1e83;" horiz-adv-x="1472" d="M12 1016h185l153 -535l66 -227h8q11 39 33.5 113.5t31.5 107.5l168 541h156l164 -535l70 -239h10q20 70 65 245l148 529h186l-326 -1016h-159l-152 489l-88 283l-82 -280l-151 -492h-162zM696 1169l148 363l166 -51l-205 -353z" />
<glyph unicode="&#x1e84;" horiz-adv-x="1685" d="M25 1425h196l160 -698l86 -385l8 -2l94 383l195 702h147l201 -714l98 -373h7q12 56 36 182.5t37 184.5l164 720h197l-361 -1425h-155l-193 709l-102 381l-9 -3l-92 -352l-198 -735h-158zM563 1577v180h180v-180h-180zM932 1577v180h180v-180h-180z" />
<glyph unicode="&#x1e85;" horiz-adv-x="1472" d="M12 1016h185l153 -535l66 -227h8q11 39 33.5 113.5t31.5 107.5l168 541h156l164 -535l70 -239h10q20 70 65 245l148 529h186l-326 -1016h-159l-152 489l-88 283l-82 -280l-151 -492h-162zM455 1223v180h180v-180h-180zM823 1223v180h181v-180h-181z" />
<glyph unicode="&#x1ef2;" horiz-adv-x="1040" d="M4 1425h191l198 -395l127 -272l133 284l193 383h186l-428 -860v-565h-172v565zM252 1722l121 125l303 -250l-76 -86z" />
<glyph unicode="&#x1ef3;" horiz-adv-x="897" d="M0 1016h186l162 -461l105 -319h6l104 317l158 463h176l-436 -1231q-28 -79 -72 -124t-89 -58t-107 -13h-87v148h84q44 0 75 26t52 89l56 167zM238 1481l165 51l148 -363l-109 -41z" />
<glyph unicode="&#x1f00;" horiz-adv-x="1034" d="M98 500q0 86 10.5 159.5t38 142t70 116.5t110.5 77t156 29q170 0 254 -123l4 2v111h168v-1014h-168v113l-4 2q-116 -127 -276 -127q-363 0 -363 512zM272 506q0 -56 4.5 -100t19 -93t39 -81.5t69 -54t104.5 -21.5q233 0 233 350q0 53 -4 95.5t-18 93t-38.5 85t-68.5 57.5 t-104 23q-51 0 -91 -14.5t-65 -42.5t-41.5 -60t-24.5 -75.5t-11 -80t-3 -81.5zM395 1430l60 165q112 -21 174.5 -75t62.5 -142q0 -52 -32.5 -121.5t-98.5 -128.5l-88 39q53 72 53 144q0 97 -131 119z" />
<glyph unicode="&#x1f01;" horiz-adv-x="1034" d="M98 500q0 86 10.5 159.5t38 142t70 116.5t110.5 77t156 29q170 0 254 -123l4 2v111h168v-1014h-168v113l-4 2q-116 -127 -276 -127q-363 0 -363 512zM272 506q0 -56 4.5 -100t19 -93t39 -81.5t69 -54t104.5 -21.5q233 0 233 350q0 53 -4 95.5t-18 93t-38.5 85t-68.5 57.5 t-104 23q-51 0 -91 -14.5t-65 -42.5t-41.5 -60t-24.5 -75.5t-11 -80t-3 -81.5zM412 1378q0 88 62.5 142t174.5 75l60 -165q-131 -22 -131 -119q0 -72 53 -144l-88 -39q-66 59 -98.5 128.5t-32.5 121.5z" />
<glyph unicode="&#x1f02;" horiz-adv-x="1034" d="M98 500q0 86 10.5 159.5t38 142t70 116.5t110.5 77t156 29q170 0 254 -123l4 2v111h168v-1014h-168v113l-4 2q-116 -127 -276 -127q-363 0 -363 512zM170 1432l59 165q112 -21 175 -75t63 -142q0 -52 -32.5 -121.5t-98.5 -128.5l-88 39q53 72 53 144q0 97 -131 119z M272 506q0 -56 4.5 -100t19 -93t39 -81.5t69 -54t104.5 -21.5q233 0 233 350q0 53 -4 95.5t-18 93t-38.5 85t-68.5 57.5t-104 23q-51 0 -91 -14.5t-65 -42.5t-41.5 -60t-24.5 -75.5t-11 -80t-3 -81.5zM483 1563l203 34l176 -430l-94 -32z" />
<glyph unicode="&#x1f03;" horiz-adv-x="1034" d="M98 500q0 86 10.5 159.5t38 142t70 116.5t110.5 77t156 29q170 0 254 -123l4 2v111h168v-1014h-168v113l-4 2q-116 -127 -276 -127q-363 0 -363 512zM188 1378q0 88 63 142t175 75l59 -165q-131 -22 -131 -119q0 -70 54 -144l-89 -39q-66 59 -98.5 128.5t-32.5 121.5z M272 506q0 -56 4.5 -100t19 -93t39 -81.5t69 -54t104.5 -21.5q233 0 233 350q0 53 -4 95.5t-18 93t-38.5 85t-68.5 57.5t-104 23q-51 0 -91 -14.5t-65 -42.5t-41.5 -60t-24.5 -75.5t-11 -80t-3 -81.5zM498 1563l202 34l177 -430l-95 -32z" />
<glyph unicode="&#x1f04;" horiz-adv-x="1034" d="M98 500q0 86 10.5 159.5t38 142t70 116.5t110.5 77t156 29q170 0 254 -123l4 2v111h168v-1014h-168v113l-4 2q-116 -127 -276 -127q-363 0 -363 512zM158 1427l59 166q112 -21 175 -75t63 -142q0 -52 -32.5 -121.5t-98.5 -128.5l-88 39q53 72 53 144q0 96 -131 118z M272 506q0 -56 4.5 -100t19 -93t39 -81.5t69 -54t104.5 -21.5q233 0 233 350q0 53 -4 95.5t-18 93t-38.5 85t-68.5 57.5t-104 23q-51 0 -91 -14.5t-65 -42.5t-41.5 -60t-24.5 -75.5t-11 -80t-3 -81.5zM496 1167l184 430l194 -34l-284 -428z" />
<glyph unicode="&#x1f05;" horiz-adv-x="1034" d="M98 500q0 86 10.5 159.5t38 142t70 116.5t110.5 77t156 29q170 0 254 -123l4 2v111h168v-1014h-168v113l-4 2q-116 -127 -276 -127q-363 0 -363 512zM199 1376q0 88 62.5 142t174.5 75l60 -166q-131 -22 -131 -118q0 -72 53 -144l-88 -39q-66 59 -98.5 128.5t-32.5 121.5 zM272 506q0 -56 4.5 -100t19 -93t39 -81.5t69 -54t104.5 -21.5q233 0 233 350q0 53 -4 95.5t-18 93t-38.5 85t-68.5 57.5t-104 23q-51 0 -91 -14.5t-65 -42.5t-41.5 -60t-24.5 -75.5t-11 -80t-3 -81.5zM496 1167l184 430l194 -34l-284 -428z" />
<glyph unicode="&#x1f06;" horiz-adv-x="1034" d="M98 500q0 86 10.5 159.5t38 142t70 116.5t110.5 77t156 29q170 0 254 -123l4 2v111h168v-1014h-168v113l-4 2q-116 -127 -276 -127q-363 0 -363 512zM182 1548q41 86 100 134.5t121 48.5q52 0 147 -48.5t128 -48.5q65 0 125 92l106 -59q-86 -182 -219 -182 q-51 0 -146.5 46t-133.5 46q-35 0 -62.5 -18t-66.5 -64zM272 506q0 -56 4.5 -100t19 -93t39 -81.5t69 -54t104.5 -21.5q233 0 233 350q0 53 -4 95.5t-18 93t-38.5 85t-68.5 57.5t-104 23q-51 0 -91 -14.5t-65 -42.5t-41.5 -60t-24.5 -75.5t-11 -80t-3 -81.5zM397 1325 l58 133q103 -14 160 -54t57 -104q0 -43 -30.5 -99t-102.5 -116l-84 31q65 68 65 127q0 32 -27.5 52t-95.5 30z" />
<glyph unicode="&#x1f07;" horiz-adv-x="1034" d="M98 500q0 86 10.5 159.5t38 142t70 116.5t110.5 77t156 29q170 0 254 -123l4 2v111h168v-1014h-168v113l-4 2q-116 -127 -276 -127q-363 0 -363 512zM199 1556q41 86 100 134.5t121 48.5q52 0 146.5 -48.5t127.5 -48.5q64 0 125 93l107 -60q-86 -182 -219 -182 q-51 0 -147 46t-134 46q-35 0 -62.5 -18t-66.5 -64zM272 506q0 -56 4.5 -100t19 -93t39 -81.5t69 -54t104.5 -21.5q233 0 233 350q0 53 -4 95.5t-18 93t-38.5 85t-68.5 57.5t-104 23q-51 0 -91 -14.5t-65 -42.5t-41.5 -60t-24.5 -75.5t-11 -80t-3 -81.5zM399 1305 q0 128 215 157l58 -133q-68 -10 -94.5 -30t-26.5 -52q0 -61 63 -127l-84 -30q-131 109 -131 215z" />
<glyph unicode="&#x1f08;" horiz-adv-x="1224" d="M-43 1315l59 166q112 -21 175 -75t63 -142q0 -52 -32.5 -121.5t-98.5 -128.5l-88 39q53 72 53 143q0 97 -131 119zM12 0l523 1425h155l522 -1425h-190l-115 328h-592l-114 -328h-189zM367 483h489l-137 400l-105 303h-6l-100 -295z" />
<glyph unicode="&#x1f09;" horiz-adv-x="1224" d="M-49 1266q0 88 62.5 142t174.5 75l60 -166q-131 -22 -131 -119q0 -71 53 -143l-88 -39q-66 59 -98.5 128.5t-32.5 121.5zM12 0l523 1425h155l522 -1425h-190l-115 328h-592l-114 -328h-189zM367 483h489l-137 400l-105 303h-6l-100 -295z" />
<glyph unicode="&#x1f0a;" horiz-adv-x="1224" d="M-414 1317l60 166q112 -21 174.5 -75t62.5 -142q0 -52 -32.5 -121.5t-98.5 -128.5l-88 39q53 72 53 143q0 97 -131 119zM-100 1448l202 35l177 -430l-95 -33zM12 0l523 1425h155l522 -1425h-190l-115 328h-592l-114 -328h-189zM367 483h489l-137 400l-105 303h-6 l-100 -295z" />
<glyph unicode="&#x1f0b;" horiz-adv-x="1224" d="M-393 1266q0 88 62.5 142t174.5 75l60 -166q-131 -22 -131 -119q0 -71 53 -143l-88 -39q-66 59 -98.5 128.5t-32.5 121.5zM-84 1450l203 35l176 -430l-94 -33zM12 0l523 1425h155l522 -1425h-190l-115 328h-592l-114 -328h-189zM367 483h489l-137 400l-105 303h-6 l-100 -295z" />
<glyph unicode="&#x1f0c;" horiz-adv-x="1224" d="M-426 1311l59 166q112 -21 175 -75t63 -142q0 -52 -32.5 -121.5t-98.5 -128.5l-88 39q53 72 53 143q0 97 -131 119zM-88 1051l184 430l195 -35l-285 -428zM12 0l523 1425h155l522 -1425h-190l-115 328h-592l-114 -328h-189zM367 483h489l-137 400l-105 303h-6l-100 -295z " />
<glyph unicode="&#x1f0d;" horiz-adv-x="1224" d="M-383 1264q0 88 63 142t175 75l59 -166q-131 -22 -131 -119q0 -71 53 -143l-88 -39q-66 59 -98.5 128.5t-32.5 121.5zM-86 1055l184 430l195 -35l-285 -428zM12 0l523 1425h155l522 -1425h-190l-115 328h-592l-114 -328h-189zM367 483h489l-137 400l-105 303h-6 l-100 -295z" />
<glyph unicode="&#x1f0e;" horiz-adv-x="1224" d="M-371 1323q41 86 100 134t121 48q52 0 147 -48t128 -48q65 0 125 92l106 -59q-86 -182 -219 -182q-51 0 -146.5 46t-133.5 46q-35 0 -62.5 -18t-66.5 -64zM-156 1100l58 133q103 -14 160 -54t57 -104q0 -43 -30.5 -99t-102.5 -116l-84 31q65 68 65 127q0 32 -27.5 52 t-95.5 30zM12 0l523 1425h155l522 -1425h-190l-115 328h-592l-114 -328h-189zM367 483h489l-137 400l-105 303h-6l-100 -295z" />
<glyph unicode="&#x1f0f;" horiz-adv-x="1224" d="M-354 1333q41 86 100 134.5t121 48.5q52 0 146.5 -48.5t127.5 -48.5q65 0 125 92l107 -59q-86 -182 -219 -182q-51 0 -147 46t-134 46q-35 0 -62.5 -18t-66.5 -64zM-154 1081q0 65 56.5 104.5t158.5 53.5l58 -133q-68 -10 -94.5 -30t-26.5 -52q0 -61 63 -127l-84 -31 q-131 109 -131 215zM12 0l523 1425h155l522 -1425h-190l-115 328h-592l-114 -328h-189zM367 483h489l-137 400l-105 303h-6l-100 -295z" />
<glyph unicode="&#x1f10;" horiz-adv-x="901" d="M100 291q0 27 8 58t25 66.5t50 66.5t77 48v5q-143 55 -143 200q0 121 96 206t272 85q105 0 199 -33.5t158 -95.5l-105 -127q-38 39 -107.5 64.5t-135.5 25.5q-97 0 -153 -39.5t-56 -97.5q0 -52 39 -84.5t122 -32.5h172v-149h-165q-85 0 -136 -43.5t-51 -110.5t64 -110 t172 -43q66 0 142 29.5t116 72.5l106 -121q-69 -64 -171.5 -101.5t-207.5 -37.5q-176 0 -281.5 80.5t-105.5 218.5zM375 1430l59 165q112 -21 175 -75t63 -142q0 -52 -32.5 -121.5t-98.5 -128.5l-88 39q53 72 53 144q0 97 -131 119z" />
<glyph unicode="&#x1f11;" horiz-adv-x="901" d="M100 291q0 27 8 58t25 66.5t50 66.5t77 48v5q-143 55 -143 200q0 121 96 206t272 85q105 0 199 -33.5t158 -95.5l-105 -127q-38 39 -107.5 64.5t-135.5 25.5q-97 0 -153 -39.5t-56 -97.5q0 -52 39 -84.5t122 -32.5h172v-149h-165q-85 0 -136 -43.5t-51 -110.5t64 -110 t172 -43q66 0 142 29.5t116 72.5l106 -121q-69 -64 -171.5 -101.5t-207.5 -37.5q-176 0 -281.5 80.5t-105.5 218.5zM362 1378q0 88 63 142t175 75l59 -165q-131 -22 -131 -119q0 -70 54 -144l-88 -39q-66 59 -99 129t-33 121z" />
<glyph unicode="&#x1f12;" horiz-adv-x="901" d="M100 291q0 27 8 58t25 66.5t50 66.5t77 48v5q-143 55 -143 200q0 121 96 206t272 85q105 0 199 -33.5t158 -95.5l-105 -127q-38 39 -107.5 64.5t-135.5 25.5q-97 0 -153 -39.5t-56 -97.5q0 -52 39 -84.5t122 -32.5h172v-149h-165q-85 0 -136 -43.5t-51 -110.5t64 -110 t172 -43q66 0 142 29.5t116 72.5l106 -121q-69 -64 -171.5 -101.5t-207.5 -37.5q-176 0 -281.5 80.5t-105.5 218.5zM100 1432l60 165q112 -21 174.5 -75t62.5 -142q0 -52 -32.5 -121.5t-98.5 -128.5l-88 39q53 72 53 144q0 97 -131 119zM414 1563l202 34l177 -430l-95 -32z " />
<glyph unicode="&#x1f13;" horiz-adv-x="901" d="M100 291q0 27 8 58t25 66.5t50 66.5t77 48v5q-143 55 -143 200q0 121 96 206t272 85q105 0 199 -33.5t158 -95.5l-105 -127q-38 39 -107.5 64.5t-135.5 25.5q-97 0 -153 -39.5t-56 -97.5q0 -52 39 -84.5t122 -32.5h172v-149h-165q-85 0 -136 -43.5t-51 -110.5t64 -110 t172 -43q66 0 142 29.5t116 72.5l106 -121q-69 -64 -171.5 -101.5t-207.5 -37.5q-176 0 -281.5 80.5t-105.5 218.5zM117 1378q0 88 62.5 142t174.5 75l60 -165q-131 -22 -131 -119q0 -72 53 -144l-88 -39q-66 59 -98.5 128.5t-32.5 121.5zM426 1563l203 34l176 -430l-94 -32 z" />
<glyph unicode="&#x1f14;" horiz-adv-x="901" d="M100 291q0 27 8 58t25 66.5t50 66.5t77 48v5q-143 55 -143 200q0 121 96 206t272 85q105 0 199 -33.5t158 -95.5l-105 -127q-38 39 -107.5 64.5t-135.5 25.5q-97 0 -153 -39.5t-56 -97.5q0 -52 39 -84.5t122 -32.5h172v-149h-165q-85 0 -136 -43.5t-51 -110.5t64 -110 t172 -43q66 0 142 29.5t116 72.5l106 -121q-69 -64 -171.5 -101.5t-207.5 -37.5q-176 0 -281.5 80.5t-105.5 218.5zM195 1427l59 166q112 -21 175 -75t63 -142q0 -51 -33 -121t-99 -129l-88 39q54 74 54 144q0 96 -131 118zM532 1167l185 430l194 -34l-284 -428z" />
<glyph unicode="&#x1f15;" horiz-adv-x="901" d="M100 291q0 27 8 58t25 66.5t50 66.5t77 48v5q-143 55 -143 200q0 121 96 206t272 85q105 0 199 -33.5t158 -95.5l-105 -127q-38 39 -107.5 64.5t-135.5 25.5q-97 0 -153 -39.5t-56 -97.5q0 -52 39 -84.5t122 -32.5h172v-149h-165q-85 0 -136 -43.5t-51 -110.5t64 -110 t172 -43q66 0 142 29.5t116 72.5l106 -121q-69 -64 -171.5 -101.5t-207.5 -37.5q-176 0 -281.5 80.5t-105.5 218.5zM240 1376q0 88 62.5 142t174.5 75l60 -166q-131 -22 -131 -118q0 -72 53 -144l-88 -39q-66 59 -98.5 128.5t-32.5 121.5zM537 1167l184 430l194 -34 l-284 -428z" />
<glyph unicode="&#x1f18;" horiz-adv-x="1112" d="M-289 1327l60 166q112 -21 174.5 -75t62.5 -142q0 -52 -32.5 -121.5t-98.5 -128.5l-88 39q53 72 53 143q0 97 -131 119zM156 0v1425h901v-165h-721v-461h614v-158h-614v-475h721v-166h-901z" />
<glyph unicode="&#x1f19;" horiz-adv-x="1112" d="M-295 1276q0 88 63 142t175 75l59 -166q-131 -22 -131 -119q0 -71 53 -143l-88 -39q-66 59 -98.5 128.5t-32.5 121.5zM156 0v1425h901v-165h-721v-461h614v-158h-614v-475h721v-166h-901z" />
<glyph unicode="&#x1f1a;" horiz-adv-x="1112" d="M-637 1329l59 166q112 -21 175 -75t63 -142q0 -52 -32.5 -121.5t-98.5 -128.5l-88 39q53 72 53 143q0 97 -131 119zM-324 1460l203 35l176 -430l-94 -33zM156 0v1425h901v-165h-721v-461h614v-158h-614v-475h721v-166h-901z" />
<glyph unicode="&#x1f1b;" horiz-adv-x="1112" d="M-645 1276q0 88 62.5 142t174.5 75l60 -166q-131 -22 -131 -119q0 -71 53 -143l-88 -39q-66 59 -98.5 128.5t-32.5 121.5zM-336 1460l203 35l176 -430l-94 -33zM156 0v1425h901v-165h-721v-461h614v-158h-614v-475h721v-166h-901z" />
<glyph unicode="&#x1f1c;" horiz-adv-x="1112" d="M-668 1325l60 166q112 -21 174.5 -75t62.5 -142q0 -52 -32.5 -121.5t-98.5 -128.5l-88 39q53 72 53 143q0 97 -131 119zM-330 1065l185 430l194 -35l-285 -428zM156 0v1425h901v-165h-721v-461h614v-158h-614v-475h721v-166h-901z" />
<glyph unicode="&#x1f1d;" horiz-adv-x="1112" d="M-629 1274q0 88 63 142t175 75l59 -166q-131 -22 -131 -119q0 -71 53 -143l-88 -39q-66 59 -98.5 128.5t-32.5 121.5zM-332 1065l185 430l194 -35l-285 -428zM156 0v1425h901v-165h-721v-461h614v-158h-614v-475h721v-166h-901z" />
<glyph unicode="&#x1f20;" horiz-adv-x="1073" d="M133 0v1018h168v-129h6q52 66 126.5 101.5t156.5 35.5q153 0 250.5 -91t97.5 -261v-674h-168v608q0 125 -52 188.5t-179 63.5q-103 0 -170.5 -68.5t-67.5 -183.5v-608h-168zM371 1430l59 165q112 -21 175 -75t63 -142q0 -52 -32.5 -121.5t-98.5 -128.5l-88 39 q53 72 53 144q0 97 -131 119z" />
<glyph unicode="&#x1f21;" horiz-adv-x="1073" d="M133 0v1018h168v-129h6q52 66 126.5 101.5t156.5 35.5q153 0 250.5 -91t97.5 -261v-674h-168v608q0 125 -52 188.5t-179 63.5q-103 0 -170.5 -68.5t-67.5 -183.5v-608h-168zM373 1378q0 88 62.5 142t174.5 75l60 -165q-131 -22 -131 -119q0 -72 53 -144l-88 -39 q-66 59 -98.5 128.5t-32.5 121.5z" />
<glyph unicode="&#x1f22;" horiz-adv-x="1073" d="M133 0v1018h168v-129h6q52 66 126.5 101.5t156.5 35.5q153 0 250.5 -91t97.5 -261v-674h-168v608q0 125 -52 188.5t-179 63.5q-103 0 -170.5 -68.5t-67.5 -183.5v-608h-168zM147 1432l60 165q112 -21 174.5 -75t62.5 -142q0 -52 -32.5 -121.5t-98.5 -128.5l-88 39 q54 74 54 144q0 97 -132 119zM461 1563l203 34l176 -430l-95 -32z" />
<glyph unicode="&#x1f23;" horiz-adv-x="1073" d="M133 0v1018h168v-129h6q52 66 126.5 101.5t156.5 35.5q153 0 250.5 -91t97.5 -261v-674h-168v608q0 125 -52 188.5t-179 63.5q-103 0 -170.5 -68.5t-67.5 -183.5v-608h-168zM174 1378q0 88 63 142t175 75l59 -165q-131 -22 -131 -119q0 -72 53 -144l-88 -39 q-66 59 -98.5 128.5t-32.5 121.5zM483 1563l203 34l176 -430l-94 -32z" />
<glyph unicode="&#x1f24;" horiz-adv-x="1073" d="M133 0v1018h168v-129h6q52 66 126.5 101.5t156.5 35.5q153 0 250.5 -91t97.5 -261v-674h-168v608q0 125 -52 188.5t-179 63.5q-103 0 -170.5 -68.5t-67.5 -183.5v-608h-168zM184 1427l60 166q112 -21 174.5 -75t62.5 -142q0 -52 -32.5 -121.5t-98.5 -128.5l-88 39 q53 72 53 144q0 96 -131 118zM522 1167l185 430l194 -34l-285 -428z" />
<glyph unicode="&#x1f25;" horiz-adv-x="1073" d="M133 0v1018h168v-129h6q52 66 126.5 101.5t156.5 35.5q153 0 250.5 -91t97.5 -261v-674h-168v608q0 125 -52 188.5t-179 63.5q-103 0 -170.5 -68.5t-67.5 -183.5v-608h-168zM225 1376q0 88 63 142t175 75l59 -166q-131 -22 -131 -118q0 -72 53 -144l-88 -39 q-66 59 -98.5 128.5t-32.5 121.5zM522 1167l185 430l194 -34l-285 -428z" />
<glyph unicode="&#x1f26;" horiz-adv-x="1073" d="M133 0v1018h168v-129h6q52 66 126.5 101.5t156.5 35.5q153 0 250.5 -91t97.5 -261v-674h-168v608q0 125 -52 188.5t-179 63.5q-103 0 -170.5 -68.5t-67.5 -183.5v-608h-168zM137 1548q41 86 100 134.5t121 48.5q52 0 147 -48.5t128 -48.5q65 0 125 92l106 -59 q-86 -182 -219 -182q-51 0 -146.5 46t-133.5 46q-35 0 -62.5 -18t-66.5 -64zM352 1325l58 133q103 -14 160 -54t57 -104q0 -43 -30.5 -99t-102.5 -116l-84 31q65 68 65 127q0 32 -27.5 52t-95.5 30z" />
<glyph unicode="&#x1f27;" horiz-adv-x="1073" d="M133 0v1018h168v-129h6q52 66 126.5 101.5t156.5 35.5q153 0 250.5 -91t97.5 -261v-674h-168v608q0 125 -52 188.5t-179 63.5q-103 0 -170.5 -68.5t-67.5 -183.5v-608h-168zM150 1554q41 86 100 134.5t121 48.5q52 0 146.5 -48.5t127.5 -48.5q64 0 125 93l107 -60 q-86 -182 -220 -182q-51 0 -146.5 46t-133.5 46q-35 0 -62.5 -18t-66.5 -64zM350 1303q0 128 215 157l58 -133q-68 -10 -94.5 -30t-26.5 -52q0 -61 63 -127l-84 -31q-131 109 -131 216z" />
<glyph unicode="&#x1f28;" horiz-adv-x="1302" d="M-281 1327l60 166q112 -21 174.5 -75t62.5 -142q0 -52 -32.5 -121.5t-98.5 -128.5l-88 39q53 72 53 143q0 97 -131 119zM156 0v1425h180v-626h631v626h180v-1425h-180v641h-631v-641h-180z" />
<glyph unicode="&#x1f29;" horiz-adv-x="1302" d="M-287 1276q0 88 63 142t175 75l59 -166q-131 -22 -131 -119q0 -71 53 -143l-88 -39q-66 59 -98.5 128.5t-32.5 121.5zM156 0v1425h180v-626h631v626h180v-1425h-180v641h-631v-641h-180z" />
<glyph unicode="&#x1f2a;" horiz-adv-x="1302" d="M-684 1329l59 166q112 -21 175 -75t63 -142q0 -52 -32.5 -121.5t-98.5 -128.5l-88 39q53 72 53 143q0 97 -131 119zM-371 1460l203 35l176 -430l-94 -33zM156 0v1425h180v-626h631v626h180v-1425h-180v641h-631v-641h-180z" />
<glyph unicode="&#x1f2b;" horiz-adv-x="1302" d="M-680 1276q0 88 63 142t175 75l59 -166q-131 -22 -131 -119q0 -71 53 -143l-88 -39q-66 59 -98.5 128.5t-32.5 121.5zM-371 1460l203 35l176 -430l-94 -33zM156 0v1425h180v-626h631v626h180v-1425h-180v641h-631v-641h-180z" />
<glyph unicode="&#x1f2c;" horiz-adv-x="1302" d="M-705 1325l60 166q112 -21 174.5 -75t62.5 -142q0 -52 -32.5 -121.5t-98.5 -128.5l-88 39q54 74 54 143q0 97 -132 119zM-367 1065l185 430l194 -35l-284 -428zM156 0v1425h180v-626h631v626h180v-1425h-180v641h-631v-641h-180z" />
<glyph unicode="&#x1f2d;" horiz-adv-x="1302" d="M-649 1274q0 88 62.5 142t174.5 75l60 -166q-131 -22 -131 -119q0 -71 53 -143l-88 -39q-66 59 -98.5 128.5t-32.5 121.5zM-352 1065l184 430l195 -35l-285 -428zM156 0v1425h180v-626h631v626h180v-1425h-180v641h-631v-641h-180z" />
<glyph unicode="&#x1f2e;" horiz-adv-x="1302" d="M-682 1325q41 86 100 134t121 48q52 0 147 -48t128 -48q65 0 125 92l106 -59q-86 -182 -219 -182q-51 0 -147 46t-134 46q-35 0 -62.5 -18t-66.5 -64zM-467 1102l57 133q103 -14 160 -54t57 -104q0 -43 -30.5 -99t-102.5 -116l-84 31q66 69 66 127q0 32 -27.5 52 t-95.5 30zM156 0v1425h180v-626h631v626h180v-1425h-180v641h-631v-641h-180z" />
<glyph unicode="&#x1f2f;" horiz-adv-x="1302" d="M-690 1333q41 86 100 134.5t121 48.5q52 0 146.5 -48.5t127.5 -48.5q65 0 125 92l107 -59q-86 -182 -219 -182q-51 0 -147 46t-134 46q-35 0 -62.5 -18t-66.5 -64zM-489 1081q0 65 56.5 104.5t158.5 53.5l57 -133q-68 -10 -94.5 -30t-26.5 -52q0 -60 64 -127l-84 -31 q-131 109 -131 215zM156 0v1425h180v-626h631v626h180v-1425h-180v641h-631v-641h-180z" />
<glyph unicode="&#x1f30;" horiz-adv-x="460" d="M88 1430l59 165q112 -21 175 -75t63 -142q0 -52 -32.5 -121.5t-98.5 -128.5l-88 39q53 72 53 144q0 97 -131 119zM139 227v785h168v-776q0 -63 16.5 -78t75.5 -15l-4 -143q-20 -2 -43 -2q-121 0 -167 51t-46 178z" />
<glyph unicode="&#x1f31;" horiz-adv-x="460" d="M84 1378q0 88 63 142t175 75l59 -165q-131 -22 -131 -119q0 -72 53 -144l-88 -39q-66 59 -98.5 128.5t-32.5 121.5zM139 227v785h168v-776q0 -63 16.5 -78t75.5 -15l-4 -143q-20 -2 -43 -2q-121 0 -167 51t-46 178z" />
<glyph unicode="&#x1f32;" horiz-adv-x="460" d="M-133 1432l59 165q112 -21 175 -75t63 -142q0 -52 -32.5 -121.5t-98.5 -128.5l-88 39q53 72 53 144q0 97 -131 119zM139 227v785h168v-776q0 -63 16.5 -78t75.5 -15l-4 -143q-20 -2 -43 -2q-121 0 -167 51t-46 178zM180 1563l203 34l176 -430l-94 -32z" />
<glyph unicode="&#x1f33;" horiz-adv-x="460" d="M-121 1382q0 88 63 142t175 75l59 -165q-131 -22 -131 -119q0 -72 53 -144l-88 -38q-66 59 -98.5 128t-32.5 121zM139 227v785h168v-776q0 -63 16.5 -78t75.5 -15l-4 -143q-20 -2 -43 -2q-121 0 -167 51t-46 178zM188 1567l203 35l176 -431l-94 -32z" />
<glyph unicode="&#x1f34;" horiz-adv-x="460" d="M-41 1427l59 166q112 -21 175 -75t63 -142q0 -52 -32.5 -121.5t-98.5 -128.5l-88 39q53 72 53 144q0 96 -131 118zM139 227v785h168v-776q0 -63 16.5 -78t75.5 -15l-4 -143q-20 -2 -43 -2q-121 0 -167 51t-46 178zM297 1167l184 430l195 -34l-285 -428z" />
<glyph unicode="&#x1f35;" horiz-adv-x="460" d="M-18 1376q0 88 62.5 142t174.5 75l60 -166q-132 -22 -132 -118q0 -70 54 -144l-88 -39q-66 59 -98.5 128.5t-32.5 121.5zM139 227v785h168v-776q0 -63 16.5 -78t75.5 -15l-4 -143q-20 -2 -43 -2q-121 0 -167 51t-46 178zM279 1167l184 430l194 -34l-284 -428z" />
<glyph unicode="&#x1f36;" horiz-adv-x="460" d="M-113 1548q41 86 100.5 134.5t121.5 48.5q52 0 146.5 -48.5t127.5 -48.5q65 0 125 92l106 -59q-86 -182 -219 -182q-51 0 -146.5 46t-133.5 46q-35 0 -62.5 -18t-66.5 -64zM102 1325l58 133q103 -14 160 -54t57 -104q0 -43 -30.5 -99t-102.5 -116l-84 31q65 68 65 127 q0 32 -27.5 52t-95.5 30zM139 227v785h168v-776q0 -63 16.5 -78t75.5 -15l-4 -143q-20 -2 -43 -2q-121 0 -167 51t-46 178z" />
<glyph unicode="&#x1f37;" horiz-adv-x="460" d="M-115 1556q41 86 100 134.5t121 48.5q52 0 147 -48.5t128 -48.5q64 0 125 93l106 -60q-86 -182 -219 -182q-51 0 -146.5 46t-133.5 46q-35 0 -62.5 -18t-66.5 -64zM86 1305q0 128 215 157l57 -133q-68 -10 -94 -30t-26 -52q0 -61 63 -127l-84 -30q-131 109 -131 215z M139 227v785h168v-776q0 -63 16.5 -78t75.5 -15l-4 -143q-20 -2 -43 -2q-121 0 -167 51t-46 178z" />
<glyph unicode="&#x1f38;" horiz-adv-x="493" d="M-291 1327l60 166q112 -21 174.5 -75t62.5 -142q0 -52 -32.5 -121.5t-98.5 -128.5l-88 39q53 72 53 143q0 97 -131 119zM156 0v1425h180v-1425h-180z" />
<glyph unicode="&#x1f39;" horiz-adv-x="493" d="M-289 1276q0 88 63 142t175 75l59 -166q-131 -22 -131 -119q0 -71 53 -143l-88 -39q-66 59 -98.5 128.5t-32.5 121.5zM156 0v1425h180v-1425h-180z" />
<glyph unicode="&#x1f3a;" horiz-adv-x="493" d="M-621 1329l60 166q112 -21 174.5 -75t62.5 -142q0 -52 -32.5 -121.5t-98.5 -128.5l-88 39q54 74 54 143q0 97 -132 119zM-307 1460l203 35l176 -430l-95 -33zM156 0v1425h180v-1425h-180z" />
<glyph unicode="&#x1f3b;" horiz-adv-x="493" d="M-612 1276q0 88 62.5 142t174.5 75l60 -166q-131 -22 -131 -119q0 -71 53 -143l-88 -39q-66 59 -98.5 128.5t-32.5 121.5zM-303 1460l203 35l176 -430l-94 -33zM156 0v1425h180v-1425h-180z" />
<glyph unicode="&#x1f3c;" horiz-adv-x="493" d="M-623 1325l60 166q112 -21 174.5 -75t62.5 -142q0 -52 -32.5 -121.5t-98.5 -128.5l-88 39q53 72 53 143q0 97 -131 119zM-285 1065l185 430l194 -35l-284 -428zM156 0v1425h180v-1425h-180z" />
<glyph unicode="&#x1f3d;" horiz-adv-x="493" d="M-584 1274q0 88 63 142t175 75l59 -166q-131 -22 -131 -119q0 -71 53 -143l-88 -39q-66 59 -98.5 128.5t-32.5 121.5zM-287 1065l185 430l194 -35l-285 -428zM156 0v1425h180v-1425h-180z" />
<glyph unicode="&#x1f3e;" horiz-adv-x="493" d="M-662 1323q41 85 100.5 133.5t121.5 48.5q52 0 146.5 -48t127.5 -48q65 0 125 92l107 -59q-86 -182 -220 -182q-51 0 -146.5 46t-133.5 46q-35 0 -62.5 -18t-66.5 -64zM-446 1100l57 133q103 -14 160 -54t57 -104q0 -43 -30.5 -99t-102.5 -116l-84 31q65 68 65 127 q0 32 -27 52t-95 30zM156 0v1425h180v-1425h-180z" />
<glyph unicode="&#x1f3f;" horiz-adv-x="493" d="M-662 1331q41 85 100.5 133.5t121.5 48.5q52 0 146.5 -48t127.5 -48q65 0 125 92l107 -59q-86 -182 -220 -182q-51 0 -146.5 46t-133.5 46q-35 0 -62.5 -18t-66.5 -64zM-461 1079q0 65 56.5 104.5t158.5 53.5l58 -133q-68 -10 -94.5 -30t-26.5 -52q0 -61 63 -127l-84 -31 q-131 109 -131 215zM156 0v1425h180v-1425h-180z" />
<glyph unicode="&#x1f40;" horiz-adv-x="1052" d="M104 504q0 184 52 291q51 109 151 169t232 60q109 0 195.5 -44t139.5 -126q70 -110 70 -311q0 -262 -63 -369q-52 -89 -148 -137.5t-217 -48.5q-110 0 -197 39t-139 114q-76 116 -76 363zM272 502q0 -153 31 -221q30 -67 85.5 -103.5t129.5 -36.5q85 0 148.5 45t91.5 136 q16 56 16 215q0 124 -26 188q-28 73 -85 110t-131 37q-75 0 -133.5 -37.5t-89.5 -105.5q-34 -71 -37 -227zM381 1430l59 165q112 -21 175 -75t63 -142q0 -52 -32.5 -121.5t-98.5 -128.5l-88 39q53 72 53 144q0 97 -131 119z" />
<glyph unicode="&#x1f41;" horiz-adv-x="1052" d="M104 504q0 184 52 291q51 109 151 169t232 60q109 0 195.5 -44t139.5 -126q70 -110 70 -311q0 -262 -63 -369q-52 -89 -148 -137.5t-217 -48.5q-110 0 -197 39t-139 114q-76 116 -76 363zM272 502q0 -153 31 -221q30 -67 85.5 -103.5t129.5 -36.5q85 0 148.5 45t91.5 136 q16 56 16 215q0 124 -26 188q-28 73 -85 110t-131 37q-75 0 -133.5 -37.5t-89.5 -105.5q-34 -71 -37 -227zM391 1378q0 88 63 142t175 75l59 -165q-131 -22 -131 -119q0 -72 53 -144l-88 -39q-66 59 -98.5 128.5t-32.5 121.5z" />
<glyph unicode="&#x1f42;" horiz-adv-x="1052" d="M104 504q0 184 52 291q51 109 151 169t232 60q109 0 195.5 -44t139.5 -126q70 -110 70 -311q0 -262 -63 -369q-52 -89 -148 -137.5t-217 -48.5q-110 0 -197 39t-139 114q-76 116 -76 363zM139 1432l60 165q112 -21 174.5 -75t62.5 -142q0 -52 -32.5 -121.5t-98.5 -128.5 l-88 39q53 72 53 144q0 97 -131 119zM272 502q0 -153 31 -221q30 -67 85.5 -103.5t129.5 -36.5q85 0 148.5 45t91.5 136q16 56 16 215q0 124 -26 188q-28 73 -85 110t-131 37q-75 0 -133.5 -37.5t-89.5 -105.5q-34 -71 -37 -227zM453 1563l202 34l176 -430l-94 -32z" />
<glyph unicode="&#x1f43;" horiz-adv-x="1052" d="M104 504q0 184 52 291q51 109 151 169t232 60q109 0 195.5 -44t139.5 -126q70 -110 70 -311q0 -262 -63 -369q-52 -89 -148 -137.5t-217 -48.5q-110 0 -197 39t-139 114q-76 116 -76 363zM180 1378q0 88 63 142t175 75l59 -165q-131 -22 -131 -119q0 -72 53 -144l-88 -39 q-66 59 -98.5 128.5t-32.5 121.5zM272 502q0 -153 31 -221q30 -67 85.5 -103.5t129.5 -36.5q85 0 148.5 45t91.5 136q16 56 16 215q0 124 -26 188q-28 73 -85 110t-131 37q-75 0 -133.5 -37.5t-89.5 -105.5q-34 -71 -37 -227zM489 1563l203 34l176 -430l-94 -32z" />
<glyph unicode="&#x1f44;" horiz-adv-x="1052" d="M104 504q0 184 52 291q51 109 151 169t232 60q109 0 195.5 -44t139.5 -126q70 -110 70 -311q0 -262 -63 -369q-52 -89 -148 -137.5t-217 -48.5q-110 0 -197 39t-139 114q-76 116 -76 363zM258 1427l59 166q112 -21 175 -75t63 -142q0 -52 -32.5 -121.5t-98.5 -128.5 l-88 39q53 72 53 144q0 96 -131 118zM272 502q0 -153 31 -221q30 -67 85.5 -103.5t129.5 -36.5q85 0 148.5 45t91.5 136q16 56 16 215q0 124 -26 188q-28 73 -85 110t-131 37q-75 0 -133.5 -37.5t-89.5 -105.5q-34 -71 -37 -227zM596 1167l184 430l195 -34l-285 -428z" />
<glyph unicode="&#x1f45;" horiz-adv-x="1052" d="M104 504q0 184 52 291q51 109 151 169t232 60q109 0 195.5 -44t139.5 -126q70 -110 70 -311q0 -262 -63 -369q-52 -89 -148 -137.5t-217 -48.5q-110 0 -197 39t-139 114q-76 116 -76 363zM272 502q0 -153 31 -221q30 -67 85.5 -103.5t129.5 -36.5q85 0 148.5 45t91.5 136 q16 56 16 215q0 124 -26 188q-28 73 -85 110t-131 37q-75 0 -133.5 -37.5t-89.5 -105.5q-34 -71 -37 -227zM287 1376q0 88 62.5 142t174.5 75l60 -166q-131 -22 -131 -118q0 -72 53 -144l-88 -39q-66 59 -98.5 128.5t-32.5 121.5zM584 1167l184 430l195 -34l-285 -428z" />
<glyph unicode="&#x1f48;" horiz-adv-x="1218" d="M-281 1327l60 166q112 -21 174.5 -75t62.5 -142q0 -52 -32.5 -121.5t-98.5 -128.5l-88 39q53 72 53 143q0 97 -131 119zM102 516v393q0 107 32 200.5t93 167t159 116.5t222 43q231 0 369.5 -148t138.5 -379v-393q0 -242 -138 -385t-370 -143q-124 0 -222 42t-159 115.5 t-93 167.5t-32 203zM281 526q0 -97 35 -179.5t111.5 -136.5t182.5 -54q148 0 237 104.5t89 265.5v379q0 154 -89 257.5t-237 103.5q-106 0 -182.5 -53t-111.5 -133.5t-35 -174.5v-379z" />
<glyph unicode="&#x1f49;" horiz-adv-x="1218" d="M-274 1276q0 88 62.5 142t174.5 75l60 -166q-132 -22 -132 -119q0 -69 54 -143l-88 -39q-66 59 -98.5 128.5t-32.5 121.5zM102 516v393q0 107 32 200.5t93 167t159 116.5t222 43q231 0 369.5 -148t138.5 -379v-393q0 -242 -138 -385t-370 -143q-124 0 -222 42t-159 115.5 t-93 167.5t-32 203zM281 526q0 -97 35 -179.5t111.5 -136.5t182.5 -54q148 0 237 104.5t89 265.5v379q0 154 -89 257.5t-237 103.5q-106 0 -182.5 -53t-111.5 -133.5t-35 -174.5v-379z" />
<glyph unicode="&#x1f4a;" horiz-adv-x="1218" d="M-680 1329l59 166q112 -21 175 -75t63 -142q0 -52 -32.5 -121.5t-98.5 -128.5l-88 39q53 72 53 143q0 97 -131 119zM-367 1460l203 35l176 -430l-94 -33zM102 516v393q0 107 32 200.5t93 167t159 116.5t222 43q231 0 369.5 -148t138.5 -379v-393q0 -242 -138 -385 t-370 -143q-124 0 -222 42t-159 115.5t-93 167.5t-32 203zM281 526q0 -97 35 -179.5t111.5 -136.5t182.5 -54q148 0 237 104.5t89 265.5v379q0 154 -89 257.5t-237 103.5q-106 0 -182.5 -53t-111.5 -133.5t-35 -174.5v-379z" />
<glyph unicode="&#x1f4b;" horiz-adv-x="1218" d="M-666 1276q0 88 63 142t175 75l59 -166q-131 -22 -131 -119q0 -69 54 -143l-89 -39q-66 59 -98.5 128.5t-32.5 121.5zM-356 1460l202 35l177 -430l-95 -33zM102 516v393q0 107 32 200.5t93 167t159 116.5t222 43q231 0 369.5 -148t138.5 -379v-393q0 -242 -138 -385 t-370 -143q-124 0 -222 42t-159 115.5t-93 167.5t-32 203zM281 526q0 -97 35 -179.5t111.5 -136.5t182.5 -54q148 0 237 104.5t89 265.5v379q0 154 -89 257.5t-237 103.5q-106 0 -182.5 -53t-111.5 -133.5t-35 -174.5v-379z" />
<glyph unicode="&#x1f4c;" horiz-adv-x="1218" d="M-645 1325l59 166q112 -21 175 -75t63 -142q0 -52 -32.5 -121.5t-98.5 -128.5l-88 39q53 72 53 143q0 97 -131 119zM-307 1065l184 430l195 -35l-285 -428zM102 516v393q0 107 32 200.5t93 167t159 116.5t222 43q231 0 369.5 -148t138.5 -379v-393q0 -242 -138 -385 t-370 -143q-124 0 -222 42t-159 115.5t-93 167.5t-32 203zM281 526q0 -97 35 -179.5t111.5 -136.5t182.5 -54q148 0 237 104.5t89 265.5v379q0 154 -89 257.5t-237 103.5q-106 0 -182.5 -53t-111.5 -133.5t-35 -174.5v-379z" />
<glyph unicode="&#x1f4d;" horiz-adv-x="1218" d="M-602 1274q0 88 62.5 142t174.5 75l60 -166q-131 -22 -131 -119q0 -71 53 -143l-88 -39q-66 59 -98.5 128.5t-32.5 121.5zM-305 1065l184 430l195 -35l-285 -428zM102 516v393q0 107 32 200.5t93 167t159 116.5t222 43q231 0 369.5 -148t138.5 -379v-393 q0 -242 -138 -385t-370 -143q-124 0 -222 42t-159 115.5t-93 167.5t-32 203zM281 526q0 -97 35 -179.5t111.5 -136.5t182.5 -54q148 0 237 104.5t89 265.5v379q0 154 -89 257.5t-237 103.5q-106 0 -182.5 -53t-111.5 -133.5t-35 -174.5v-379z" />
<glyph unicode="&#x1f50;" horiz-adv-x="1083" d="M139 354v662h168v-610q0 -115 66.5 -185.5t169.5 -70.5t169 70.5t66 185.5v610h168v-662q0 -162 -113 -264t-292 -102t-290.5 102t-111.5 264zM395 1430l60 165q112 -21 174.5 -75t62.5 -142q0 -52 -32.5 -121.5t-98.5 -128.5l-88 39q53 72 53 144q0 97 -131 119z" />
<glyph unicode="&#x1f51;" horiz-adv-x="1083" d="M139 354v662h168v-610q0 -115 66.5 -185.5t169.5 -70.5t169 70.5t66 185.5v610h168v-662q0 -162 -113 -264t-292 -102t-290.5 102t-111.5 264zM406 1378q0 88 62.5 142t174.5 75l59 -165q-131 -22 -131 -119q0 -70 54 -144l-88 -39q-66 59 -98.5 128.5t-32.5 121.5z" />
<glyph unicode="&#x1f52;" horiz-adv-x="1083" d="M139 354v662h168v-610q0 -115 66.5 -185.5t169.5 -70.5t169 70.5t66 185.5v610h168v-662q0 -162 -113 -264t-292 -102t-290.5 102t-111.5 264zM160 1432l59 165q112 -21 175 -75t63 -142q0 -52 -32.5 -121.5t-98.5 -128.5l-88 39q53 72 53 144q0 97 -131 119zM473 1563 l203 34l176 -430l-94 -32z" />
<glyph unicode="&#x1f53;" horiz-adv-x="1083" d="M139 354v662h168v-610q0 -115 66.5 -185.5t169.5 -70.5t169 70.5t66 185.5v610h168v-662q0 -162 -113 -264t-292 -102t-290.5 102t-111.5 264zM209 1378q0 88 62.5 142t174.5 75l60 -165q-131 -22 -131 -119q0 -72 53 -144l-88 -39q-66 59 -98.5 128.5t-32.5 121.5z M518 1563l203 34l176 -430l-94 -32z" />
<glyph unicode="&#x1f54;" horiz-adv-x="1083" d="M139 354v662h168v-610q0 -115 66.5 -185.5t169.5 -70.5t169 70.5t66 185.5v610h168v-662q0 -162 -113 -264t-292 -102t-290.5 102t-111.5 264zM274 1427l60 166q112 -21 174.5 -75t62.5 -142q0 -52 -32.5 -121.5t-98.5 -128.5l-88 39q54 74 54 144q0 96 -132 118z M612 1167l185 430l194 -34l-284 -428z" />
<glyph unicode="&#x1f55;" horiz-adv-x="1083" d="M139 354v662h168v-610q0 -115 66.5 -185.5t169.5 -70.5t169 70.5t66 185.5v610h168v-662q0 -162 -113 -264t-292 -102t-290.5 102t-111.5 264zM299 1376q0 88 63 142t175 75l59 -166q-131 -22 -131 -118q0 -72 53 -144l-88 -39q-66 59 -98.5 128.5t-32.5 121.5zM596 1167 l184 430l195 -34l-285 -428z" />
<glyph unicode="&#x1f56;" horiz-adv-x="1083" d="M139 354v662h168v-610q0 -115 66.5 -185.5t169.5 -70.5t169 70.5t66 185.5v610h168v-662q0 -162 -113 -264t-292 -102t-290.5 102t-111.5 264zM197 1548q41 86 100 134.5t121 48.5q52 0 146.5 -48.5t127.5 -48.5q65 0 125 92l107 -59q-86 -182 -219 -182q-51 0 -147 46 t-134 46q-35 0 -62.5 -18t-66.5 -64zM412 1325l57 133q103 -14 160 -54t57 -104q0 -43 -30.5 -99t-102.5 -116l-84 31q66 69 66 127q0 32 -27.5 52t-95.5 30z" />
<glyph unicode="&#x1f57;" horiz-adv-x="1083" d="M139 354v662h168v-610q0 -115 66.5 -185.5t169.5 -70.5t169 70.5t66 185.5v610h168v-662q0 -162 -113 -264t-292 -102t-290.5 102t-111.5 264zM174 1556q41 86 100 134.5t121 48.5q52 0 147 -48.5t128 -48.5q64 0 125 93l106 -60q-86 -182 -219 -182q-51 0 -147 46 t-134 46q-35 0 -62.5 -18t-66.5 -64zM375 1305q0 128 215 157l57 -133q-68 -10 -94.5 -30t-26.5 -52q0 -60 64 -127l-84 -30q-131 109 -131 215z" />
<glyph unicode="&#x1f59;" horiz-adv-x="1040" d="M-330 1276q0 88 63 142t175 75l59 -166q-131 -22 -131 -119q0 -71 53 -143l-88 -39q-66 59 -98.5 128.5t-32.5 121.5zM4 1425h191l198 -395l127 -272l133 284l193 383h186l-428 -860v-565h-172v565z" />
<glyph unicode="&#x1f5b;" horiz-adv-x="1040" d="M-723 1276q0 88 63 142t175 75l59 -166q-131 -22 -131 -119q0 -71 53 -143l-88 -39q-66 59 -98.5 128.5t-32.5 121.5zM-414 1460l203 35l176 -430l-94 -33zM4 1425h191l198 -395l127 -272l133 284l193 383h186l-428 -860v-565h-172v565z" />
<glyph unicode="&#x1f5d;" horiz-adv-x="1040" d="M-692 1274q0 88 62.5 142t174.5 75l60 -166q-131 -22 -131 -119q0 -71 53 -143l-88 -39q-66 59 -98.5 128.5t-32.5 121.5zM-395 1065l184 430l195 -35l-285 -428zM4 1425h191l198 -395l127 -272l133 284l193 383h186l-428 -860v-565h-172v565z" />
<glyph unicode="&#x1f5f;" horiz-adv-x="1040" d="M-803 1335q41 86 100 134.5t121 48.5q52 0 147 -48.5t128 -48.5q65 0 125 92l106 -59q-86 -182 -219 -182q-51 0 -146.5 46t-133.5 46q-35 0 -63 -18t-67 -64zM-602 1083q0 65 56.5 104.5t158.5 53.5l57 -133q-68 -10 -94.5 -30t-26.5 -52q0 -60 64 -127l-84 -31 q-131 109 -131 215zM4 1425h191l198 -395l127 -272l133 284l193 383h186l-428 -860v-565h-172v565z" />
<glyph unicode="&#x1f60;" horiz-adv-x="1540" d="M90 504q0 235 88.5 371.5t276.5 148.5l18 -158q-211 -23 -211 -364q0 -164 52.5 -259.5t158.5 -95.5q101 0 156 68t55 184v379h168v-379q0 -116 59 -182.5t166 -66.5q106 0 158.5 95t52.5 259q0 336 -207 362l25 158q354 -22 354 -518q0 -516 -387 -516q-189 0 -299 151 q-63 -76 -134.5 -114.5t-162.5 -38.5q-387 0 -387 516zM627 1430l59 165q112 -21 175 -75t63 -142q0 -52 -32.5 -121.5t-98.5 -128.5l-88 39q53 72 53 144q0 97 -131 119z" />
<glyph unicode="&#x1f61;" horiz-adv-x="1540" d="M90 504q0 235 88.5 371.5t276.5 148.5l18 -158q-211 -23 -211 -364q0 -164 52.5 -259.5t158.5 -95.5q101 0 156 68t55 184v379h168v-379q0 -116 59 -182.5t166 -66.5q106 0 158.5 95t52.5 259q0 336 -207 362l25 158q354 -22 354 -518q0 -516 -387 -516q-189 0 -299 151 q-63 -76 -134.5 -114.5t-162.5 -38.5q-387 0 -387 516zM627 1378q0 88 62.5 142t174.5 75l60 -165q-131 -22 -131 -119q0 -72 53 -144l-88 -39q-66 59 -98.5 128.5t-32.5 121.5z" />
<glyph unicode="&#x1f62;" horiz-adv-x="1540" d="M90 504q0 235 88.5 371.5t276.5 148.5l18 -158q-211 -23 -211 -364q0 -164 52.5 -259.5t158.5 -95.5q101 0 156 68t55 184v379h168v-379q0 -116 59 -182.5t166 -66.5q106 0 158.5 95t52.5 259q0 336 -207 362l25 158q354 -22 354 -518q0 -516 -387 -516q-189 0 -299 151 q-63 -76 -134.5 -114.5t-162.5 -38.5q-387 0 -387 516zM395 1432l60 165q112 -21 174.5 -75t62.5 -142q0 -52 -32.5 -121.5t-98.5 -128.5l-88 39q53 72 53 144q0 97 -131 119zM709 1563l202 34l176 -430l-94 -32z" />
<glyph unicode="&#x1f63;" horiz-adv-x="1540" d="M90 504q0 235 88.5 371.5t276.5 148.5l18 -158q-211 -23 -211 -364q0 -164 52.5 -259.5t158.5 -95.5q101 0 156 68t55 184v379h168v-379q0 -116 59 -182.5t166 -66.5q106 0 158.5 95t52.5 259q0 336 -207 362l25 158q354 -22 354 -518q0 -516 -387 -516q-189 0 -299 151 q-63 -76 -134.5 -114.5t-162.5 -38.5q-387 0 -387 516zM449 1378q0 88 62.5 142t174.5 75l59 -165q-131 -22 -131 -119q0 -70 54 -144l-88 -39q-66 59 -98.5 128.5t-32.5 121.5zM758 1563l203 34l176 -430l-95 -32z" />
<glyph unicode="&#x1f64;" horiz-adv-x="1540" d="M90 504q0 235 88.5 371.5t276.5 148.5l18 -158q-211 -23 -211 -364q0 -164 52.5 -259.5t158.5 -95.5q101 0 156 68t55 184v379h168v-379q0 -116 59 -182.5t166 -66.5q106 0 158.5 95t52.5 259q0 336 -207 362l25 158q354 -22 354 -518q0 -516 -387 -516q-189 0 -299 151 q-63 -76 -134.5 -114.5t-162.5 -38.5q-387 0 -387 516zM500 1427l59 166q112 -21 175 -75t63 -142q0 -52 -32.5 -121.5t-98.5 -128.5l-88 39q53 72 53 144q0 96 -131 118zM838 1167l184 430l195 -34l-285 -428z" />
<glyph unicode="&#x1f65;" horiz-adv-x="1540" d="M90 504q0 235 88.5 371.5t276.5 148.5l18 -158q-211 -23 -211 -364q0 -164 52.5 -259.5t158.5 -95.5q101 0 156 68t55 184v379h168v-379q0 -116 59 -182.5t166 -66.5q106 0 158.5 95t52.5 259q0 336 -207 362l25 158q354 -22 354 -518q0 -516 -387 -516q-189 0 -299 151 q-63 -76 -134.5 -114.5t-162.5 -38.5q-387 0 -387 516zM537 1376q0 88 62.5 142t174.5 75l60 -166q-132 -22 -132 -118q0 -70 54 -144l-88 -39q-66 59 -98.5 128.5t-32.5 121.5zM834 1167l184 430l194 -34l-284 -428z" />
<glyph unicode="&#x1f66;" horiz-adv-x="1540" d="M90 504q0 235 88.5 371.5t276.5 148.5l18 -158q-211 -23 -211 -364q0 -164 52.5 -259.5t158.5 -95.5q101 0 156 68t55 184v379h168v-379q0 -116 59 -182.5t166 -66.5q106 0 158.5 95t52.5 259q0 336 -207 362l25 158q354 -22 354 -518q0 -516 -387 -516q-189 0 -299 151 q-63 -76 -134.5 -114.5t-162.5 -38.5q-387 0 -387 516zM436 1548q41 86 100 134.5t121 48.5q52 0 147 -48.5t128 -48.5q65 0 125 92l106 -59q-86 -182 -219 -182q-51 0 -146.5 46t-133.5 46q-35 0 -62.5 -18t-66.5 -64zM651 1325l58 133q103 -14 160 -54t57 -104 q0 -43 -30.5 -99t-102.5 -116l-84 31q65 68 65 127q0 32 -27.5 52t-95.5 30z" />
<glyph unicode="&#x1f67;" horiz-adv-x="1540" d="M90 504q0 235 88.5 371.5t276.5 148.5l18 -158q-211 -23 -211 -364q0 -164 52.5 -259.5t158.5 -95.5q101 0 156 68t55 184v379h168v-379q0 -116 59 -182.5t166 -66.5q106 0 158.5 95t52.5 259q0 336 -207 362l25 158q354 -22 354 -518q0 -516 -387 -516q-189 0 -299 151 q-63 -76 -134.5 -114.5t-162.5 -38.5q-387 0 -387 516zM414 1556q41 86 100 134.5t121 48.5q52 0 146.5 -48.5t127.5 -48.5q64 0 125 93l107 -60q-86 -182 -219 -182q-51 0 -147 46t-134 46q-35 0 -62.5 -18t-66.5 -64zM614 1305q0 128 215 157l58 -133q-68 -10 -94.5 -30 t-26.5 -52q0 -61 63 -127l-84 -30q-131 109 -131 215z" />
<glyph unicode="&#x1f68;" horiz-adv-x="1187" d="M-289 1327l60 166q112 -21 174.5 -75t62.5 -142q0 -52 -32.5 -121.5t-98.5 -128.5l-88 39q53 72 53 143q0 97 -131 119zM55 0v166h181q-81 50 -116.5 157t-35.5 240v348q0 107 32 200.5t93 167t159 116.5t222 43q231 0 369.5 -148t138.5 -379v-348q0 -283 -152 -397h182 v-166h-419v195q99 35 154 131.5t55 226.5v354q0 157 -85.5 261t-240.5 104q-84 0 -149.5 -31t-103.5 -83.5t-57.5 -116t-19.5 -134.5v-354q0 -120 55.5 -218.5t159.5 -139.5l-2 -195h-420z" />
<glyph unicode="&#x1f69;" horiz-adv-x="1187" d="M-287 1276q0 88 63 142t175 75l59 -166q-131 -22 -131 -119q0 -71 53 -143l-88 -39q-66 59 -98.5 128.5t-32.5 121.5zM55 0v166h181q-81 50 -116.5 157t-35.5 240v348q0 107 32 200.5t93 167t159 116.5t222 43q231 0 369.5 -148t138.5 -379v-348q0 -283 -152 -397h182 v-166h-419v195q99 35 154 131.5t55 226.5v354q0 157 -85.5 261t-240.5 104q-84 0 -149.5 -31t-103.5 -83.5t-57.5 -116t-19.5 -134.5v-354q0 -120 55.5 -218.5t159.5 -139.5l-2 -195h-420z" />
<glyph unicode="&#x1f6a;" horiz-adv-x="1187" d="M-680 1329l59 166q112 -21 175 -75t63 -142q0 -52 -32.5 -121.5t-98.5 -128.5l-88 39q53 72 53 143q0 97 -131 119zM-367 1460l203 35l176 -430l-94 -33zM55 0v166h181q-81 50 -116.5 157t-35.5 240v348q0 107 32 200.5t93 167t159 116.5t222 43q231 0 369.5 -148 t138.5 -379v-348q0 -283 -152 -397h182v-166h-419v195q99 35 154 131.5t55 226.5v354q0 157 -85.5 261t-240.5 104q-84 0 -149.5 -31t-103.5 -83.5t-57.5 -116t-19.5 -134.5v-354q0 -120 55.5 -218.5t159.5 -139.5l-2 -195h-420z" />
<glyph unicode="&#x1f6b;" horiz-adv-x="1187" d="M-684 1276q0 88 63 142t175 75l59 -166q-131 -22 -131 -119q0 -71 53 -143l-88 -39q-66 59 -98.5 128.5t-32.5 121.5zM-375 1460l203 35l176 -430l-94 -33zM55 0v166h181q-81 50 -116.5 157t-35.5 240v348q0 107 32 200.5t93 167t159 116.5t222 43q231 0 369.5 -148 t138.5 -379v-348q0 -283 -152 -397h182v-166h-419v195q99 35 154 131.5t55 226.5v354q0 157 -85.5 261t-240.5 104q-84 0 -149.5 -31t-103.5 -83.5t-57.5 -116t-19.5 -134.5v-354q0 -120 55.5 -218.5t159.5 -139.5l-2 -195h-420z" />
<glyph unicode="&#x1f6c;" horiz-adv-x="1187" d="M-625 1325l60 166q112 -21 174.5 -75t62.5 -142q0 -52 -32.5 -121.5t-98.5 -128.5l-88 39q53 72 53 143q0 97 -131 119zM-287 1065l185 430l194 -35l-285 -428zM55 0v166h181q-81 50 -116.5 157t-35.5 240v348q0 107 32 200.5t93 167t159 116.5t222 43q231 0 369.5 -148 t138.5 -379v-348q0 -283 -152 -397h182v-166h-419v195q99 35 154 131.5t55 226.5v354q0 157 -85.5 261t-240.5 104q-84 0 -149.5 -31t-103.5 -83.5t-57.5 -116t-19.5 -134.5v-354q0 -120 55.5 -218.5t159.5 -139.5l-2 -195h-420z" />
<glyph unicode="&#x1f6d;" horiz-adv-x="1187" d="M-571 1274q0 88 62.5 142t174.5 75l60 -166q-132 -22 -132 -119q0 -69 54 -143l-88 -39q-66 59 -98.5 128.5t-32.5 121.5zM-274 1065l184 430l194 -35l-284 -428zM55 0v166h181q-81 50 -116.5 157t-35.5 240v348q0 107 32 200.5t93 167t159 116.5t222 43 q231 0 369.5 -148t138.5 -379v-348q0 -283 -152 -397h182v-166h-419v195q99 35 154 131.5t55 226.5v354q0 157 -85.5 261t-240.5 104q-84 0 -149.5 -31t-103.5 -83.5t-57.5 -116t-19.5 -134.5v-354q0 -120 55.5 -218.5t159.5 -139.5l-2 -195h-420z" />
<glyph unicode="&#x1f6e;" horiz-adv-x="1187" d="M-608 1321q41 86 100 134t121 48q52 0 146.5 -48t127.5 -48q65 0 125 92l107 -59q-86 -183 -219 -183q-51 0 -147 46.5t-134 46.5q-35 0 -62.5 -18t-66.5 -64zM-393 1098l57 133q103 -14 160 -54t57 -104q0 -43 -30.5 -99t-102.5 -116l-84 31q66 69 66 127q0 32 -27.5 52 t-95.5 30zM55 0v166h181q-81 50 -116.5 157t-35.5 240v348q0 107 32 200.5t93 167t159 116.5t222 43q231 0 369.5 -148t138.5 -379v-348q0 -283 -152 -397h182v-166h-419v195q99 35 154 131.5t55 226.5v354q0 157 -85.5 261t-240.5 104q-84 0 -149.5 -31t-103.5 -83.5 t-57.5 -116t-19.5 -134.5v-354q0 -120 55.5 -218.5t159.5 -139.5l-2 -195h-420z" />
<glyph unicode="&#x1f6f;" horiz-adv-x="1187" d="M-602 1331q41 86 100 134t121 48q52 0 147 -48t128 -48q64 0 124 92l107 -59q-86 -182 -219 -182q-51 0 -147 46t-134 46q-35 0 -62.5 -18t-66.5 -64zM-401 1079q0 65 56.5 104.5t158.5 53.5l57 -133q-68 -10 -94.5 -30t-26.5 -52q0 -60 64 -127l-84 -31 q-131 109 -131 215zM55 0v166h181q-81 50 -116.5 157t-35.5 240v348q0 107 32 200.5t93 167t159 116.5t222 43q231 0 369.5 -148t138.5 -379v-348q0 -283 -152 -397h182v-166h-419v195q99 35 154 131.5t55 226.5v354q0 157 -85.5 261t-240.5 104q-84 0 -149.5 -31 t-103.5 -83.5t-57.5 -116t-19.5 -134.5v-354q0 -120 55.5 -218.5t159.5 -139.5l-2 -195h-420z" />
<glyph unicode="&#x1f70;" horiz-adv-x="1034" d="M98 500q0 86 10.5 159.5t38 142t70 116.5t110.5 77t156 29q170 0 254 -123l4 2v111h168v-1014h-168v113l-4 2q-116 -127 -276 -127q-363 0 -363 512zM217 1563l203 34l176 -430l-94 -32zM272 506q0 -56 4.5 -100t19 -93t39 -81.5t69 -54t104.5 -21.5q233 0 233 350 q0 53 -4 95.5t-18 93t-38.5 85t-68.5 57.5t-104 23q-51 0 -91 -14.5t-65 -42.5t-41.5 -60t-24.5 -75.5t-11 -80t-3 -81.5z" />
<glyph unicode="&#x1f71;" horiz-adv-x="1034" d="M98 500q0 86 10.5 159.5t38 142t70 116.5t110.5 77t156 29q170 0 254 -123l4 2v111h168v-1014h-168v113l-4 2q-116 -127 -276 -127q-363 0 -363 512zM272 506q0 -56 4.5 -100t19 -93t39 -81.5t69 -54t104.5 -21.5q233 0 233 350q0 53 -4 95.5t-18 93t-38.5 85t-68.5 57.5 t-104 23q-51 0 -91 -14.5t-65 -42.5t-41.5 -60t-24.5 -75.5t-11 -80t-3 -81.5zM434 1167l184 430l195 -34l-285 -428z" />
<glyph unicode="&#x1f72;" horiz-adv-x="901" d="M100 291q0 27 8 58t25 66.5t50 66.5t77 48v5q-143 55 -143 200q0 121 96 206t272 85q105 0 199 -33.5t158 -95.5l-105 -127q-38 39 -107.5 64.5t-135.5 25.5q-97 0 -153 -39.5t-56 -97.5q0 -52 39 -84.5t122 -32.5h172v-149h-165q-85 0 -136 -43.5t-51 -110.5t64 -110 t172 -43q66 0 142 29.5t116 72.5l106 -121q-69 -64 -171.5 -101.5t-207.5 -37.5q-176 0 -281.5 80.5t-105.5 218.5zM197 1563l202 34l176 -430l-94 -32z" />
<glyph unicode="&#x1f73;" horiz-adv-x="901" d="M100 291q0 27 8 58t25 66.5t50 66.5t77 48v5q-143 55 -143 200q0 121 96 206t272 85q105 0 199 -33.5t158 -95.5l-105 -127q-38 39 -107.5 64.5t-135.5 25.5q-97 0 -153 -39.5t-56 -97.5q0 -52 39 -84.5t122 -32.5h172v-149h-165q-85 0 -136 -43.5t-51 -110.5t64 -110 t172 -43q66 0 142 29.5t116 72.5l106 -121q-69 -64 -171.5 -101.5t-207.5 -37.5q-176 0 -281.5 80.5t-105.5 218.5zM393 1167l185 430l194 -34l-285 -428z" />
<glyph unicode="&#x1f74;" horiz-adv-x="1073" d="M133 0v1018h168v-129h6q52 66 126.5 101.5t156.5 35.5q153 0 250.5 -91t97.5 -261v-674h-168v608q0 125 -52 188.5t-179 63.5q-103 0 -170.5 -68.5t-67.5 -183.5v-608h-168zM238 1563l202 34l176 -430l-94 -32z" />
<glyph unicode="&#x1f75;" horiz-adv-x="1073" d="M133 0v1018h168v-129h6q52 66 126.5 101.5t156.5 35.5q153 0 250.5 -91t97.5 -261v-674h-168v608q0 125 -52 188.5t-179 63.5q-103 0 -170.5 -68.5t-67.5 -183.5v-608h-168zM414 1167l184 430l195 -34l-285 -428z" />
<glyph unicode="&#x1f76;" horiz-adv-x="460" d="M-63 1563l202 34l176 -430l-94 -32zM139 227v785h168v-776q0 -63 16.5 -78t75.5 -15l-4 -143q-20 -2 -43 -2q-121 0 -167 51t-46 178z" />
<glyph unicode="&#x1f77;" horiz-adv-x="460" d="M139 227v785h168v-776q0 -63 16.5 -78t75.5 -15l-4 -143q-20 -2 -43 -2q-121 0 -167 51t-46 178zM176 1167l184 430l195 -34l-285 -428z" />
<glyph unicode="&#x1f78;" horiz-adv-x="1052" d="M104 504q0 184 52 291q51 109 151 169t232 60q109 0 195.5 -44t139.5 -126q70 -110 70 -311q0 -262 -63 -369q-52 -89 -148 -137.5t-217 -48.5q-110 0 -197 39t-139 114q-76 116 -76 363zM217 1563l203 34l176 -430l-94 -32zM272 502q0 -153 31 -221q30 -67 85.5 -103.5 t129.5 -36.5q85 0 148.5 45t91.5 136q16 56 16 215q0 124 -26 188q-28 73 -85 110t-131 37q-75 0 -133.5 -37.5t-89.5 -105.5q-34 -71 -37 -227z" />
<glyph unicode="&#x1f79;" horiz-adv-x="1052" d="M104 504q0 184 52 291q51 109 151 169t232 60q109 0 195.5 -44t139.5 -126q70 -110 70 -311q0 -262 -63 -369q-52 -89 -148 -137.5t-217 -48.5q-110 0 -197 39t-139 114q-76 116 -76 363zM272 502q0 -153 31 -221q30 -67 85.5 -103.5t129.5 -36.5q85 0 148.5 45t91.5 136 q16 56 16 215q0 124 -26 188q-28 73 -85 110t-131 37q-75 0 -133.5 -37.5t-89.5 -105.5q-34 -71 -37 -227zM463 1167l184 430l195 -34l-285 -428z" />
<glyph unicode="&#x1f7a;" horiz-adv-x="1083" d="M139 354v662h168v-610q0 -115 66.5 -185.5t169.5 -70.5t169 70.5t66 185.5v610h168v-662q0 -162 -113 -264t-292 -102t-290.5 102t-111.5 264zM258 1563l203 34l176 -430l-94 -32z" />
<glyph unicode="&#x1f7b;" horiz-adv-x="1083" d="M139 354v662h168v-610q0 -115 66.5 -185.5t169.5 -70.5t169 70.5t66 185.5v610h168v-662q0 -162 -113 -264t-292 -102t-290.5 102t-111.5 264zM455 1167l184 430l195 -34l-285 -428z" />
<glyph unicode="&#x1f7c;" horiz-adv-x="1540" d="M90 504q0 235 88.5 371.5t276.5 148.5l18 -158q-211 -23 -211 -364q0 -164 52.5 -259.5t158.5 -95.5q101 0 156 68t55 184v379h168v-379q0 -116 59 -182.5t166 -66.5q106 0 158.5 95t52.5 259q0 336 -207 362l25 158q354 -22 354 -518q0 -516 -387 -516q-189 0 -299 151 q-63 -76 -134.5 -114.5t-162.5 -38.5q-387 0 -387 516zM483 1563l203 34l176 -430l-94 -32z" />
<glyph unicode="&#x1f7d;" horiz-adv-x="1540" d="M90 504q0 235 88.5 371.5t276.5 148.5l18 -158q-211 -23 -211 -364q0 -164 52.5 -259.5t158.5 -95.5q101 0 156 68t55 184v379h168v-379q0 -116 59 -182.5t166 -66.5q106 0 158.5 95t52.5 259q0 336 -207 362l25 158q354 -22 354 -518q0 -516 -387 -516q-189 0 -299 151 q-63 -76 -134.5 -114.5t-162.5 -38.5q-387 0 -387 516zM692 1167l185 430l194 -34l-285 -428z" />
<glyph unicode="&#x1f80;" horiz-adv-x="1034" d="M98 500q0 86 10.5 159.5t38 142t70 116.5t110.5 77t156 29q170 0 254 -123l4 2v111h168v-1014h-168v113l-4 2q-116 -127 -276 -127q-363 0 -363 512zM272 506q0 -56 4.5 -100t19 -93t39 -81.5t69 -54t104.5 -21.5q233 0 233 350q0 53 -4 95.5t-18 93t-38.5 85t-68.5 57.5 t-104 23q-51 0 -91 -14.5t-65 -42.5t-41.5 -60t-24.5 -75.5t-11 -80t-3 -81.5zM395 1430l60 165q112 -21 174.5 -75t62.5 -142q0 -52 -32.5 -121.5t-98.5 -128.5l-88 39q53 72 53 144q0 97 -131 119zM463 -117h158v-192q0 -90 98 -90h35v-144h-58q-233 0 -233 221v205z" />
<glyph unicode="&#x1f81;" horiz-adv-x="1034" d="M98 500q0 86 10.5 159.5t38 142t70 116.5t110.5 77t156 29q170 0 254 -123l4 2v111h168v-1014h-168v113l-4 2q-116 -127 -276 -127q-363 0 -363 512zM272 506q0 -56 4.5 -100t19 -93t39 -81.5t69 -54t104.5 -21.5q233 0 233 350q0 53 -4 95.5t-18 93t-38.5 85t-68.5 57.5 t-104 23q-51 0 -91 -14.5t-65 -42.5t-41.5 -60t-24.5 -75.5t-11 -80t-3 -81.5zM412 1378q0 88 62.5 142t174.5 75l60 -165q-131 -22 -131 -119q0 -72 53 -144l-88 -39q-66 59 -98.5 128.5t-32.5 121.5zM463 -117h158v-192q0 -90 98 -90h35v-144h-58q-233 0 -233 221v205z " />
<glyph unicode="&#x1f82;" horiz-adv-x="1034" d="M98 500q0 86 10.5 159.5t38 142t70 116.5t110.5 77t156 29q170 0 254 -123l4 2v111h168v-1014h-168v113l-4 2q-116 -127 -276 -127q-363 0 -363 512zM170 1432l59 165q112 -21 175 -75t63 -142q0 -52 -32.5 -121.5t-98.5 -128.5l-88 39q53 72 53 144q0 97 -131 119z M272 506q0 -56 4.5 -100t19 -93t39 -81.5t69 -54t104.5 -21.5q233 0 233 350q0 53 -4 95.5t-18 93t-38.5 85t-68.5 57.5t-104 23q-51 0 -91 -14.5t-65 -42.5t-41.5 -60t-24.5 -75.5t-11 -80t-3 -81.5zM463 -117h158v-192q0 -90 98 -90h35v-144h-58q-233 0 -233 221v205z M483 1563l203 34l176 -430l-94 -32z" />
<glyph unicode="&#x1f83;" horiz-adv-x="1034" d="M98 500q0 86 10.5 159.5t38 142t70 116.5t110.5 77t156 29q170 0 254 -123l4 2v111h168v-1014h-168v113l-4 2q-116 -127 -276 -127q-363 0 -363 512zM188 1378q0 88 63 142t175 75l59 -165q-131 -22 -131 -119q0 -70 54 -144l-89 -39q-66 59 -98.5 128.5t-32.5 121.5z M272 506q0 -56 4.5 -100t19 -93t39 -81.5t69 -54t104.5 -21.5q233 0 233 350q0 53 -4 95.5t-18 93t-38.5 85t-68.5 57.5t-104 23q-51 0 -91 -14.5t-65 -42.5t-41.5 -60t-24.5 -75.5t-11 -80t-3 -81.5zM463 -117h158v-192q0 -90 98 -90h35v-144h-58q-233 0 -233 221v205z M498 1563l202 34l177 -430l-95 -32z" />
<glyph unicode="&#x1f84;" horiz-adv-x="1034" d="M98 500q0 86 10.5 159.5t38 142t70 116.5t110.5 77t156 29q170 0 254 -123l4 2v111h168v-1014h-168v113l-4 2q-116 -127 -276 -127q-363 0 -363 512zM158 1427l59 166q112 -21 175 -75t63 -142q0 -52 -32.5 -121.5t-98.5 -128.5l-88 39q53 72 53 144q0 96 -131 118z M272 506q0 -56 4.5 -100t19 -93t39 -81.5t69 -54t104.5 -21.5q233 0 233 350q0 53 -4 95.5t-18 93t-38.5 85t-68.5 57.5t-104 23q-51 0 -91 -14.5t-65 -42.5t-41.5 -60t-24.5 -75.5t-11 -80t-3 -81.5zM463 -117h158v-192q0 -90 98 -90h35v-144h-58q-233 0 -233 221v205z M496 1167l184 430l194 -34l-284 -428z" />
<glyph unicode="&#x1f85;" horiz-adv-x="1034" d="M98 500q0 86 10.5 159.5t38 142t70 116.5t110.5 77t156 29q170 0 254 -123l4 2v111h168v-1014h-168v113l-4 2q-116 -127 -276 -127q-363 0 -363 512zM199 1376q0 88 62.5 142t174.5 75l60 -166q-131 -22 -131 -118q0 -72 53 -144l-88 -39q-66 59 -98.5 128.5t-32.5 121.5 zM272 506q0 -56 4.5 -100t19 -93t39 -81.5t69 -54t104.5 -21.5q233 0 233 350q0 53 -4 95.5t-18 93t-38.5 85t-68.5 57.5t-104 23q-51 0 -91 -14.5t-65 -42.5t-41.5 -60t-24.5 -75.5t-11 -80t-3 -81.5zM463 -117h158v-192q0 -90 98 -90h35v-144h-58q-233 0 -233 221v205z M496 1167l184 430l194 -34l-284 -428z" />
<glyph unicode="&#x1f86;" horiz-adv-x="1034" d="M98 500q0 86 10.5 159.5t38 142t70 116.5t110.5 77t156 29q170 0 254 -123l4 2v111h168v-1014h-168v113l-4 2q-116 -127 -276 -127q-363 0 -363 512zM207 1548q41 86 100 134.5t121 48.5q52 0 146.5 -48.5t127.5 -48.5q65 0 125 92l107 -59q-86 -182 -219 -182 q-51 0 -147 46t-134 46q-35 0 -62.5 -18t-66.5 -64zM272 506q0 -56 4.5 -100t19 -93t39 -81.5t69 -54t104.5 -21.5q233 0 233 350q0 53 -4 95.5t-18 93t-38.5 85t-68.5 57.5t-104 23q-51 0 -91 -14.5t-65 -42.5t-41.5 -60t-24.5 -75.5t-11 -80t-3 -81.5zM422 1325l57 133 q103 -14 160 -54t57 -104q0 -43 -30.5 -99t-102.5 -116l-84 31q66 69 66 127q0 32 -27.5 52t-95.5 30zM463 -117h158v-192q0 -90 98 -90h35v-144h-58q-233 0 -233 221v205z" />
<glyph unicode="&#x1f87;" horiz-adv-x="1034" d="M98 500q0 86 10.5 159.5t38 142t70 116.5t110.5 77t156 29q170 0 254 -123l4 2v111h168v-1014h-168v113l-4 2q-116 -127 -276 -127q-363 0 -363 512zM199 1556q41 86 100 134.5t121 48.5q52 0 146.5 -48.5t127.5 -48.5q64 0 125 93l107 -60q-86 -182 -219 -182 q-51 0 -147 46t-134 46q-35 0 -62.5 -18t-66.5 -64zM272 506q0 -56 4.5 -100t19 -93t39 -81.5t69 -54t104.5 -21.5q233 0 233 350q0 53 -4 95.5t-18 93t-38.5 85t-68.5 57.5t-104 23q-51 0 -91 -14.5t-65 -42.5t-41.5 -60t-24.5 -75.5t-11 -80t-3 -81.5zM399 1305 q0 128 215 157l58 -133q-68 -10 -94.5 -30t-26.5 -52q0 -61 63 -127l-84 -30q-131 109 -131 215zM463 -117h158v-192q0 -90 98 -90h35v-144h-58q-233 0 -233 221v205z" />
<glyph unicode="&#x1f88;" horiz-adv-x="1714" d="M-43 1315l59 166q112 -21 175 -75t63 -142q0 -52 -32.5 -121.5t-98.5 -128.5l-88 39q53 72 53 143q0 97 -131 119zM12 0l523 1425h155l522 -1425h-190l-115 328h-592l-114 -328h-189zM367 483h489l-137 400l-105 303h-6l-100 -295zM1331 236v780h168v-766q0 -96 105 -96 h49v-154h-72q-250 0 -250 236z" />
<glyph unicode="&#x1f89;" horiz-adv-x="1714" d="M-49 1266q0 88 62.5 142t174.5 75l60 -166q-131 -22 -131 -119q0 -71 53 -143l-88 -39q-66 59 -98.5 128.5t-32.5 121.5zM12 0l523 1425h155l522 -1425h-190l-115 328h-592l-114 -328h-189zM367 483h489l-137 400l-105 303h-6l-100 -295zM1331 236v780h168v-766 q0 -96 105 -96h49v-154h-72q-250 0 -250 236z" />
<glyph unicode="&#x1f8a;" horiz-adv-x="1714" d="M-414 1317l60 166q112 -21 174.5 -75t62.5 -142q0 -52 -32.5 -121.5t-98.5 -128.5l-88 39q53 72 53 143q0 97 -131 119zM-100 1448l202 35l177 -430l-95 -33zM12 0l523 1425h155l522 -1425h-190l-115 328h-592l-114 -328h-189zM367 483h489l-137 400l-105 303h-6 l-100 -295zM1331 236v780h168v-766q0 -96 105 -96h49v-154h-72q-250 0 -250 236z" />
<glyph unicode="&#x1f8b;" horiz-adv-x="1714" d="M-393 1266q0 88 62.5 142t174.5 75l60 -166q-131 -22 -131 -119q0 -71 53 -143l-88 -39q-66 59 -98.5 128.5t-32.5 121.5zM-84 1450l203 35l176 -430l-94 -33zM12 0l523 1425h155l522 -1425h-190l-115 328h-592l-114 -328h-189zM367 483h489l-137 400l-105 303h-6 l-100 -295zM1331 236v780h168v-766q0 -96 105 -96h49v-154h-72q-250 0 -250 236z" />
<glyph unicode="&#x1f8c;" horiz-adv-x="1714" d="M-426 1311l59 166q112 -21 175 -75t63 -142q0 -52 -32.5 -121.5t-98.5 -128.5l-88 39q53 72 53 143q0 97 -131 119zM-88 1051l184 430l195 -35l-285 -428zM12 0l523 1425h155l522 -1425h-190l-115 328h-592l-114 -328h-189zM367 483h489l-137 400l-105 303h-6l-100 -295z M1331 236v780h168v-766q0 -96 105 -96h49v-154h-72q-250 0 -250 236z" />
<glyph unicode="&#x1f8d;" horiz-adv-x="1714" d="M-383 1264q0 88 63 142t175 75l59 -166q-131 -22 -131 -119q0 -71 53 -143l-88 -39q-66 59 -98.5 128.5t-32.5 121.5zM-86 1055l184 430l195 -35l-285 -428zM12 0l523 1425h155l522 -1425h-190l-115 328h-592l-114 -328h-189zM367 483h489l-137 400l-105 303h-6 l-100 -295zM1331 236v780h168v-766q0 -96 105 -96h49v-154h-72q-250 0 -250 236z" />
<glyph unicode="&#x1f8e;" horiz-adv-x="1714" d="M-371 1323q41 86 100 134t121 48q52 0 147 -48t128 -48q65 0 125 92l106 -59q-86 -182 -219 -182q-51 0 -146.5 46t-133.5 46q-35 0 -62.5 -18t-66.5 -64zM-156 1100l58 133q103 -14 160 -54t57 -104q0 -43 -30.5 -99t-102.5 -116l-84 31q65 68 65 127q0 32 -27.5 52 t-95.5 30zM12 0l523 1425h155l522 -1425h-190l-115 328h-592l-114 -328h-189zM367 483h489l-137 400l-105 303h-6l-100 -295zM1331 236v780h168v-766q0 -96 105 -96h49v-154h-72q-250 0 -250 236z" />
<glyph unicode="&#x1f8f;" horiz-adv-x="1714" d="M-416 1333q41 86 100 134.5t121 48.5q52 0 147 -48.5t128 -48.5q65 0 125 92l106 -59q-86 -182 -219 -182q-51 0 -146.5 46t-133.5 46q-35 0 -62.5 -18t-66.5 -64zM-215 1081q0 65 56.5 104.5t158.5 53.5l57 -133q-68 -10 -94 -30t-26 -52q0 -61 63 -127l-84 -31 q-131 109 -131 215zM12 0l523 1425h155l522 -1425h-190l-115 328h-592l-114 -328h-189zM367 483h489l-137 400l-105 303h-6l-100 -295zM1331 236v780h168v-766q0 -96 105 -96h49v-154h-72q-250 0 -250 236z" />
<glyph unicode="&#x1f90;" horiz-adv-x="1073" d="M133 0v1018h168v-129h6q52 66 126.5 101.5t156.5 35.5q153 0 250.5 -91t97.5 -261v-674h-168v608q0 125 -52 188.5t-179 63.5q-103 0 -170.5 -68.5t-67.5 -183.5v-608h-168zM371 1430l59 165q112 -21 175 -75t63 -142q0 -52 -32.5 -121.5t-98.5 -128.5l-88 39 q53 72 53 144q0 97 -131 119zM463 -117h158v-192q0 -90 98 -90h35v-144h-58q-233 0 -233 221v205z" />
<glyph unicode="&#x1f91;" horiz-adv-x="1073" d="M133 0v1018h168v-129h6q52 66 126.5 101.5t156.5 35.5q153 0 250.5 -91t97.5 -261v-674h-168v608q0 125 -52 188.5t-179 63.5q-103 0 -170.5 -68.5t-67.5 -183.5v-608h-168zM373 1378q0 88 62.5 142t174.5 75l60 -165q-131 -22 -131 -119q0 -72 53 -144l-88 -39 q-66 59 -98.5 128.5t-32.5 121.5zM463 -117h158v-192q0 -90 98 -90h35v-144h-58q-233 0 -233 221v205z" />
<glyph unicode="&#x1f92;" horiz-adv-x="1073" d="M133 0v1018h168v-129h6q52 66 126.5 101.5t156.5 35.5q153 0 250.5 -91t97.5 -261v-674h-168v608q0 125 -52 188.5t-179 63.5q-103 0 -170.5 -68.5t-67.5 -183.5v-608h-168zM147 1432l60 165q112 -21 174.5 -75t62.5 -142q0 -52 -32.5 -121.5t-98.5 -128.5l-88 39 q54 74 54 144q0 97 -132 119zM461 1563l203 34l176 -430l-95 -32zM463 -117h158v-192q0 -90 98 -90h35v-144h-58q-233 0 -233 221v205z" />
<glyph unicode="&#x1f93;" horiz-adv-x="1073" d="M133 0v1018h168v-129h6q52 66 126.5 101.5t156.5 35.5q153 0 250.5 -91t97.5 -261v-674h-168v608q0 125 -52 188.5t-179 63.5q-103 0 -170.5 -68.5t-67.5 -183.5v-608h-168zM174 1378q0 88 63 142t175 75l59 -165q-131 -22 -131 -119q0 -72 53 -144l-88 -39 q-66 59 -98.5 128.5t-32.5 121.5zM463 -117h158v-192q0 -90 98 -90h35v-144h-58q-233 0 -233 221v205zM483 1563l203 34l176 -430l-94 -32z" />
<glyph unicode="&#x1f94;" horiz-adv-x="1073" d="M133 0v1018h168v-129h6q52 66 126.5 101.5t156.5 35.5q153 0 250.5 -91t97.5 -261v-674h-168v608q0 125 -52 188.5t-179 63.5q-103 0 -170.5 -68.5t-67.5 -183.5v-608h-168zM242 1427l59 166q112 -21 175 -75t63 -142q0 -52 -32.5 -121.5t-98.5 -128.5l-89 39 q54 74 54 144q0 96 -131 118zM463 -117h158v-192q0 -90 98 -90h35v-144h-58q-233 0 -233 221v205zM580 1167l184 430l194 -34l-284 -428z" />
<glyph unicode="&#x1f95;" horiz-adv-x="1073" d="M133 0v1018h168v-129h6q52 66 126.5 101.5t156.5 35.5q153 0 250.5 -91t97.5 -261v-674h-168v608q0 125 -52 188.5t-179 63.5q-103 0 -170.5 -68.5t-67.5 -183.5v-608h-168zM283 1376q0 88 62.5 142t174.5 75l60 -166q-131 -22 -131 -118q0 -72 53 -144l-88 -39 q-66 59 -98.5 128.5t-32.5 121.5zM463 -117h158v-192q0 -90 98 -90h35v-144h-58q-233 0 -233 221v205zM580 1167l184 430l194 -34l-284 -428z" />
<glyph unicode="&#x1f96;" horiz-adv-x="1073" d="M133 0v1018h168v-129h6q52 66 126.5 101.5t156.5 35.5q153 0 250.5 -91t97.5 -261v-674h-168v608q0 125 -52 188.5t-179 63.5q-103 0 -170.5 -68.5t-67.5 -183.5v-608h-168zM162 1548q41 86 100 134.5t121 48.5q52 0 146.5 -48.5t127.5 -48.5q65 0 125 92l107 -59 q-86 -182 -219 -182q-51 0 -147 46t-134 46q-35 0 -62.5 -18t-66.5 -64zM377 1325l57 133q103 -14 160 -54t57 -104q0 -43 -30.5 -99t-102.5 -116l-84 31q66 69 66 127q0 32 -27.5 52t-95.5 30zM463 -117h158v-192q0 -90 98 -90h35v-144h-58q-233 0 -233 221v205z" />
<glyph unicode="&#x1f97;" horiz-adv-x="1073" d="M133 0v1018h168v-129h6q52 66 126.5 101.5t156.5 35.5q153 0 250.5 -91t97.5 -261v-674h-168v608q0 125 -52 188.5t-179 63.5q-103 0 -170.5 -68.5t-67.5 -183.5v-608h-168zM150 1554q41 86 100 134.5t121 48.5q52 0 146.5 -48.5t127.5 -48.5q64 0 125 93l107 -60 q-86 -182 -220 -182q-51 0 -146.5 46t-133.5 46q-35 0 -62.5 -18t-66.5 -64zM350 1303q0 128 215 157l58 -133q-68 -10 -94.5 -30t-26.5 -52q0 -61 63 -127l-84 -31q-131 109 -131 216zM463 -117h158v-192q0 -90 98 -90h35v-144h-58q-233 0 -233 221v205z" />
<glyph unicode="&#x1f98;" horiz-adv-x="1796" d="M-281 1327l60 166q112 -21 174.5 -75t62.5 -142q0 -52 -32.5 -121.5t-98.5 -128.5l-88 39q53 72 53 143q0 97 -131 119zM156 0v1425h180v-626h631v626h180v-1425h-180v641h-631v-641h-180zM1413 236v780h168v-766q0 -96 105 -96h49v-154h-72q-250 0 -250 236z" />
<glyph unicode="&#x1f99;" horiz-adv-x="1796" d="M-287 1276q0 88 63 142t175 75l59 -166q-131 -22 -131 -119q0 -71 53 -143l-88 -39q-66 59 -98.5 128.5t-32.5 121.5zM156 0v1425h180v-626h631v626h180v-1425h-180v641h-631v-641h-180zM1413 236v780h168v-766q0 -96 105 -96h49v-154h-72q-250 0 -250 236z" />
<glyph unicode="&#x1f9a;" horiz-adv-x="1796" d="M-684 1329l59 166q112 -21 175 -75t63 -142q0 -52 -32.5 -121.5t-98.5 -128.5l-88 39q53 72 53 143q0 97 -131 119zM-371 1460l203 35l176 -430l-94 -33zM156 0v1425h180v-626h631v626h180v-1425h-180v641h-631v-641h-180zM1413 236v780h168v-766q0 -96 105 -96h49v-154 h-72q-250 0 -250 236z" />
<glyph unicode="&#x1f9b;" horiz-adv-x="1796" d="M-680 1276q0 88 63 142t175 75l59 -166q-131 -22 -131 -119q0 -71 53 -143l-88 -39q-66 59 -98.5 128.5t-32.5 121.5zM-371 1460l203 35l176 -430l-94 -33zM156 0v1425h180v-626h631v626h180v-1425h-180v641h-631v-641h-180zM1413 236v780h168v-766q0 -96 105 -96h49 v-154h-72q-250 0 -250 236z" />
<glyph unicode="&#x1f9c;" horiz-adv-x="1796" d="M-705 1325l60 166q112 -21 174.5 -75t62.5 -142q0 -52 -32.5 -121.5t-98.5 -128.5l-88 39q54 74 54 143q0 97 -132 119zM-367 1065l185 430l194 -35l-284 -428zM156 0v1425h180v-626h631v626h180v-1425h-180v641h-631v-641h-180zM1413 236v780h168v-766q0 -96 105 -96h49 v-154h-72q-250 0 -250 236z" />
<glyph unicode="&#x1f9d;" horiz-adv-x="1796" d="M-670 1274q0 88 63 142t175 75l59 -166q-131 -22 -131 -119q0 -71 53 -143l-88 -39q-66 59 -98.5 128.5t-32.5 121.5zM-373 1065l185 430l194 -35l-285 -428zM156 0v1425h180v-626h631v626h180v-1425h-180v641h-631v-641h-180zM1413 236v780h168v-766q0 -96 105 -96h49 v-154h-72q-250 0 -250 236z" />
<glyph unicode="&#x1f9e;" horiz-adv-x="1796" d="M-743 1325q41 86 100 134t121 48q52 0 146.5 -48t127.5 -48q65 0 125 92l107 -59q-86 -182 -220 -182q-51 0 -146.5 46t-133.5 46q-35 0 -62.5 -18t-66.5 -64zM-528 1102l57 133q103 -14 160 -54t57 -104q0 -43 -30.5 -99t-102.5 -116l-84 31q65 68 65 127q0 32 -27 52 t-95 30zM156 0v1425h180v-626h631v626h180v-1425h-180v641h-631v-641h-180zM1413 236v780h168v-766q0 -96 105 -96h49v-154h-72q-250 0 -250 236z" />
<glyph unicode="&#x1f9f;" horiz-adv-x="1796" d="M-748 1333q41 86 100.5 134.5t121.5 48.5q52 0 146.5 -48.5t127.5 -48.5q65 0 125 92l107 -59q-86 -182 -220 -182q-51 0 -146.5 46t-133.5 46q-35 0 -62.5 -18t-66.5 -64zM-547 1081q0 65 56.5 104.5t158.5 53.5l58 -133q-68 -10 -94.5 -30t-26.5 -52q0 -61 63 -127 l-84 -31q-131 109 -131 215zM156 0v1425h180v-626h631v626h180v-1425h-180v641h-631v-641h-180zM1413 236v780h168v-766q0 -96 105 -96h49v-154h-72q-250 0 -250 236z" />
</font>
</defs>
</svg>
